<svg width="500" height="500" viewBox="0 0 500 500" fill="none" xmlns="http://www.w3.org/2000/svg">
<path d="M424.4 132.2C424.4 132.2 425 132.2 425.9 132.7C426.8 133.1 428.1 134 428.9 135.7C429.3 136.5 429.6 137.5 429.5 138.6C429.5 139.7 429.2 140.8 428.5 141.9C428.2 142.4 427.8 142.9 427.3 143.3C426.8 143.7 426.3 144.1 425.7 144.3C424.5 144.9 423 145 421.7 144.7C420.3 144.4 419.1 143.6 418.2 142.6C417.8 142.1 417.4 141.5 417.2 141C416.9 140.4 416.8 139.8 416.7 139.2C416.5 138 416.8 136.8 417.2 135.8C417.6 134.8 418.3 134 419 133.4C420.4 132.2 422 131.9 423 131.9C423.9 132 424.4 132.2 424.4 132.2C424.4 132.2 423.8 132.1 422.8 132.1C421.8 132.1 420.3 132.5 419 133.6C418.3 134.2 417.7 134.9 417.3 135.9C416.9 136.9 416.7 138 416.9 139.1C417 139.7 417.1 140.3 417.4 140.8C417.6 141.4 418 141.9 418.4 142.4C419.2 143.4 420.4 144.1 421.7 144.4C423 144.7 424.4 144.5 425.5 144C426.1 143.8 426.6 143.4 427.1 143C427.6 142.6 428 142.2 428.3 141.7C428.9 140.7 429.2 139.6 429.3 138.6C429.4 137.6 429.1 136.6 428.8 135.8C428.1 134.2 426.9 133.2 426 132.8C425 132.3 424.4 132.2 424.4 132.2Z" fill="#E0E0E0"/>
<path d="M429.5 125.4C429.5 125.4 429.5 125.3 429.5 125.2C429.5 125 429.5 124.8 429.5 124.5C429.5 123.9 429.5 123 429.5 121.8V121.9C428 121.6 426.1 121.2 423.7 120.6L423.8 120.5C423.3 121.5 422.8 122.6 422.3 123.7V123.8H422.2C421 123.9 419.7 124.1 418.4 124.5H418.3L418.2 124.4C417.4 123.6 416.6 122.8 415.7 121.9H415.9C414.3 122.9 412.7 124 410.9 125.1L411 124.9C411.4 125.9 411.8 127.1 412.2 128.3V128.4L412.1 128.5C411.3 129.4 410.5 130.4 409.9 131.6V131.7H409.8C408.7 131.7 407.5 131.7 406.2 131.7L406.4 131.6C406 133.4 405.6 135.4 405.1 137.4L405 137.2C406 137.7 407.1 138.2 408.2 138.7H408.3V138.8C408.3 140 408.6 141.3 409 142.5V142.6L408.9 142.7C408.1 143.5 407.3 144.4 406.4 145.2V145C407.4 146.6 408.5 148.3 409.6 150L409.4 149.9C410.5 149.5 411.6 149.1 412.8 148.7H412.9L413 148.8C413.9 149.6 414.9 150.4 416.1 151C416.1 151.1 416 150.8 416.2 151.2V151.3V151.4V151.6V152V152.9C416.2 153.5 416.2 154.1 416.2 154.7L416.1 154.5C418 154.9 420 155.4 421.9 155.8L421.7 155.9C422.2 154.8 422.7 153.7 423.2 152.7V152.6H423.3C424.6 152.6 425.8 152.3 427 152H427.1L427.2 152.1C428.1 153 428.9 153.8 429.7 154.6H429.5C431.2 153.5 432.9 152.5 434.5 151.4L434.4 151.6C434 150.5 433.6 149.3 433.2 148.2V148.1L433.3 148C434.2 147 434.9 146 435.5 144.9V144.8H435.6C436.8 144.8 438 144.8 439.2 144.8L439.1 144.9C439.6 142.9 440 141 440.4 139.1L440.5 139.3C439.4 138.8 438.3 138.3 437.3 137.8H437.2V137.7C437.1 136.3 436.9 135.1 436.6 133.9V133.8L436.7 133.7C437.6 132.8 438.4 132 439.2 131.2V131.3C438 129.4 436.9 127.7 436.1 126.3H436.2C434.9 126.8 433.7 127.2 432.8 127.5C431.9 126.6 431 126.1 430.5 125.7C430.2 125.5 430 125.4 429.9 125.3C429.6 125.4 429.5 125.4 429.5 125.4C429.5 125.4 429.6 125.4 429.7 125.5C429.8 125.6 430.1 125.7 430.3 125.8C430.9 126.1 431.7 126.7 432.6 127.5H432.5C433.4 127.2 434.5 126.8 435.9 126.3H436V126.4C436.9 127.8 438 129.4 439.2 131.4V131.5L439.1 131.6C438.3 132.4 437.5 133.2 436.6 134.1V134C437 135.2 437.2 136.4 437.3 137.8L437.2 137.7C438.2 138.2 439.3 138.7 440.4 139.2H440.5V139.3C440.1 141.1 439.7 143 439.2 145.1V145.2H439.1C437.9 145.2 436.8 145.2 435.5 145.2L435.6 145.1C435 146.2 434.3 147.3 433.4 148.3V148.1C433.8 149.2 434.2 150.3 434.6 151.5V151.6L434.5 151.7C432.9 152.7 431.2 153.8 429.5 154.9L429.4 155L429.3 154.9C428.5 154.1 427.6 153.2 426.8 152.4H427C425.8 152.8 424.5 153 423.2 153.1L423.4 153C422.9 154.1 422.4 155.1 421.9 156.2L421.8 156.3H421.7C419.8 155.9 417.9 155.4 415.9 155H415.8V154.9C415.8 154.3 415.8 153.7 415.8 153.1V152.2V151.8V151.6V151.5V151.4C416 151.7 415.9 151.5 415.9 151.6C414.7 151 413.6 150.2 412.7 149.4H412.9C411.7 149.8 410.6 150.2 409.5 150.6H409.4L409.3 150.5C408.2 148.8 407.1 147.1 406.1 145.5L406 145.4L406.1 145.3C407 144.4 407.8 143.6 408.6 142.8V143C408.2 141.7 408 140.4 407.9 139.2L408 139.3C406.9 138.8 405.8 138.2 404.8 137.8L404.7 137.7V137.6C405.2 135.6 405.6 133.6 406 131.8V131.7H406.1C407.3 131.7 408.6 131.7 409.7 131.7L409.6 131.8C410.2 130.6 411 129.5 411.8 128.6V128.8C411.4 127.6 411 126.5 410.6 125.4V125.3L410.7 125.2C412.5 124.1 414.1 123 415.7 122.1L415.8 122L415.9 122.1C416.8 123 417.6 123.8 418.4 124.6H418.3C419.6 124.2 420.9 124 422.1 123.9L422 124C422.6 122.8 423.1 121.8 423.5 120.8V120.7H423.6C425.9 121.2 427.9 121.7 429.4 122C429.4 123.1 429.4 124 429.4 124.6C429.4 124.9 429.4 125.1 429.4 125.3C429.5 125.3 429.5 125.4 429.5 125.4Z" fill="#E0E0E0"/>
<path d="M464.5 413.4C464.5 413.4 464.5 413 464.5 412.3C464.5 411.6 464.5 410.5 464.5 409.1C464.5 406.3 464.5 402.3 464.5 397C464.5 386.6 464.4 371.5 464.4 353.1L464.6 353.3C436.7 353.3 400.2 353.3 360.5 353.3L360.7 353.1C360.7 374.4 360.7 394.8 360.7 413.3L360.5 413.1C391 413.1 417 413.2 435.4 413.2C444.6 413.2 451.9 413.2 456.9 413.3C459.4 413.3 461.3 413.3 462.6 413.3C463.2 413.3 463.7 413.3 464.1 413.3C464.3 413.4 464.5 413.4 464.5 413.4C464.5 413.4 464.3 413.4 464 413.4C463.7 413.4 463.2 413.4 462.5 413.4C461.2 413.4 459.3 413.4 456.8 413.4C451.8 413.4 444.5 413.4 435.3 413.5C416.9 413.5 390.8 413.6 360.3 413.6H360.1V413.4C360.1 394.8 360.1 374.5 360.1 353.2V353H360.3C400 353 436.5 353 464.4 353H464.6V353.2C464.6 371.7 464.5 386.8 464.5 397.2C464.5 402.4 464.5 406.5 464.5 409.2C464.5 410.6 464.5 411.6 464.5 412.3C464.5 413.1 464.5 413.4 464.5 413.4Z" fill="#E0E0E0"/>
<path d="M464.5 360.5C464.5 360.6 441.2 360.7 412.5 360.7C383.8 360.7 360.5 360.6 360.5 360.5C360.5 360.4 383.8 360.3 412.5 360.3C441.2 360.3 464.5 360.4 464.5 360.5Z" fill="#E0E0E0"/>
<path d="M401.5 370.4H369.3V402.6H401.5V370.4Z" fill="#F5F5F5"/>
<path d="M456.9 375.7C456.9 375.7 456.7 375.7 456.4 375.7C456 375.7 455.6 375.7 455 375.7C453.8 375.7 452.1 375.7 450 375.8C445.7 375.8 439.9 375.8 433.5 375.9C427.1 375.9 421.3 375.9 417 375.8C414.9 375.8 413.2 375.7 412 375.7C411.4 375.7 411 375.7 410.6 375.7C410.3 375.7 410.1 375.7 410.1 375.7C410.1 375.7 410.3 375.7 410.6 375.7C411 375.7 411.4 375.7 412 375.7C413.2 375.7 414.9 375.7 417 375.6C421.3 375.6 427.1 375.6 433.5 375.5C439.9 375.5 445.7 375.5 450 375.6C452.1 375.6 453.8 375.7 455 375.7C455.6 375.7 456 375.7 456.4 375.7C456.7 375.7 456.9 375.7 456.9 375.7Z" fill="#E0E0E0"/>
<path d="M457.9 382.9C457.9 382.9 457.7 382.9 457.4 382.9C457 382.9 456.6 382.9 456 382.9C454.7 382.9 453 382.9 450.9 383C446.5 383 440.6 383 434.1 383.1C427.6 383.1 421.6 383.1 417.3 383C415.2 383 413.5 382.9 412.2 382.9C411.6 382.9 411.2 382.9 410.8 382.9C410.5 382.9 410.3 382.9 410.3 382.9C410.3 382.9 410.5 382.9 410.8 382.9C411.2 382.9 411.6 382.9 412.2 382.9C413.5 382.9 415.2 382.9 417.3 382.8C421.7 382.8 427.6 382.8 434.1 382.7C440.6 382.7 446.6 382.7 450.9 382.8C453 382.8 454.7 382.9 456 382.9C456.6 382.9 457 382.9 457.4 382.9C457.8 382.9 457.9 382.9 457.9 382.9Z" fill="#E0E0E0"/>
<path d="M457.9 390.1C457.9 390.1 457.7 390.1 457.4 390.1C457 390.1 456.6 390.1 456 390.1C454.7 390.1 453 390.1 450.9 390.2C446.5 390.2 440.6 390.2 434.1 390.3C427.6 390.3 421.6 390.3 417.3 390.2C415.2 390.2 413.5 390.1 412.2 390.1C411.6 390.1 411.2 390.1 410.8 390.1C410.5 390.1 410.3 390.1 410.3 390.1C410.3 390.1 410.5 390.1 410.8 390.1C411.2 390.1 411.6 390.1 412.2 390.1C413.5 390.1 415.2 390.1 417.3 390C421.7 390 427.6 390 434.1 389.9C440.6 389.9 446.6 389.9 450.9 390C453 390 454.7 390.1 456 390.1C456.6 390.1 457 390.1 457.4 390.1C457.8 390.1 457.9 390.1 457.9 390.1Z" fill="#E0E0E0"/>
<path d="M457.9 397.3C457.9 397.3 457.7 397.3 457.4 397.3C457 397.3 456.6 397.3 456 397.3C454.7 397.3 453 397.3 450.9 397.4C446.5 397.4 440.6 397.4 434.1 397.5C427.6 397.5 421.6 397.5 417.3 397.4C415.2 397.4 413.5 397.3 412.2 397.3C411.6 397.3 411.2 397.3 410.8 397.3C410.5 397.3 410.3 397.3 410.3 397.3C410.3 397.3 410.5 397.3 410.8 397.3C411.2 397.3 411.6 397.3 412.2 397.3C413.5 397.3 415.2 397.3 417.3 397.2C421.7 397.2 427.6 397.2 434.1 397.1C440.6 397.1 446.6 397.1 450.9 397.2C453 397.2 454.7 397.3 456 397.3C456.6 397.3 457 397.3 457.4 397.3C457.8 397.3 457.9 397.3 457.9 397.3Z" fill="#E0E0E0"/>
<path d="M193.951 115.135C210.861 98.225 210.861 70.8093 193.951 53.8997C177.042 36.9902 149.626 36.9902 132.716 53.8997C115.807 70.8093 115.807 98.225 132.716 115.135C149.626 132.044 177.042 132.044 193.951 115.135Z" fill="#F5F5F5"/>
<path d="M183 85.8C183 85.8 182.5 85.9 181.5 85.9C180.4 85.9 179 86 177.3 86C173.7 86 168.8 86.1 163.1 86.1H162.8V85.8C162.8 84.9 162.8 84 162.8 83C162.8 76.7 162.8 71.1 162.9 66.9C162.9 64.9 163 63.3 163 62C163 60.9 163.1 60.2 163.1 60.2C163.1 60.2 163.2 60.8 163.2 62C163.2 63.2 163.3 64.9 163.3 66.9C163.4 71 163.4 76.7 163.4 83C163.4 84 163.4 84.9 163.4 85.8L163.1 85.5C168.7 85.5 173.7 85.5 177.3 85.6C179 85.6 180.4 85.7 181.5 85.7C182.4 85.7 183 85.8 183 85.8Z" fill="#E0E0E0"/>
<path d="M163.2 48.3C163.4 48.3 163.5 49.9001 163.5 51.9001C163.5 53.9001 163.4 55.5 163.2 55.5C163 55.5 162.9 53.9001 162.9 51.9001C162.9 49.9001 163.1 48.3 163.2 48.3Z" fill="#E0E0E0"/>
<path d="M182.9 54.1C183 54.2 182 55.4 180.6 56.8C179.2 58.2 178 59.2 177.9 59.1C177.8 59 178.8 57.8 180.2 56.4C181.6 55.1 182.8 54 182.9 54.1Z" fill="#E0E0E0"/>
<path d="M194.5 66.7C194.6 66.8 193.2 67.7 191.5 68.7C189.8 69.7 188.5 70.6 188.4 70.4C188.3 70.3 189.5 69.2 191.2 68.2C192.9 67.2 194.4 66.6 194.5 66.7Z" fill="#E0E0E0"/>
<path d="M201.2 85.4C201.2 85.6 199 85.7 196.2 85.7C193.5 85.7 191.2 85.6 191.2 85.4C191.2 85.2 193.4 85.1 196.2 85.1C199 85.1 201.2 85.3 201.2 85.4Z" fill="#E0E0E0"/>
<path d="M132.5 84.8C132.5 85 130.4 85.1 127.8 85.1C125.2 85.1 123.1 85 123.1 84.8C123.1 84.6 125.2 84.5 127.8 84.5C130.4 84.5 132.5 84.6 132.5 84.8Z" fill="#E0E0E0"/>
<path d="M137.4 98.7C137.5 98.8 135.9 100.3 133.9 101.9C131.8 103.6 130.1 104.8 130 104.7C129.9 104.6 131.5 103.1 133.5 101.5C135.5 99.8 137.3 98.6 137.4 98.7Z" fill="#E0E0E0"/>
<path d="M149.3 109.4C149.4 109.5 148.3 111.3 146.9 113.6C145.5 115.9 144.5 117.8 144.3 117.7C144.2 117.6 145 115.6 146.4 113.3C147.8 111 149.2 109.3 149.3 109.4Z" fill="#E0E0E0"/>
<path d="M163.2 123.3C163 123.3 162.9 121.1 162.9 118.3C162.9 115.6 163 113.3 163.2 113.3C163.4 113.3 163.5 115.5 163.5 118.3C163.5 121.1 163.4 123.3 163.2 123.3Z" fill="#E0E0E0"/>
<path d="M184.6 116.7C184.5 116.8 182.6 115.7 180.5 113.9C178.4 112.1 177.1 110.3 177.2 110.2C177.3 110.1 178.9 111.7 180.9 113.4C182.9 115.3 184.7 116.6 184.6 116.7Z" fill="#E0E0E0"/>
<path d="M194.6 105.9C194.5 106 193 104.7 191.3 103C189.6 101.3 188.3 99.8 188.4 99.7C188.5 99.6 190 100.9 191.7 102.6C193.4 104.3 194.7 105.8 194.6 105.9Z" fill="#E0E0E0"/>
<path d="M136.9 71.4C136.8 71.5 135.5 70.4 134 68.9C132.5 67.4 131.4 66.1 131.5 66C131.6 65.9 132.9 67 134.4 68.5C135.9 70 137 71.3 136.9 71.4Z" fill="#E0E0E0"/>
<path d="M149.3 58.4C149.2 58.5 147.9 57.4 146.5 56C145 54.5 143.9 53.3 144 53.2C144.1 53.1 145.4 54.2 146.8 55.6C148.3 57 149.4 58.3 149.3 58.4Z" fill="#E0E0E0"/>
<g opacity="0.8">
<g opacity="0.8">
<g opacity="0.8">
<path opacity="0.8" fill-rule="evenodd" clip-rule="evenodd" d="M398.7 62.3C401 63.5 403.1 65 404.9 66.7L411.6 64.3L417.9 74.2L412.9 79.2C413.7 81.6 414.1 84.1 414.2 86.7L420.6 89.7L418 101.1H410.9C409.7 103.4 408.2 105.5 406.5 107.3L408.9 114L399 120.3L394 115.3C391.6 116.1 389.1 116.5 386.5 116.6L383.5 123L372.1 120.4V113.3C369.8 112.1 367.7 110.6 365.9 108.9L359.2 111.3L352.9 101.4L357.9 96.4C357.1 94 356.7 91.5 356.6 88.9L350.2 85.9L352.8 74.5H359.9C361.1 72.2 362.6 70.1 364.3 68.3L361.9 61.6L371.8 55.3L376.8 60.3C379.2 59.5 381.7 59.1 384.3 59L387.3 52.6L398.7 55.2V62.3ZM388.7 75.7C381.9 74.2 375.2 78.4 373.7 85.2C372.2 92 376.4 98.7 383.2 100.2C390 101.7 396.7 97.5 398.2 90.7C399.7 83.9 395.4 77.2 388.7 75.7Z" fill="#EBEBEB"/>
</g>
</g>
</g>
<path d="M63.7 162.6H137.7C137.7 162.6 131.2 150.7 112.1 152.4C93.8999 154.1 92.9999 146.5 83.6999 145.6C74.4999 144.7 66.8 151.8 63.7 162.6Z" fill="#F5F5F5"/>
<path d="M223.8 297.1H283.7C283.7 297.1 278.4 287.5 263 288.9C248.3 290.2 247.5 284.2 240 283.4C232.5 282.6 226.3 288.3 223.8 297.1Z" fill="#F5F5F5"/>
<path d="M480.1 444.8C480.1 444.9 377.1 445.1 250 445.1C122.9 445.1 19.8 445 19.8 444.8C19.8 444.7 122.8 444.5 250 444.5C377.1 444.6 480.1 444.7 480.1 444.8Z" fill="#263238"/>
<path d="M455.2 145.1H309.9V242.4H455.2V145.1Z" fill="white"/>
<path d="M455.2 242.4C455.2 242.4 455.2 241.8 455.2 240.6C455.2 239.4 455.2 237.7 455.2 235.5C455.2 231 455.2 224.4 455.1 215.9C455.1 199 455 174.7 455 145.1L455.2 145.3C415.2 145.3 364.7 145.3 309.9 145.4L310.2 145.1C310.2 179.8 310.2 212.7 310.2 242.4L310 242.2C352.8 242.2 389.1 242.3 414.7 242.3C427.5 242.3 437.7 242.3 444.6 242.4C448.1 242.4 450.7 242.4 452.6 242.4C453.5 242.4 454.2 242.4 454.7 242.4C454.9 242.4 455.2 242.4 455.2 242.4C455.2 242.4 455 242.4 454.5 242.4C454 242.4 453.4 242.4 452.5 242.4C450.7 242.4 448 242.4 444.6 242.4C437.7 242.4 427.5 242.4 414.8 242.5C389.2 242.5 352.8 242.6 310 242.6H309.8V242.4C309.8 212.7 309.8 179.8 309.8 145.1V144.8H310.1C364.8 144.8 415.3 144.8 455.4 144.9H455.6V145.1C455.6 174.8 455.5 199.1 455.5 216C455.5 224.4 455.5 231 455.4 235.5C455.4 237.7 455.4 239.4 455.4 240.6C455.2 241.8 455.2 242.4 455.2 242.4Z" fill="#544694"/>
<path d="M309.9 153.8C309.9 153.7 342.4 153.5 382.5 153.5C422.6 153.5 455.1 153.6 455.1 153.8C455.1 154 422.6 154.1 382.5 154.1C342.4 154.1 309.9 153.9 309.9 153.8Z" fill="#544694"/>
<g opacity="0.3">
<path opacity="0.3" d="M315.6 149.4C315.6 150 315.1 150.6 314.4 150.6C313.7 150.6 313.2 150.1 313.2 149.4C313.2 148.8 313.7 148.2 314.4 148.2C315.1 148.2 315.6 148.8 315.6 149.4Z" fill="#544694"/>
</g>
<g opacity="0.3">
<path opacity="0.3" d="M319.6 149.4C319.6 150 319.1 150.6 318.4 150.6C317.8 150.6 317.2 150.1 317.2 149.4C317.2 148.8 317.7 148.2 318.4 148.2C319.1 148.3 319.6 148.8 319.6 149.4Z" fill="#544694"/>
</g>
<g opacity="0.3">
<path opacity="0.3" d="M323.6 149.4C323.6 150 323.1 150.6 322.4 150.6C321.8 150.6 321.2 150.1 321.2 149.4C321.2 148.8 321.7 148.2 322.4 148.2C323 148.3 323.6 148.8 323.6 149.4Z" fill="#544694"/>
</g>
<g opacity="0.3">
<path opacity="0.3" d="M361.2 164H322.4V202.8H361.2V164Z" fill="#544694"/>
</g>
<path d="M435.3 174.9C435.3 175 420.2 175.2 401.5 175.2C382.9 175.2 367.7 175.1 367.7 174.9C367.7 174.7 382.8 174.6 401.5 174.6C420.2 174.6 435.3 174.8 435.3 174.9Z" fill="#544694"/>
<path d="M435.3 182.1C435.3 182.2 420.2 182.4 401.5 182.4C382.9 182.4 367.7 182.3 367.7 182.1C367.7 182 382.8 181.8 401.5 181.8C420.2 181.8 435.3 182 435.3 182.1Z" fill="#544694"/>
<path d="M435.3 189.3C435.3 189.4 420.2 189.6 401.5 189.6C382.9 189.6 367.7 189.5 367.7 189.3C367.7 189.1 382.8 189 401.5 189C420.2 189 435.3 189.2 435.3 189.3Z" fill="#544694"/>
<path d="M407.7 196.5C407.7 196.5 407.1 196.6 406.1 196.6C405 196.6 403.6 196.6 401.8 196.7C398.2 196.7 393.2 196.8 387.7 196.8C382.2 196.8 377.2 196.8 373.6 196.7C371.9 196.7 370.4 196.6 369.3 196.6C368.3 196.6 367.7 196.5 367.7 196.5C367.7 196.5 368.3 196.4 369.3 196.4C370.4 196.4 371.8 196.4 373.6 196.3C377.2 196.3 382.2 196.2 387.7 196.2C393.2 196.2 398.2 196.2 401.8 196.3C403.5 196.3 405 196.4 406.1 196.4C407.1 196.4 407.7 196.5 407.7 196.5Z" fill="#544694"/>
<g opacity="0.3">
<path opacity="0.3" d="M343 215.8H324.8V234H343V215.8Z" fill="#544694"/>
</g>
<g opacity="0.3">
<path opacity="0.3" d="M376.1 215.8H357.9V234H376.1V215.8Z" fill="#544694"/>
</g>
<g opacity="0.3">
<path opacity="0.3" d="M409.1 215.8H390.9V234H409.1V215.8Z" fill="#544694"/>
</g>
<g opacity="0.3">
<path opacity="0.3" d="M442.1 215.8H423.9V234H442.1V215.8Z" fill="#544694"/>
</g>
<path d="M173.6 180.2H44.2V232.8H173.6V180.2Z" fill="white"/>
<path d="M173.6 232.7C173.6 232.7 173.6 232.4 173.6 231.8C173.6 231.2 173.6 230.3 173.6 229.1C173.6 226.7 173.6 223.2 173.6 218.6C173.6 209.5 173.6 196.4 173.5 180.2L173.6 180.3C140.7 180.3 94.8 180.3 44.2 180.4L44.4 180.2C44.4 198.6 44.4 216.4 44.4 232.8L44.2 232.6C81.7 232.6 114 232.7 137 232.7C148.5 232.7 157.6 232.7 163.9 232.8C167 232.8 169.5 232.8 171.1 232.8C171.9 232.8 172.5 232.8 173 232.8C173.4 232.7 173.6 232.7 173.6 232.7C173.6 232.7 173.4 232.7 173 232.7C172.6 232.7 172 232.7 171.2 232.7C169.6 232.7 167.2 232.7 164 232.7C157.7 232.7 148.6 232.7 137.1 232.8C114.1 232.8 81.7 232.9 44.2 232.9H44V232.7C44 216.3 44 198.5 44 180.1V180H44.2C94.9 180 140.7 180 173.6 180.1H173.7V180.2C173.7 196.5 173.6 209.6 173.6 218.7C173.6 223.2 173.6 226.7 173.6 229.1C173.6 230.3 173.6 231.2 173.6 231.8C173.6 232.4 173.6 232.7 173.6 232.7Z" fill="#544694"/>
<path d="M44.3 187.3C44.3 187.2 73.2001 187.1 108.9 187.1C144.6 187.1 173.5 187.2 173.5 187.3C173.5 187.4 144.6 187.5 108.9 187.5C73.3001 187.5 44.3 187.4 44.3 187.3Z" fill="#544694"/>
<g opacity="0.3">
<path opacity="0.3" d="M49.8 184.1C49.8 184.6 49.4 185 48.9 185C48.4 185 48 184.6 48 184.1C48 183.6 48.4 183.2 48.9 183.2C49.3 183.1 49.8 183.6 49.8 184.1Z" fill="#544694"/>
</g>
<g opacity="0.3">
<path opacity="0.3" d="M53 184.1C53 184.6 52.5999 185 52.0999 185C51.5999 185 51.2 184.6 51.2 184.1C51.2 183.6 51.5999 183.2 52.0999 183.2C52.5999 183.1 53 183.6 53 184.1Z" fill="#544694"/>
</g>
<g opacity="0.3">
<path opacity="0.3" d="M56.1 184.1C56.1 184.6 55.7001 185 55.2001 185C54.7001 185 54.3 184.6 54.3 184.1C54.3 183.6 54.7001 183.2 55.2001 183.2C55.7001 183.1 56.1 183.6 56.1 184.1Z" fill="#544694"/>
</g>
<g opacity="0.3">
<path opacity="0.3" d="M86.5 195.8H55.2V227.1H86.5V195.8Z" fill="#544694"/>
</g>
<path d="M164.7 204.2C164.7 204.3 148.6 204.4 128.8 204.4C109 204.4 92.8999 204.3 92.8999 204.2C92.8999 204.1 109 204 128.8 204C148.6 204 164.7 204.1 164.7 204.2Z" fill="#544694"/>
<path d="M164.7 210.5C164.7 210.6 148.6 210.7 128.8 210.7C109 210.7 92.8999 210.6 92.8999 210.5C92.8999 210.4 109 210.3 128.8 210.3C148.6 210.3 164.7 210.4 164.7 210.5Z" fill="#544694"/>
<path d="M139.1 216.9C139.1 216.9 138.9 216.9 138.6 216.9C138.2 216.9 137.8 216.9 137.3 216.9C136.1 216.9 134.4 216.9 132.3 217C128.1 217 122.3 217 115.9 217.1C109.5 217.1 103.8 217.1 99.5 217C97.4 217 95.8 217 94.5 216.9C94 216.9 93.5 216.9 93.2 216.9C92.9 216.9 92.7 216.9 92.7 216.9C92.7 216.9 92.9 216.9 93.2 216.9C93.6 216.9 94 216.9 94.5 216.9C95.7 216.9 97.4 216.9 99.5 216.8C103.7 216.8 109.5 216.8 115.9 216.7C122.3 216.7 128 216.7 132.3 216.8C134.4 216.8 136 216.8 137.3 216.9C137.8 216.9 138.3 216.9 138.6 216.9C138.9 216.9 139.1 216.9 139.1 216.9Z" fill="#544694"/>
<path d="M268.7 114.1C266.5 112.7 263.6 113.5 261.4 115C259.2 116.4 257.4 118.4 254.9 119.4C250.3 121.2 244.4 119.1 240.8 122.4C238.5 124.5 238.3 128.1 236.6 130.6C233.7 135 226.7 136.6 226.2 141.8C225.9 144.8 228.3 147.7 231.2 148.6C234.1 149.5 237.4 148.6 239.9 146.9C242.9 144.9 245.2 141.9 248.6 140.8C252.1 139.7 256.3 140.6 259.1 138.2C261.8 135.8 261.4 131.3 263.4 128.3C264.4 126.7 266.1 125.5 267.6 124.2C269.1 122.9 270.5 121.4 270.7 119.4C270.8 117.5 270.1 114.2 268.7 114.1Z" fill="#F5F5F5"/>
<path d="M212.4 326.6C212.5 326.5 212.9 326.9 213.3 327.5C213.7 328.1 213.9 328.6 213.8 328.7C213.7 328.8 213.3 328.4 212.9 327.8C212.5 327.2 212.3 326.6 212.4 326.6Z" fill="#263238"/>
<path d="M208.1 317.5C208.2 317.5 208.8 318.4 209.3 319.7C209.8 321 210.1 322.1 210 322.1C209.9 322.2 209.3 321.2 208.8 319.9C208.3 318.7 208 317.6 208.1 317.5Z" fill="#263238"/>
<path d="M205.8 307.8C205.9 307.8 206.3 308.9 206.5 310.2C206.8 311.6 206.8 312.7 206.7 312.7C206.6 312.7 206.2 311.7 206 310.3C205.7 309 205.6 307.8 205.8 307.8Z" fill="#263238"/>
<path d="M205.4 297.8C205.5 297.8 205.6 298.9 205.6 300.3C205.6 301.7 205.4 302.8 205.3 302.8C205.2 302.8 205.1 301.7 205.1 300.3C205.2 298.9 205.3 297.8 205.4 297.8Z" fill="#263238"/>
<path d="M207 288C207.1 288 207 289.2 206.7 290.5C206.4 291.8 206.1 292.9 205.9 292.9C205.8 292.9 205.9 291.8 206.2 290.4C206.6 289 206.9 287.9 207 288Z" fill="#263238"/>
<path d="M210.6 278.6C210.7 278.7 210.4 279.7 209.8 281C209.2 282.3 208.7 283.2 208.5 283.2C208.4 283.1 208.7 282.1 209.3 280.8C209.9 279.6 210.5 278.6 210.6 278.6Z" fill="#263238"/>
<path d="M216.2 270.3C216.3 270.4 215.7 271.4 214.9 272.5C214.1 273.6 213.3 274.4 213.2 274.4C213.1 274.3 213.6 273.3 214.5 272.2C215.3 271.1 216 270.2 216.2 270.3Z" fill="#263238"/>
<path d="M222.9 262.9C223 263 222.3 263.9 221.4 264.9C220.4 265.9 219.6 266.6 219.5 266.5C219.4 266.4 220.1 265.5 221 264.5C221.9 263.5 222.8 262.8 222.9 262.9Z" fill="#263238"/>
<path d="M229.9 255.8C230 255.9 229.3 256.8 228.3 257.8C227.3 258.8 226.5 259.5 226.4 259.4C226.3 259.3 227 258.4 228 257.4C228.9 256.4 229.8 255.7 229.9 255.8Z" fill="#263238"/>
<path d="M236.5 248.3C236.6 248.4 236 249.3 235.1 250.4C234.2 251.5 233.4 252.3 233.3 252.2C233.2 252.1 233.8 251.2 234.7 250.1C235.6 249 236.4 248.2 236.5 248.3Z" fill="#263238"/>
<path d="M241.6 239.7C241.7 239.8 241.4 240.8 240.8 242.1C240.2 243.3 239.5 244.2 239.3 244.2C239.2 244.1 239.7 243.1 240.3 241.9C240.9 240.6 241.5 239.6 241.6 239.7Z" fill="#263238"/>
<path d="M244 230C244.1 230 244.2 231.1 243.9 232.5C243.7 233.9 243.3 234.9 243.1 234.9C243 234.9 243.1 233.8 243.4 232.4C243.7 231.1 243.9 230 244 230Z" fill="#263238"/>
<path d="M243.3 220.1C243.4 220.1 243.8 221.1 244 222.5C244.2 223.9 244.2 225 244 225C243.9 225 243.7 223.9 243.5 222.6C243.3 221.2 243.1 220.1 243.3 220.1Z" fill="#263238"/>
<path d="M239.4 210.9C239.5 210.8 240.3 211.7 240.9 212.9C241.6 214.1 241.9 215.2 241.8 215.3C241.7 215.4 241.1 214.4 240.5 213.2C239.8 212 239.2 211 239.4 210.9Z" fill="#263238"/>
<path d="M232.4 203.8C232.5 203.7 233.5 204.2 234.6 205.1C235.7 206 236.4 206.9 236.3 207C236.2 207.1 235.3 206.4 234.3 205.5C233.2 204.7 232.3 203.9 232.4 203.8Z" fill="#263238"/>
<path d="M223.3 199.8C223.3 199.7 224.5 199.8 225.8 200.3C227.1 200.8 228.1 201.3 228 201.5C227.9 201.6 226.9 201.3 225.6 200.8C224.3 200.3 223.3 199.9 223.3 199.8Z" fill="#263238"/>
<path d="M213.4 199.3C213.4 199.2 214.5 198.9 215.9 198.8C217.3 198.7 218.4 198.9 218.4 199.1C218.4 199.2 217.3 199.3 215.9 199.4C214.5 199.4 213.4 199.5 213.4 199.3Z" fill="#263238"/>
<path d="M204.1 203C204 202.9 204.9 202.1 206.1 201.5C207.3 200.8 208.4 200.5 208.5 200.7C208.6 200.8 207.6 201.3 206.4 202C205.2 202.6 204.2 203.1 204.1 203Z" fill="#263238"/>
<path d="M197.3 210.2C197.2 210.1 197.7 209.1 198.5 208C199.4 206.9 200.2 206.2 200.3 206.3C200.4 206.4 199.7 207.3 198.9 208.4C198.1 209.4 197.4 210.3 197.3 210.2Z" fill="#263238"/>
<path d="M193.9 219.5C193.8 219.5 193.8 218.3 194.1 217C194.4 215.6 194.9 214.6 195.1 214.7C195.2 214.8 194.9 215.8 194.6 217.2C194.3 218.4 194 219.5 193.9 219.5Z" fill="#263238"/>
<path d="M195.1 229.4C195 229.5 194.5 228.4 194.1 227.1C193.8 225.7 193.8 224.6 193.9 224.6C194 224.6 194.3 225.7 194.6 227C194.9 228.2 195.2 229.3 195.1 229.4Z" fill="#263238"/>
<path d="M200.1 237.9C200 238 199.2 237.2 198.4 236.1C197.6 235 197.1 233.9 197.2 233.9C197.3 233.8 198 234.7 198.8 235.8C199.6 236.9 200.3 237.8 200.1 237.9Z" fill="#263238"/>
<path d="M207.5 244.7C207.4 244.8 206.4 244.3 205.3 243.4C204.2 242.5 203.5 241.7 203.6 241.6C203.7 241.5 204.6 242.2 205.7 243C206.8 243.8 207.6 244.6 207.5 244.7Z" fill="#263238"/>
<path d="M216.2 249.6C216.1 249.7 215.1 249.3 213.9 248.7C212.7 248.1 211.7 247.5 211.8 247.3C211.9 247.2 212.9 247.6 214.1 248.2C215.3 248.9 216.2 249.5 216.2 249.6Z" fill="#263238"/>
<path d="M225.7 252.7C225.7 252.8 224.5 252.8 223.2 252.4C221.9 252.1 220.8 251.6 220.9 251.5C220.9 251.4 222 251.6 223.4 251.9C224.6 252.2 225.7 252.5 225.7 252.7Z" fill="#263238"/>
<path d="M235.7 253.2C235.7 253.3 234.6 253.6 233.2 253.6C231.8 253.6 230.7 253.4 230.7 253.3C230.7 253.2 231.8 253.1 233.2 253.1C234.5 253 235.6 253 235.7 253.2Z" fill="#263238"/>
<path d="M245.3 250.6C245.4 250.7 244.4 251.3 243.1 251.8C241.8 252.3 240.7 252.4 240.6 252.3C240.6 252.2 241.6 251.8 242.9 251.3C244.2 250.9 245.2 250.5 245.3 250.6Z" fill="#263238"/>
<path d="M253.6 245.2C253.7 245.3 252.9 246.2 251.8 247C250.7 247.9 249.7 248.4 249.6 248.2C249.5 248.1 250.4 247.4 251.5 246.5C252.6 245.7 253.5 245 253.6 245.2Z" fill="#263238"/>
<path d="M260.1 237.6C260.2 237.7 259.7 238.7 258.9 239.8C258.1 240.9 257.2 241.7 257.1 241.6C257 241.5 257.6 240.6 258.5 239.5C259.3 238.4 260 237.5 260.1 237.6Z" fill="#263238"/>
<path d="M264.5 228.6C264.6 228.6 264.4 229.8 263.9 231C263.4 232.3 262.8 233.3 262.6 233.2C262.5 233.1 262.9 232.1 263.4 230.8C263.9 229.6 264.3 228.6 264.5 228.6Z" fill="#263238"/>
<path d="M266.4 218.8C266.5 218.8 266.6 219.9 266.4 221.3C266.2 222.7 265.9 223.8 265.7 223.7C265.6 223.7 265.7 222.6 265.9 221.2C266.1 219.9 266.3 218.8 266.4 218.8Z" fill="#263238"/>
<path d="M266.1 208.8C266.2 208.8 266.4 209.9 266.6 211.3C266.7 212.7 266.7 213.8 266.5 213.8C266.4 213.8 266.2 212.7 266 211.3C266 210 266 208.8 266.1 208.8Z" fill="#263238"/>
<path d="M264 199C264.1 199 264.5 200 264.9 201.3C265.3 202.6 265.4 203.8 265.3 203.8C265.2 203.8 264.8 202.8 264.4 201.5C264 200.2 263.8 199.1 264 199Z" fill="#263238"/>
<path d="M260.1 189.8C260.2 189.7 260.8 190.7 261.4 191.9C262 193.2 262.3 194.2 262.2 194.3C262.1 194.4 261.5 193.4 261 192.1C260.4 190.9 260 189.9 260.1 189.8Z" fill="#263238"/>
<path d="M255.2 181.1C255.3 181 256 181.9 256.7 183.1C257.4 184.3 257.9 185.3 257.7 185.4C257.6 185.5 256.9 184.6 256.2 183.4C255.6 182.2 255.1 181.2 255.2 181.1Z" fill="#263238"/>
<path d="M250.3 172.4C250.4 172.3 251.1 173.3 251.7 174.5C252.4 175.7 252.8 176.7 252.7 176.8C252.6 176.9 251.9 175.9 251.3 174.7C250.6 173.5 250.1 172.5 250.3 172.4Z" fill="#263238"/>
<path d="M246.4 163.2C246.5 163.2 247 164.2 247.5 165.5C248 166.8 248.3 167.9 248.1 167.9C248 168 247.5 167 247 165.6C246.5 164.3 246.2 163.3 246.4 163.2Z" fill="#263238"/>
<path d="M244.7 153.4C244.8 153.4 245 154.5 245.1 155.9C245.2 157.3 245.3 158.4 245.2 158.4C245.1 158.4 244.7 157.3 244.6 156C244.4 154.5 244.5 153.4 244.7 153.4Z" fill="#263238"/>
<path d="M245.5 143.4C245.6 143.4 245.5 144.5 245.3 145.9C245.1 147.3 244.9 148.4 244.8 148.3C244.7 148.3 244.6 147.2 244.8 145.8C245 144.5 245.3 143.4 245.5 143.4Z" fill="#263238"/>
<path d="M248.7 134C248.8 134.1 248.4 135.1 247.9 136.4C247.4 137.7 246.9 138.7 246.8 138.6C246.7 138.6 246.9 137.4 247.4 136.2C248 134.9 248.6 133.9 248.7 134Z" fill="#263238"/>
<path d="M254.3 125.7C254.4 125.8 253.7 126.7 252.9 127.8C252.1 128.9 251.3 129.7 251.2 129.7C251.1 129.6 251.6 128.6 252.5 127.5C253.4 126.4 254.2 125.6 254.3 125.7Z" fill="#263238"/>
<path d="M261.8 119.1C261.9 119.2 261 119.9 259.9 120.8C258.8 121.6 257.9 122.3 257.8 122.2C257.7 122.1 258.5 121.3 259.6 120.4C260.7 119.5 261.7 119 261.8 119.1Z" fill="#263238"/>
<path d="M270.7 114.6C270.7 114.7 269.7 115.2 268.5 115.8C267.2 116.3 266.2 116.8 266.1 116.6C266 116.5 267 115.8 268.3 115.3C269.6 114.7 270.7 114.5 270.7 114.6Z" fill="#263238"/>
<path d="M278 112.8C278 112.9 277.5 113.2 276.8 113.3C276.1 113.4 275.6 113.4 275.5 113.3C275.5 113.2 276 112.9 276.7 112.8C277.4 112.6 277.9 112.6 278 112.8Z" fill="#263238"/>
<path d="M298.4 83.3C298.4 83.3 310.1 74.9 326.4 80.3C326.4 80.3 327.7 93.8 314.7 104.5" fill="#544694"/>
<path d="M261.4 108.2C261.9 108.9 274.6 129.4 274.6 129.4L312.9 105.8C319.6 101.7 321.3 92.7 316.6 86.4C312.3 80.6 304.3 79.3 298.4 83.3L261.4 108.2Z" fill="#544694"/>
<path d="M274.6 129.4L273.7 143.8C273.7 143.8 298.5 131.8 292.3 118.4L274.6 129.4Z" fill="#263238"/>
<path d="M279.1 96.3C279.1 96.3 262.3 88.9 248.4 99.8L261.3 108.2L279.1 96.3Z" fill="#263238"/>
<path d="M279 108.2L255.1 123.2C255.1 123.2 255.9 125.8 256.6 125.6C257.1 125.4 275.1 114.8 281 111.4C282 110.8 282.2 109.6 281.5 108.7C280.7 107.9 279.7 107.7 279 108.2Z" fill="#263238"/>
<path d="M308.544 98.6424C309.517 94.5029 306.951 90.3577 302.812 89.3839C298.672 88.41 294.527 90.9763 293.553 95.1158C292.579 99.2552 295.146 103.4 299.285 104.374C303.425 105.348 307.57 102.782 308.544 98.6424Z" fill="#FAFAFA"/>
<path d="M308.7 96.9C308.6 96.9 308.7 96.2 308.4 95.1C308.1 94 307.3 92.3 305.6 91C304.7 90.4 303.7 89.8 302.4 89.6C301.2 89.4 299.8 89.4 298.5 89.9C297.2 90.4 295.9 91.3 295.1 92.5C294.2 93.7 293.7 95.3 293.7 96.9C293.7 98.5 294.2 100.1 295.1 101.3C296 102.5 297.2 103.4 298.5 103.9C299.8 104.4 301.2 104.4 302.4 104.2C303.6 104 304.7 103.5 305.6 102.8C307.3 101.5 308.1 99.8 308.4 98.7C308.6 97.5 308.6 96.8 308.7 96.9C308.7 96.9 308.7 97.1 308.7 97.4C308.7 97.7 308.7 98.2 308.5 98.8C308.2 100 307.5 101.8 305.7 103.1C304.8 103.8 303.7 104.4 302.4 104.6C301.1 104.8 299.7 104.8 298.3 104.3C296.9 103.8 295.6 102.9 294.6 101.6C293.6 100.3 293.1 98.6 293.1 96.9C293.1 95.2 293.7 93.5 294.6 92.2C295.6 90.9 296.9 89.9 298.3 89.5C299.7 89 301.2 88.9 302.4 89.2C303.7 89.4 304.8 90 305.7 90.7C307.5 92.1 308.2 93.9 308.5 95C308.6 95.6 308.7 96.1 308.7 96.4C308.7 96.7 308.7 96.9 308.7 96.9Z" fill="#263238"/>
<path d="M318 102C317.9 102 317.8 100.5 317.2 98.2C316.9 97 316.5 95.7 315.9 94.2C315.3 92.7 314.5 91.2 313.5 89.6C312.5 88.1 311.4 86.7 310.3 85.5C309.2 84.4 308.2 83.4 307.2 82.6C305.3 81.1 304 80.4 304.1 80.3C304.1 80.3 304.5 80.4 305.1 80.8C305.4 81 305.8 81.2 306.2 81.4C306.6 81.7 307.1 81.9 307.6 82.3C308.6 83 309.7 84 310.8 85.1C311.9 86.3 313 87.6 314.1 89.2C315.1 90.8 315.9 92.4 316.5 93.9C317.1 95.4 317.5 96.8 317.7 98C317.8 98.6 317.9 99.1 318 99.6C318.1 100.1 318.1 100.5 318.1 100.8C318 101.6 318 102 318 102Z" fill="#263238"/>
<path d="M315.9 103.1C315.8 103.1 315.7 101.6 315.1 99.2C314.8 98 314.4 96.6 313.7 95.1C313.1 93.6 312.3 92 311.3 90.5C310.3 88.9 309.2 87.6 308.1 86.4C307 85.2 305.9 84.2 305 83.5C303.1 82 301.8 81.2 301.8 81.1C301.8 81.1 302.2 81.2 302.8 81.6C303.1 81.8 303.5 82 303.9 82.2C304.3 82.5 304.8 82.8 305.3 83.2C306.3 83.9 307.4 84.9 308.6 86.1C309.7 87.3 310.9 88.7 311.9 90.3C312.9 91.9 313.7 93.5 314.3 95C314.9 96.5 315.3 97.9 315.6 99.2C315.8 99.8 315.8 100.4 315.9 100.8C316 101.3 316 101.7 316 102.1C316 102.7 316 103.1 315.9 103.1Z" fill="#263238"/>
<path d="M81.8 421C80.9 417.6 83.2 414.2 85.7 411.8C88.2 409.4 91.2 407.2 92.5 403.9C94.6 398.6 91.8 391.8 95.5 387.4C97.6 384.8 101.4 384 103.3 381.2C104.3 379.8 104.6 378 105 376.3C107 367.6 111.4 359.4 117.6 353C118 360.8 116.2 368.6 112.6 375.5C111.1 378.3 109.3 380.9 108.8 384C108 389 110.8 394.2 109.5 399.1C108.1 404.7 101.7 408.5 101.4 414.3C101.1 419.2 105.4 423.5 105 428.4C104.9 430.5 103.9 432.4 102.8 434.2C99 440.5 93.4 444.8 84.9 444.6L74.6 444.9L81.8 421Z" fill="#544694"/>
<g opacity="0.3">
<g opacity="0.3">
<g opacity="0.3">
<g opacity="0.3">
<path opacity="0.3" d="M81.8 421C80.9 417.6 83.2 414.2 85.7 411.8C88.2 409.4 91.2 407.2 92.5 403.9C94.6 398.6 91.8 391.8 95.5 387.4C97.6 384.8 101.4 384 103.3 381.2C104.3 379.8 104.6 378 105 376.3C107 367.6 111.4 359.4 117.6 353C118 360.8 116.2 368.6 112.6 375.5C111.1 378.3 109.3 380.9 108.8 384C108 389 110.8 394.2 109.5 399.1C108.1 404.7 101.7 408.5 101.4 414.3C101.1 419.2 105.4 423.5 105 428.4C104.9 430.5 103.9 432.4 102.8 434.2C99 440.5 93.4 444.8 84.9 444.6L74.6 444.9L81.8 421Z" fill="black"/>
</g>
</g>
</g>
</g>
<path d="M72.6 445.1C72.6 445.1 71.6 445.3 69.8 445C68.9 444.9 67.7 444.6 66.4 444.1C65.1 443.6 63.7 442.9 62.3 441.8C61.6 441.2 61 440.5 60.6 439.5C60.2 438.5 60.2 437.5 60.1 436.4C60.1 435.3 60.1 434.2 59.9 433.1C59.7 432 59.3 430.8 58.7 429.8C57.5 427.7 55.5 425.6 54.8 422.7C54.1 419.8 54.6 416.7 55.1 413.6C55.6 410.5 56.1 407.1 54.9 403.9C53.8 400.7 51.6 397.7 50.4 394.1C49.3 390.4 49.8 386.5 49.6 382.6C49.5 380.6 49.1 378.7 48.3 376.9C47.5 375.1 46.3 373.3 45.4 371.4C43.6 367.5 43.3 363.1 42.8 358.8C42.6 356.6 42.3 354.4 42.1 352.2C41.9 350 41.7 347.7 41 345.6C40.4 343.4 39.5 341.3 38.6 339.2C38.2 338.1 37.7 337 37.4 335.9C37.2 334.7 37.2 333.5 37.1 332.3C37 329.9 37.1 327.5 37.4 325.1C37.7 322.7 38.1 320.4 38.4 318C38.4 317.9 38.4 317.7 38.4 317.6L38.5 317.1L38.9 317.3C41.1 318.4 43 320.1 44.4 322C45.9 323.9 46.9 326.1 47.8 328.3C49.5 332.8 50.1 337.4 50.9 341.9C51.7 346.3 52.8 350.7 55.1 354.4C56.2 356.2 57.6 357.9 58.8 359.7C60 361.5 61 363.5 61.3 365.6C61.9 370 59.5 373.8 59.9 377.7C60.1 379.6 60.8 381.4 61.8 383.1C62.7 384.8 63.8 386.3 64.9 387.8C65.9 389.3 66.9 390.9 67.6 392.6C68.3 394.3 68.7 396 68.8 397.8C69 401.3 68.5 404.6 68.8 407.7C69 410.8 70.1 413.7 71.3 416.2C72.5 418.8 73.9 421.1 75.1 423.3C75.7 424.4 76.2 425.5 76.6 426.6C77.1 427.7 77.3 428.8 77.5 429.9C77.8 432 77.8 434 77.5 435.8C77 439.3 75.7 441.9 74.5 443.3C74.2 443.7 73.9 443.9 73.7 444.2C73.5 444.5 73.2 444.6 73 444.8C72.8 445 72.6 445.1 72.6 445.1C72.6 445 73.5 444.6 74.6 443.1C75.7 441.7 77 439.1 77.4 435.6C77.6 433.9 77.6 431.9 77.3 429.8C77.1 428.8 76.9 427.7 76.4 426.6C76 425.5 75.4 424.4 74.8 423.3C73.6 421.1 72.2 418.8 71 416.2C69.7 413.6 68.6 410.7 68.4 407.5C68.1 404.3 68.6 401 68.4 397.6C68.3 395.9 67.9 394.2 67.2 392.6C66.5 391 65.5 389.4 64.5 387.9C63.5 386.4 62.4 384.8 61.4 383.1C60.4 381.4 59.6 379.5 59.5 377.5C59 373.4 61.4 369.5 60.8 365.5C60.5 363.5 59.5 361.6 58.4 359.9C57.2 358.1 55.9 356.4 54.7 354.5C52.4 350.7 51.3 346.2 50.4 341.8C49.5 337.3 49 332.7 47.3 328.4C46.5 326.2 45.4 324.1 44 322.2C42.6 320.3 40.8 318.7 38.7 317.7L39.2 317.4C39.2 317.5 39.2 317.7 39.2 317.8C38.9 320.2 38.5 322.6 38.2 324.9C37.9 327.3 37.8 329.6 37.9 331.9C38 333.1 38 334.3 38.2 335.4C38.4 336.5 38.9 337.6 39.3 338.6C40.2 340.7 41.1 342.9 41.8 345.1C42.5 347.3 42.7 349.6 42.9 351.8C43.1 354 43.4 356.2 43.6 358.4C44.1 362.7 44.4 367.1 46.1 370.9C47 372.8 48.1 374.5 49 376.4C49.9 378.3 50.3 380.4 50.4 382.4C50.6 386.4 50.1 390.3 51.1 393.8C52.2 397.3 54.4 400.3 55.5 403.6C56.7 407 56.2 410.5 55.7 413.6C55.2 416.7 54.7 419.7 55.3 422.5C55.9 425.3 57.8 427.3 59.1 429.5C59.7 430.6 60.2 431.8 60.4 433C60.6 434.2 60.6 435.3 60.6 436.4C60.6 437.5 60.7 438.5 61 439.4C61.3 440.3 61.9 441 62.6 441.6C63.9 442.7 65.4 443.4 66.6 443.9C67.9 444.4 69 444.7 69.9 444.8C70.8 445 71.5 445 72 445C72.3 445.1 72.6 445.1 72.6 445.1Z" fill="#263238"/>
<path d="M40.6 323.1C40.6 323.1 40.6 323.2 40.7 323.4C40.8 323.6 40.8 324 40.9 324.3C41.1 325.1 41.3 326.3 41.7 327.9C42.1 329.4 43 331.2 43.8 333.3C44.6 335.4 45.5 337.9 46.2 340.6C47 343.4 47.7 346.4 48.4 349.7C49.1 353 49.9 356.5 51.7 359.8C52.5 361.5 53.5 363.2 54.2 365.1C55 367 55.4 369 55.7 371C56.2 375.1 56.9 379.3 57.9 383.5C59.9 392 61.9 400.1 63.6 407.4C65.4 414.7 67 421.3 68.4 426.9C69.7 432.4 70.8 436.9 71.6 440.1C72 441.6 72.2 442.8 72.4 443.7C72.5 444.1 72.5 444.4 72.6 444.6C72.6 444.8 72.7 444.9 72.6 444.9C72.6 444.9 72.6 444.8 72.5 444.6C72.4 444.4 72.3 444.1 72.2 443.7C72 442.8 71.7 441.6 71.2 440.1C70.4 436.9 69.2 432.5 67.8 427C66.4 421.4 64.7 414.8 62.9 407.5C61.1 400.1 59.2 392.1 57.1 383.6C56.1 379.3 55.4 375.1 54.9 371C54.6 369 54.2 367 53.5 365.2C52.8 363.4 51.9 361.7 51 360C49.2 356.6 48.5 353 47.8 349.7C47.1 346.4 46.5 343.4 45.7 340.6C45 337.8 44.2 335.4 43.4 333.3C42.7 331.2 41.8 329.4 41.4 327.8C41.1 326.2 40.9 325 40.7 324.2C40.6 323.8 40.6 323.5 40.5 323.3C40.6 323.3 40.6 323.1 40.6 323.1Z" fill="#263238"/>
<path d="M70.7 445.1C64 441 62.1 428.9 65 421.5C67.9 414.2 72.8 407.5 73.6 399.7C74.2 393.7 72.3 387.5 73.7 381.6C75.6 373.7 83.4 367.6 83.4 359.4C83.4 354.8 80.8 350.5 81 345.9C81.3 340.3 85.6 335.9 88.3 331C92.4 323.5 92.7 314.5 94.2 306.1C95.6 297.6 98.9 288.6 106.5 284.5C107.6 291.7 109.4 296.6 108.8 306.4C108.6 309.9 104.5 316.6 103.9 324.2C103.5 328.8 103.3 333.4 103 338C102.7 342.5 102.4 347 100.8 351.2C99.6 354.4 97.6 357.3 96.6 360.6C94.9 366.8 97.1 373.5 95.6 379.8C94.4 385.1 90.7 389.7 89.9 395.1C88.8 402.7 93.7 410.6 91.1 417.9C89.8 421.5 86.9 424.4 86 428.1C85.3 431 86 434 85.4 436.9C84.4 441.6 75.5 445.1 70.8 444.8" fill="#544694"/>
<path d="M104.6 291.7C104.6 291.7 104.6 291.8 104.6 292.1C104.6 292.4 104.5 292.8 104.4 293.3C104.2 294.3 104.1 295.9 103.7 297.8C103.3 299.8 102.3 302 101.4 304.7C100.5 307.4 99.6 310.5 98.9 313.9C98.1 317.4 97.4 321.2 96.7 325.3C96 329.4 95.2 333.9 93.2 338.2C92.2 340.4 91.2 342.5 90.4 344.8C89.6 347.1 89.2 349.6 88.9 352.1C88.5 357.2 87.8 362.5 86.8 367.8C84.7 378.4 82.6 388.6 80.8 397.8C78.9 407 77.1 415.3 75.6 422.2C74.1 429.1 72.9 434.7 72.1 438.7C71.7 440.6 71.3 442.1 71.1 443.2C71 443.7 70.9 444.1 70.8 444.4C70.7 444.7 70.7 444.8 70.7 444.8C70.7 444.8 70.7 444.7 70.7 444.4C70.8 444.1 70.8 443.7 70.9 443.2C71.1 442.1 71.4 440.6 71.8 438.7C72.6 434.8 73.7 429.1 75.1 422.2C76.5 415.2 78.2 406.9 80.1 397.7C81.9 388.5 83.9 378.3 86 367.7C87 362.4 87.7 357.1 88.1 352C88.4 349.5 88.8 346.9 89.6 344.6C90.4 342.3 91.5 340.1 92.5 338C94.6 333.8 95.3 329.4 96.1 325.3C96.8 321.2 97.5 317.3 98.3 313.9C99.1 310.4 100 307.3 100.9 304.7C101.8 302 102.8 299.8 103.3 297.9C103.7 296 103.9 294.4 104.1 293.4C104.2 292.9 104.3 292.5 104.3 292.2C104.5 291.9 104.6 291.7 104.6 291.7Z" fill="#263238"/>
<path d="M409.5 287.8H402.5V310.3H409.5V287.8Z" fill="#544694"/>
<path d="M422.3 278.5H415.3V310.3H422.3V278.5Z" fill="#544694"/>
<path d="M436 274.2H429V310.3H436V274.2Z" fill="#544694"/>
<path d="M449.6 269.6H442.6V310.3H449.6V269.6Z" fill="#544694"/>
<path d="M167.5 317C167.5 317 168.1 317 169 317.5C169.9 317.9 171.2 318.8 172 320.5C172.4 321.3 172.6 322.3 172.6 323.4C172.6 324.5 172.3 325.6 171.6 326.7C171.3 327.2 170.9 327.7 170.4 328.1C169.9 328.5 169.4 328.9 168.8 329.1C167.6 329.7 166.1 329.8 164.8 329.5C163.4 329.2 162.2 328.4 161.3 327.4C160.9 326.9 160.5 326.3 160.3 325.8C160 325.2 159.9 324.6 159.8 324C159.6 322.8 159.9 321.6 160.3 320.6C160.7 319.6 161.4 318.8 162.1 318.2C163.5 317 165.1 316.7 166.1 316.7C167 316.8 167.5 317 167.5 317C167.5 317 166.9 316.9 165.9 316.9C164.9 316.9 163.4 317.3 162.1 318.4C161.4 319 160.8 319.7 160.4 320.7C160 321.7 159.8 322.8 160 323.9C160.1 324.5 160.2 325.1 160.5 325.6C160.7 326.2 161.1 326.7 161.5 327.2C162.3 328.2 163.5 328.9 164.8 329.2C166.1 329.5 167.5 329.3 168.6 328.8C169.2 328.6 169.7 328.2 170.2 327.8C170.7 327.4 171.1 327 171.4 326.5C172 325.5 172.3 324.4 172.4 323.4C172.5 322.4 172.2 321.4 171.9 320.6C171.2 319 170 318 169.1 317.6C168.1 317.1 167.5 317 167.5 317Z" fill="#263238"/>
<path d="M172.6 310.2C172.6 310.2 172.6 310.1 172.6 310C172.6 309.8 172.6 309.6 172.6 309.3C172.6 308.7 172.6 307.8 172.6 306.6V306.7C171.1 306.4 169.2 306 166.8 305.4L166.9 305.3C166.4 306.3 165.9 307.4 165.4 308.5V308.6H165.3C164.1 308.7 162.8 308.9 161.5 309.3H161.4L161.3 309.2C160.5 308.4 159.7 307.6 158.8 306.7H159C157.4 307.7 155.8 308.8 154 309.9L154.1 309.7C154.5 310.7 154.9 311.9 155.3 313.1V313.2L155.2 313.3C154.4 314.2 153.6 315.2 153 316.4V316.5H152.9C151.8 316.5 150.6 316.5 149.3 316.5L149.5 316.4C149.1 318.2 148.7 320.2 148.2 322.2L148.1 322C149.1 322.5 150.2 323 151.3 323.5H151.4V323.6C151.4 324.8 151.7 326.1 152.1 327.3V327.4L152 327.5C151.2 328.3 150.4 329.2 149.5 330V329.8C150.5 331.4 151.6 333.1 152.7 334.8L152.5 334.7C153.6 334.3 154.7 333.9 155.9 333.5H156L156.1 333.6C157 334.4 158 335.2 159.2 335.8C159.2 335.9 159.1 335.6 159.3 336V336.1V336.2V336.4V336.8V337.7C159.3 338.3 159.3 338.9 159.3 339.5L159.2 339.3C161.1 339.7 163.1 340.2 165 340.6L164.8 340.7C165.3 339.6 165.8 338.5 166.3 337.5V337.4H166.4C167.7 337.4 168.9 337.1 170.1 336.8H170.2L170.3 336.9C171.2 337.8 172 338.6 172.8 339.4H172.6C174.3 338.3 176 337.3 177.6 336.2L177.5 336.4C177.1 335.3 176.7 334.1 176.3 333V332.9L176.4 332.8C177.3 331.8 178 330.8 178.6 329.7V329.6H178.7C179.9 329.6 181.1 329.6 182.3 329.6L182.2 329.7C182.7 327.7 183.1 325.8 183.5 323.9L183.6 324.1C182.5 323.6 181.4 323.1 180.4 322.6H180.3V322.5C180.2 321.1 180 319.9 179.7 318.7V318.6L179.8 318.5C180.7 317.6 181.5 316.8 182.3 316V316.1C181.1 314.2 180 312.5 179.2 311.1H179.3C178 311.6 176.8 312 175.9 312.3C175 311.4 174.1 310.9 173.6 310.5C173.3 310.3 173.1 310.2 173 310.1C172.7 310.2 172.6 310.2 172.6 310.2C172.6 310.2 172.7 310.2 172.8 310.3C172.9 310.4 173.2 310.5 173.4 310.6C174 310.9 174.8 311.5 175.7 312.3H175.6C176.5 312 177.6 311.6 179 311.1H179.1V311.2C180 312.6 181.1 314.2 182.3 316.2V316.3L182.2 316.4C181.4 317.2 180.6 318 179.7 318.9V318.8C180.1 320 180.3 321.2 180.4 322.6L180.3 322.5C181.3 323 182.4 323.5 183.5 324H183.6V324.1C183.2 325.9 182.8 327.8 182.3 329.9V330H182.2C181 330 179.9 330 178.6 330L178.7 329.9C178.1 331 177.4 332.1 176.5 333.1V332.9C176.9 334 177.3 335.1 177.7 336.3V336.4L177.6 336.5C176 337.5 174.3 338.6 172.6 339.7L172.5 339.8L172.4 339.7C171.6 338.9 170.7 338 169.9 337.2H170.1C168.9 337.6 167.6 337.8 166.3 337.9L166.5 337.8C166 338.9 165.5 339.9 165 341L164.9 341.1H164.8C162.9 340.7 161 340.2 159 339.8H158.9V339.7C158.9 339.1 158.9 338.5 158.9 337.9V337V336.6V336.4V336.3V336.2C159.1 336.5 159 336.3 159 336.4C157.8 335.8 156.7 335 155.8 334.2H156C154.8 334.6 153.7 335 152.6 335.4H152.5L152.4 335.3C151.3 333.6 150.2 331.9 149.2 330.3L149.1 330.2L149.2 330.1C150.1 329.2 150.9 328.4 151.7 327.6V327.8C151.3 326.5 151.1 325.2 151 324L151.1 324.1C150 323.6 148.9 323 147.9 322.6L147.8 322.5V322.4C148.3 320.4 148.7 318.4 149.1 316.6V316.5H149.2C150.4 316.5 151.7 316.5 152.8 316.5L152.7 316.6C153.3 315.4 154.1 314.3 154.9 313.4V313.6C154.5 312.4 154.1 311.3 153.7 310.2V310.1L153.8 310C155.6 308.9 157.2 307.8 158.8 306.9L158.9 306.8L159 306.9C159.9 307.8 160.7 308.6 161.5 309.4H161.4C162.7 309 164 308.8 165.2 308.7L165.1 308.8C165.7 307.6 166.2 306.6 166.6 305.6V305.5H166.7C169 306 171 306.5 172.5 306.8C172.5 307.9 172.5 308.8 172.5 309.4C172.5 309.7 172.5 309.9 172.5 310.1C172.6 310.1 172.6 310.2 172.6 310.2Z" fill="#263238"/>
<path fill-rule="evenodd" clip-rule="evenodd" d="M161.7 265.3C163 266 164.1 266.8 165.2 267.8L168.9 266.5L172.4 272L169.6 274.8C170 276.1 170.3 277.6 170.3 279L173.9 280.7L172.5 287.1H168.6C167.9 288.4 167.1 289.5 166.1 290.6L167.4 294.3L161.9 297.8L159.1 295C157.8 295.4 156.3 295.7 154.9 295.7L153.2 299.3L146.8 297.9V294C145.5 293.3 144.4 292.5 143.3 291.5L139.6 292.8L136.1 287.3L138.9 284.5C138.5 283.2 138.2 281.7 138.2 280.3L134.6 278.6L136 272.2H139.9C140.6 270.9 141.4 269.8 142.4 268.7L141.1 265L146.6 261.5L149.4 264.3C150.7 263.9 152.2 263.6 153.6 263.6L155.3 260L161.7 261.4V265.3ZM156.1 272.8C152.3 272 148.6 274.3 147.7 278.1C146.9 281.9 149.2 285.6 153 286.5C156.8 287.3 160.5 285 161.4 281.2C162.2 277.4 159.9 273.7 156.1 272.8Z" fill="#544694"/>
<g opacity="0.8">
<g opacity="0.8">
<g opacity="0.8">
<path opacity="0.8" fill-rule="evenodd" clip-rule="evenodd" d="M161.7 265.3C163 266 164.1 266.8 165.2 267.8L168.9 266.5L172.4 272L169.6 274.8C170 276.1 170.3 277.6 170.3 279L173.9 280.7L172.5 287.1H168.6C167.9 288.4 167.1 289.5 166.1 290.6L167.4 294.3L161.9 297.8L159.1 295C157.8 295.4 156.3 295.7 154.9 295.7L153.2 299.3L146.8 297.9V294C145.5 293.3 144.4 292.5 143.3 291.5L139.6 292.8L136.1 287.3L138.9 284.5C138.5 283.2 138.2 281.7 138.2 280.3L134.6 278.6L136 272.2H139.9C140.6 270.9 141.4 269.8 142.4 268.7L141.1 265L146.6 261.5L149.4 264.3C150.7 263.9 152.2 263.6 153.6 263.6L155.3 260L161.7 261.4V265.3ZM156.1 272.8C152.3 272 148.6 274.3 147.7 278.1C146.9 281.9 149.2 285.6 153 286.5C156.8 287.3 160.5 285 161.4 281.2C162.2 277.4 159.9 273.7 156.1 272.8Z" fill="white"/>
</g>
</g>
</g>
<path fill-rule="evenodd" clip-rule="evenodd" d="M138.7 302.9C139.4 303.3 140.1 303.8 140.7 304.3L142.9 303.5L144.9 306.7L143.3 308.3C143.5 309.1 143.7 309.9 143.7 310.7L145.8 311.7L145 315.4H142.7C142.3 316.1 141.8 316.8 141.3 317.4L142.1 319.6L138.9 321.6L137.3 320C136.5 320.2 135.7 320.4 134.9 320.4L133.9 322.5L130.2 321.7V319.4C129.5 319 128.8 318.5 128.2 318L126 318.8L124 315.6L125.6 314C125.4 313.2 125.2 312.4 125.2 311.6L123.1 310.6L123.9 306.9H126.2C126.6 306.2 127.1 305.5 127.6 304.9L126.8 302.7L130 300.7L131.6 302.3C132.4 302.1 133.2 301.9 134 301.9L135 299.8L138.7 300.6V302.9ZM135.4 307.2C133.2 306.7 131 308.1 130.5 310.3C130 312.5 131.4 314.7 133.6 315.2C135.8 315.7 138 314.3 138.5 312.1C139 309.9 137.6 307.7 135.4 307.2Z" fill="#544694"/>
<g opacity="0.4">
<g opacity="0.4">
<g opacity="0.4">
<path opacity="0.4" fill-rule="evenodd" clip-rule="evenodd" d="M138.7 302.9C139.4 303.3 140.1 303.8 140.7 304.3L142.9 303.5L144.9 306.7L143.3 308.3C143.5 309.1 143.7 309.9 143.7 310.7L145.8 311.7L145 315.4H142.7C142.3 316.1 141.8 316.8 141.3 317.4L142.1 319.6L138.9 321.6L137.3 320C136.5 320.2 135.7 320.4 134.9 320.4L133.9 322.5L130.2 321.7V319.4C129.5 319 128.8 318.5 128.2 318L126 318.8L124 315.6L125.6 314C125.4 313.2 125.2 312.4 125.2 311.6L123.1 310.6L123.9 306.9H126.2C126.6 306.2 127.1 305.5 127.6 304.9L126.8 302.7L130 300.7L131.6 302.3C132.4 302.1 133.2 301.9 134 301.9L135 299.8L138.7 300.6V302.9ZM135.4 307.2C133.2 306.7 131 308.1 130.5 310.3C130 312.5 131.4 314.7 133.6 315.2C135.8 315.7 138 314.3 138.5 312.1C139 309.9 137.6 307.7 135.4 307.2Z" fill="white"/>
</g>
</g>
</g>
<path d="M359.5 266.1C363.7 265 366.8 260.7 366.6 256.4C366.5 254.4 365.7 252.5 365.8 250.6C365.9 247.6 367.9 245 369.5 242.4C371 239.8 372 236.3 370.3 233.8C369.2 232.2 367.1 231.5 365.7 230.1C364.3 228.7 363.7 226.8 363 225C362.3 223.2 361.3 221.4 359.6 220.4C357.9 219.4 355.3 219.9 354.7 221.7" fill="#4D1E0F"/>
<path d="M341.4 216.7C344.4 214.8 345.1 210.4 343.5 207.2C341.9 204 338.4 202.1 334.9 201.6C329.8 200.8 324.4 202.6 320.8 206.3C318.9 208.3 317.3 210.9 314.7 211.8C312.4 212.6 309.8 211.9 307.4 212.2C304.2 212.6 301.4 214.9 299.7 217.7C298 220.5 297.4 223.8 297 227C296.6 230 296.4 233.3 294.3 235.4C292.3 237.5 289.1 238 286.6 239.5C281.9 242.3 280.4 249.4 283.5 253.9C284.5 255.3 285.9 256.7 286 258.4C286.1 260 285.1 261.4 284.6 263C283.4 266.9 286.6 271.6 290.7 271.8C292.8 271.9 295 271.1 296.9 272C298.8 272.9 299.4 275.2 300.6 276.9C302.9 280.2 307.8 281.5 311.5 279.7C313 278.9 314.5 277.7 316.2 277.8C317.9 277.9 319.2 279.4 320.9 279.7C323.1 280.1 325.2 278.5 326.5 276.7C327.8 274.9 328.7 272.8 330.4 271.3C332.6 269.4 335.6 268.9 338.4 267.9C344.5 265.8 349.6 261 352 255C354.4 249 354.1 242 351.2 236.3" fill="#4D1E0F"/>
<path d="M347.9 220.7C350.4 221 352.2 223.1 352.2 225.6L349.3 290.3C349.2 297.9 338 302.2 329.8 302C321.5 301.8 321.3 297.8 321.2 290.5C321 278.4 321 273.8 321 273.9C321 273.9 310.6 272.1 308.4 258.5C307.3 251.7 307.7 240.6 308.3 231.6C308.8 223.4 314.3 213.4 322.4 214.3L347.9 220.7Z" fill="#FFBE9D"/>
<path d="M311.4 240.3C311.4 241.2 312.1 242 313.1 242.1C314.1 242.2 314.9 241.5 314.9 240.5C314.9 239.6 314.2 238.8 313.2 238.7C312.3 238.7 311.5 239.4 311.4 240.3Z" fill="#4D1E0F"/>
<path d="M310.8 237.3C311 237.5 312.3 236.6 314.2 236.6C316.1 236.6 317.5 237.6 317.7 237.3C317.8 237.2 317.6 236.8 317 236.3C316.4 235.9 315.4 235.4 314.2 235.4C313 235.4 312 235.8 311.5 236.3C310.9 236.8 310.7 237.2 310.8 237.3Z" fill="#4D1E0F"/>
<path d="M330.2 240.3C330.2 241.2 330.9 242 331.9 242.1C332.9 242.2 333.7 241.5 333.7 240.5C333.7 239.6 333 238.8 332 238.7C331 238.7 330.2 239.4 330.2 240.3Z" fill="#4D1E0F"/>
<path d="M329.3 237.7C329.5 237.9 330.8 237 332.7 237C334.6 237 336 238 336.2 237.7C336.3 237.6 336.1 237.2 335.5 236.7C334.9 236.3 333.9 235.8 332.7 235.8C331.5 235.8 330.5 236.2 330 236.7C329.4 237.1 329.2 237.6 329.3 237.7Z" fill="#4D1E0F"/>
<path d="M322.5 251.6C322.5 251.5 321.3 251.3 319.4 251C318.9 250.9 318.5 250.9 318.4 250.5C318.3 250.2 318.5 249.6 318.7 249.1C319.2 247.9 319.6 246.7 320.1 245.4C322.1 240.2 323.5 235.9 323.3 235.9C323.1 235.8 321.3 240 319.3 245.2C318.8 246.5 318.4 247.7 317.9 248.9C317.7 249.4 317.4 250.1 317.6 250.8C317.7 251.2 318.1 251.4 318.4 251.5C318.7 251.6 319 251.6 319.2 251.6C321.3 251.7 322.5 251.7 322.5 251.6Z" fill="#4D1E0F"/>
<path d="M321.1 273.8C321.1 273.8 330.3 274.4 339.3 269C339.3 269 334.7 278.6 321.1 277.3V273.8Z" fill="#EB996E"/>
<path d="M323.2 256.1C323.9 255.2 325.1 254.7 326.2 254.8C327 254.9 327.8 255.3 328.3 255.9C328.8 256.6 328.9 257.5 328.4 258.1C327.9 258.8 326.8 259 325.9 258.7C325 258.4 324.2 257.9 323.5 257.3C323.3 257.1 323.1 257 323 256.7C323 256.6 323 256.4 323.2 256.1Z" fill="#E23460"/>
<path d="M328 252.9C327.7 252.9 327.7 254.9 325.9 256.4C324.2 257.8 322 257.6 322 257.9C322 258 322.5 258.3 323.4 258.3C324.3 258.3 325.6 258 326.7 257.2C327.8 256.3 328.2 255.1 328.3 254.3C328.4 253.4 328.1 252.9 328 252.9Z" fill="#4D1E0F"/>
<path d="M328.5 234.4C328.7 234.9 330.6 234.7 332.8 234.9C335 235.1 336.8 235.8 337.1 235.3C337.2 235.1 336.9 234.6 336.2 234.1C335.5 233.6 334.4 233.1 333 233C331.7 232.9 330.5 233.1 329.7 233.4C328.8 233.7 328.4 234.1 328.5 234.4Z" fill="#4D1E0F"/>
<path d="M311.5 231.8C311.8 232.2 313.1 231.8 314.7 231.8C316.3 231.7 317.6 232.1 317.9 231.6C318 231.4 317.8 231 317.3 230.6C316.7 230.2 315.8 229.9 314.7 229.9C313.6 229.9 312.7 230.3 312.2 230.8C311.6 231.2 311.4 231.6 311.5 231.8Z" fill="#4D1E0F"/>
<path d="M339 216.2C342.1 214.1 346.2 213.1 349.8 214.2C353.4 215.2 356.4 218.5 356.6 222.2C356.7 224.6 355.6 227.2 356.7 229.3C357.7 231.4 360.2 232.2 362 233.7C364.8 236 365.6 240.3 363.9 243.5C362.4 246.2 359.3 248.2 359 251.3C358.8 254.2 361.2 256.6 361.8 259.5C362.5 262.6 360.7 265.9 358.2 268C355.7 270.1 352.6 271.2 349.5 272.3C347.1 273.2 344.5 274 342 273.5C339 272.8 336.8 270.1 336.4 267.1C336 264.1 337.2 261.1 339.2 258.9C340.9 257 343.4 255.3 343.8 252.8C344.5 248.8 339.7 245.6 340 241.6C340.1 239.5 341.6 237.8 342.8 236.1C344 234.4 345.1 232.3 344.3 230.3C343.3 227.8 340 227.1 338 225.3C336.3 223.8 335.7 221.3 336.3 219.1C337 217 339 215.3 341.2 214.9" fill="#4D1E0F"/>
<path d="M340.5 213.2C340.5 215.9 339.3 218.6 337.2 220.4C335.1 222.1 332.2 222.9 329.5 222.4C327.4 222 325.1 221 323.3 222.1C321.4 223.3 321.3 226.1 319.6 227.6C317.2 229.7 313.4 227.7 310.3 228.6C307.9 229.3 306.5 231.5 304.9 233.4C303.3 235.3 301 237.1 298.6 236.4C298.7 234.3 298.9 232.1 299.5 230.1C300.1 228.1 301.3 226.1 303.1 225C304.1 224.4 305.2 224 306.1 223.2C308.1 221.6 308.5 218.9 309.7 216.7C311.3 213.9 314.3 211.9 317.5 211.5C320.2 211.2 322.9 212 325.5 211.4C327.4 210.9 329.1 209.7 331.1 209.3C334.9 208.6 338.4 211.3 341.2 214" fill="#4D1E0F"/>
<path d="M365.3 245.7C365.2 245.7 365.7 245.2 365.6 244.1C365.5 243.1 364.7 241.6 362.9 241C362 240.6 361 240.4 359.9 240.2C358.8 239.9 357.6 239.6 356.5 238.8C355.4 238 354.8 236.6 354.7 235.2C354.6 233.8 354.8 232.4 354.9 230.9C354.9 230.2 354.9 229.5 354.8 228.8C354.7 228.1 354.4 227.5 354 227C353.2 226 351.9 225.5 350.7 225.1C349.5 224.7 348.3 224.3 347.4 223.7C346.4 223.1 345.6 222.4 344.9 221.7C343.6 220.3 342.9 218.8 342.5 217.8C342.3 217.3 342.2 216.9 342.2 216.6C342.1 216.3 342.1 216.2 342.1 216.2C342.1 216.2 342.3 216.8 342.7 217.7C343.1 218.7 343.9 220 345.2 221.4C346.5 222.8 348.4 224 350.9 224.6C352.1 225 353.5 225.5 354.4 226.6C354.8 227.2 355.2 227.9 355.3 228.6C355.4 229.3 355.4 230.1 355.4 230.8C355.3 232.3 355.1 233.7 355.2 235C355.3 236.3 355.8 237.6 356.8 238.3C357.8 239 358.9 239.4 360 239.7C361.1 240 362.1 240.2 363 240.6C363.9 241 364.7 241.5 365.1 242.2C365.6 242.8 365.8 243.5 365.8 244.1C365.8 244.7 365.7 245.1 365.6 245.3C365.5 245.6 365.3 245.7 365.3 245.7Z" fill="#455A64"/>
<path d="M285.1 254.2C285.1 254.2 285 254.2 284.9 254.1C284.8 254 284.6 253.9 284.4 253.6C284.1 253 284 252 284.7 250.9C285 250.4 285.5 249.8 286.2 249.5C286.8 249.1 287.6 248.9 288.4 248.6C289.2 248.3 290 247.9 290.7 247.3C291.4 246.7 291.8 245.7 292 244.7C292.2 243.7 292.3 242.6 292.5 241.4C292.7 240.2 293 239 293.9 238C295.5 235.9 298.1 234.8 300 232.8C301 231.8 301.7 230.6 302.1 229.2C302.6 227.8 302.8 226.4 303.1 224.8C303.5 221.8 303.9 218.5 306 215.7C307 214.3 308.5 213.3 310.1 213C311.7 212.7 313.3 212.9 314.8 213.1C316.3 213.3 317.8 213.5 319.2 213.4C320.6 213.2 321.9 212.5 322.8 211.5C324.7 209.5 325.7 206.8 328 205.4C330.2 204 332.8 203.9 334.9 204.5C337 205.1 338.6 206.5 339.4 208C340.3 209.5 340.6 211 340.6 212.2C340.6 213.4 340.4 214.3 340.2 214.9C340 215.5 339.8 215.8 339.8 215.8C339.8 215.8 339.9 215.5 340.1 214.9C340.3 214.3 340.5 213.4 340.4 212.2C340.3 211 340 209.6 339.2 208.1C338.4 206.7 336.9 205.3 334.8 204.8C332.8 204.3 330.3 204.4 328.3 205.8C327.3 206.5 326.4 207.4 325.7 208.5C324.9 209.6 324.2 210.8 323.2 211.8C322.7 212.3 322.1 212.8 321.5 213.2C320.8 213.5 320.1 213.8 319.3 213.9C317.8 214.1 316.3 213.9 314.7 213.7C313.2 213.5 311.6 213.3 310.1 213.6C308.6 213.9 307.2 214.8 306.3 216.1C305.4 217.4 304.8 218.9 304.4 220.4C304 221.9 303.8 223.5 303.6 225C303.4 226.5 303.1 228 302.6 229.4C302.1 230.8 301.4 232.1 300.3 233.2C298.2 235.2 295.7 236.3 294.2 238.3C293.4 239.3 293.1 240.4 292.9 241.5C292.7 242.6 292.6 243.8 292.4 244.8C292.2 245.9 291.7 246.9 291 247.5C290.3 248.2 289.4 248.5 288.6 248.8C287.8 249.1 287.1 249.3 286.4 249.7C285.8 250 285.3 250.5 285 251C284.4 252 284.4 253 284.6 253.5C284.8 254.1 285.2 254.2 285.1 254.2Z" fill="#455A64"/>
<path d="M251.7 348L275.9 345.8C275.9 345.8 290.8 306.7 309.1 297.2L321 317.9L295.6 365.6H246L251.7 348Z" fill="#544694"/>
<path opacity="0.3" d="M251.7 348L275.9 345.8C275.9 345.8 290.8 306.7 309.1 297.2L321 317.9L295.6 365.6H246L251.7 348Z" fill="black"/>
<path d="M261.3 359C261.2 358.9 262.1 357.2 263.3 355.1C264.5 353 265.7 351.4 265.8 351.5C265.9 351.6 265 353.3 263.8 355.4C262.5 357.4 261.4 359.1 261.3 359Z" fill="#FAFAFA"/>
<path d="M278.4 358.5C278.3 358.6 277 357.1 275.4 355.2C273.9 353.3 272.7 351.7 272.9 351.6C273 351.5 274.3 353 275.9 354.9C277.4 356.8 278.5 358.4 278.4 358.5Z" fill="#FAFAFA"/>
<path d="M281.4 349.6C281.3 349.6 281.1 348.2 281.1 346.4C281.1 344.7 281.2 343.2 281.4 343.2C281.6 343.2 281.7 344.6 281.7 346.4C281.6 348.1 281.5 349.6 281.4 349.6Z" fill="#FAFAFA"/>
<path d="M272.9 363.6C272.8 363.7 271.8 363.2 270.6 362.4C269.4 361.6 268.5 360.9 268.6 360.8C268.7 360.7 269.7 361.2 270.9 362C272 362.7 272.9 363.4 272.9 363.6Z" fill="#FAFAFA"/>
<path d="M286.7 327.6C286.8 327.7 286.1 329.6 285 332C283.9 334.4 283 336.2 282.9 336.1C282.8 336 283.5 334.1 284.6 331.7C285.6 329.4 286.6 327.5 286.7 327.6Z" fill="#FAFAFA"/>
<path d="M296.5 311.7C296.6 311.8 295.7 312.6 294.6 313.5C293.4 314.4 292.4 315 292.4 314.9C292.3 314.8 293.2 314 294.3 313.1C295.4 312.2 296.4 311.6 296.5 311.7Z" fill="#FAFAFA"/>
<path d="M332.6 362.5L345.1 312.2C347.3 303.4 355.9 297.9 364.7 299.5C373.8 301.1 380 309.8 378.6 319L371 368.2C369.1 378.5 360.9 386.5 350.6 388.1L340.7 389.6L332.6 362.5Z" fill="#544694"/>
<path d="M371.9 296.2C371.8 296.3 370.5 294.7 367.5 294C366 293.7 364.1 293.6 362.1 294C360.1 294.5 358.1 295.5 356.3 297C352.6 300.1 350.7 304 349.3 306.8C348.6 308.2 348.1 309.4 347.8 310.2C347.4 311 347.2 311.4 347.2 311.4C347.2 311.4 347.3 310.9 347.6 310.1C347.9 309.3 348.4 308.1 349 306.6C349.6 305.2 350.4 303.5 351.6 301.7C352.7 299.9 354.2 298.1 356 296.5C357.9 294.9 360 293.9 362.1 293.4C364.2 292.9 366.1 293.1 367.7 293.5C369.2 293.9 370.4 294.6 371.1 295.1C371.4 295.4 371.7 295.6 371.9 295.8C371.8 296.1 371.9 296.2 371.9 296.2Z" fill="#263238"/>
<path d="M301.3 307.5C301.3 307.5 301.2 307.7 301 308C300.7 308.3 300.4 308.8 299.9 309.3C299 310.4 297.7 312 296.2 314.1C293.2 318.3 289.5 324.5 287.7 332.2C286 339.9 285.9 347.1 285.6 352.2C285.5 354.8 285.4 356.9 285.2 358.3C285.1 359 285.1 359.5 285.1 360C285.1 360.4 285 360.6 285 360.6C285 360.6 285 360.4 285 360C285 359.6 285 359 285 358.3C285 356.8 285.1 354.7 285.2 352.2C285.4 347.1 285.4 339.8 287.2 332.1C289 324.3 292.8 318.1 295.9 313.9C297.4 311.8 298.8 310.2 299.8 309.2C300.3 308.7 300.7 308.3 300.9 308C301.2 307.6 301.3 307.5 301.3 307.5Z" fill="#263238"/>
<path d="M381.2 307.4C379.8 298.4 374.9 296.2 369.7 293.4C368 292.5 359.9 290.4 353.5 288.8C352.9 284.9 351.8 277.9 351.5 276.5C351.2 274.4 318.7 279.6 318.3 280.4C318 280.9 317.3 289 316.8 294.4L309 297.1L298.9 310L293.6 317.5C290.5 321.8 288.2 326.7 287.1 331.9C285.8 337.6 285.6 343.2 285.6 349.3L284 382.3L351.8 401.5L357.1 368L374.6 344.2C376.2 334.6 382.8 318.5 381.2 307.4Z" fill="#544694"/>
<path d="M323.3 295.4C323.2 295.4 323.1 294.5 322.8 293.1C322.6 291.7 322.3 289.7 322.1 287.5C322 286.4 321.9 285.4 321.8 284.4C321.7 283.5 321.6 282.6 321.6 281.9C321.6 281.2 321.8 280.6 322.1 280.2C322.4 279.9 322.6 279.8 322.6 279.8C322.6 279.8 322.5 280 322.3 280.3C322.1 280.6 322 281.2 322 281.9C322 282.6 322.2 283.4 322.3 284.4C322.4 285.4 322.5 286.4 322.7 287.5C323 289.7 323.2 291.7 323.3 293.1C323.4 294.5 323.3 295.4 323.3 295.4Z" fill="#263238"/>
<path d="M331.9 293.4C331.8 293.4 331.5 292.6 331.2 291.3C330.8 290 330.5 288.1 330.3 286C330.1 283.9 330.1 282 330.2 280.6C330.3 279.2 330.5 278.4 330.5 278.4C330.7 278.4 330.4 281.8 330.8 285.9C331.2 290.1 332.1 293.3 331.9 293.4Z" fill="#263238"/>
<path d="M348 291C347.8 291 348.5 287.6 347.8 283.5C347.1 279.4 345.3 276.5 345.5 276.4C345.6 276.4 346.1 277 346.7 278.3C347.3 279.5 348 281.3 348.4 283.4C348.8 285.5 348.7 287.4 348.6 288.8C348.3 290.2 348.1 291.1 348 291Z" fill="#263238"/>
<path d="M301.9 320.5C301.8 320.4 302.9 318.5 304.6 316.3C306.2 314.1 307.8 312.5 307.9 312.6C308 312.7 306.7 314.5 305 316.6C303.4 318.7 302.1 320.5 301.9 320.5Z" fill="#FAFAFA"/>
<path d="M317.2 308C317.1 308.1 315.9 306.7 314.5 304.9C313.1 303.1 312.1 301.6 312.2 301.5C312.3 301.4 313.5 302.8 314.9 304.6C316.3 306.4 317.3 307.9 317.2 308Z" fill="#FAFAFA"/>
<path d="M333.2 300.2C333.3 300.3 331.8 301.7 330 303.4C328.2 305.1 326.8 306.6 326.7 306.5C326.6 306.4 327.8 304.8 329.6 303C331.4 301.3 333.1 300.1 333.2 300.2Z" fill="#FAFAFA"/>
<path d="M328.7 290.7C328.6 290.8 327.5 290 326.2 288.8C324.9 287.6 324 286.6 324.1 286.5C324.2 286.4 325.3 287.2 326.6 288.4C327.8 289.6 328.8 290.6 328.7 290.7Z" fill="#FAFAFA"/>
<path d="M342.7 283.2C342.7 283.3 341.2 283.8 339.3 284.2C337.4 284.6 335.9 284.8 335.8 284.7C335.8 284.6 337.3 284.1 339.2 283.7C341.1 283.3 342.7 283.1 342.7 283.2Z" fill="#FAFAFA"/>
<path d="M345.5 305.4C345.4 305.4 345.2 303.8 345.1 301.9C345 300 345 298.4 345.2 298.4C345.3 298.4 345.5 300 345.6 301.9C345.7 303.8 345.6 305.4 345.5 305.4Z" fill="#FAFAFA"/>
<path d="M340.4 316C340.3 316 339.5 314.2 338.6 312C337.8 309.7 337.2 307.8 337.3 307.8C337.4 307.8 338.2 309.6 339.1 311.8C340 314.1 340.5 316 340.4 316Z" fill="#FAFAFA"/>
<path d="M326.5 323.5C326.4 323.6 325.5 321.7 324.6 319.3C323.7 316.9 323 314.9 323.2 314.9C323.3 314.8 324.2 316.7 325.1 319.1C326 321.5 326.7 323.5 326.5 323.5Z" fill="#FAFAFA"/>
<path d="M313.5 332.1C313.4 332.1 312.9 330.3 312.4 327.9C311.9 325.6 311.6 323.6 311.8 323.6C311.9 323.6 312.4 325.4 312.9 327.8C313.4 330.1 313.6 332 313.5 332.1Z" fill="#FAFAFA"/>
<path d="M298 332.4C297.9 332.5 296.9 330.8 295.9 328.7C294.9 326.6 294.1 324.8 294.3 324.8C294.4 324.7 295.4 326.4 296.4 328.5C297.4 330.6 298.1 332.3 298 332.4Z" fill="#FAFAFA"/>
<path d="M297.7 342.3C297.8 342.4 295.9 343.5 293.6 344.6C291.3 345.7 289.4 346.6 289.3 346.4C289.2 346.3 291.1 345.2 293.4 344.1C295.7 343 297.6 342.2 297.7 342.3Z" fill="#FAFAFA"/>
<path d="M297.9 358.1C297.8 358.2 297 356.5 296.5 354.5C295.9 352.4 295.8 350.7 295.9 350.6C296 350.6 296.4 352.3 297 354.3C297.5 356.3 298 358 297.9 358.1Z" fill="#FAFAFA"/>
<path d="M294.7 369.1C294.6 369.2 293.1 368 291.4 366.5C289.7 364.9 288.4 363.6 288.5 363.5C288.6 363.4 290.1 364.6 291.8 366.1C293.4 367.6 294.8 369 294.7 369.1Z" fill="#FAFAFA"/>
<path d="M315.1 361.6C315.1 361.7 312.8 362.4 310.2 363.6C307.5 364.8 305.5 366 305.4 365.9C305.3 365.8 307.3 364.3 310 363.1C312.7 361.9 315 361.4 315.1 361.6Z" fill="#FAFAFA"/>
<path d="M309.1 356.1C309 356.1 308.3 354.6 307.6 352.7C306.9 350.8 306.5 349.2 306.6 349.1C306.7 349 307.4 350.6 308.1 352.5C308.8 354.4 309.2 356 309.1 356.1Z" fill="#FAFAFA"/>
<path d="M321.2 342.6C321.3 342.7 320.1 344.8 318.5 347.4C316.9 350 315.4 352 315.3 352C315.2 351.9 316.4 349.8 318 347.2C319.7 344.5 321.1 342.5 321.2 342.6Z" fill="#FAFAFA"/>
<path d="M334.2 343.9C334.1 344 332.5 342 330.9 339.4C329.3 336.7 328.3 334.4 328.5 334.3C328.6 334.2 329.8 336.5 331.4 339.1C332.9 341.7 334.3 343.8 334.2 343.9Z" fill="#FAFAFA"/>
<path d="M342 331C342 331.1 340.3 331.6 338.2 331.7C336.1 331.8 334.3 331.5 334.3 331.4C334.3 331.3 336 331.3 338.1 331.2C340.3 331.1 342 330.9 342 331Z" fill="#FAFAFA"/>
<path d="M360.5 316.4C360.6 316.5 358.4 317.7 355.6 319C352.8 320.3 350.5 321.3 350.5 321.2C350.4 321.1 352.6 319.9 355.4 318.6C358.2 317.2 360.5 316.3 360.5 316.4Z" fill="#FAFAFA"/>
<path d="M361.8 307.1C361.7 307 362.5 305.2 363.6 303C364.7 300.8 365.7 299 365.8 299.1C365.9 299.2 365.1 301 364 303.2C362.9 305.4 361.9 307.2 361.8 307.1Z" fill="#FAFAFA"/>
<path d="M373.5 314.4C373.4 314.4 372.8 312.4 372 309.9C371.2 307.4 370.5 305.4 370.7 305.3C370.8 305.2 371.7 307.2 372.5 309.7C373.3 312.2 373.7 314.4 373.5 314.4Z" fill="#FAFAFA"/>
<path d="M375.4 324.1C375.4 324.2 373.5 325.1 371 325.7C368.5 326.3 366.4 326.5 366.4 326.4C366.4 326.3 368.4 325.8 370.9 325.2C373.3 324.5 375.3 323.9 375.4 324.1Z" fill="#FAFAFA"/>
<path d="M355.2 335.9C355 335.9 355.5 333.4 355.6 330.4C355.7 327.4 355.5 324.9 355.7 324.9C355.8 324.9 356.3 327.3 356.2 330.4C356 333.5 355.3 335.9 355.2 335.9Z" fill="#FAFAFA"/>
<path d="M351.2 348.1C351.1 348.2 349.3 346.7 347.5 344.5C345.7 342.3 344.5 340.3 344.7 340.2C344.8 340.1 346.2 342 347.9 344.1C349.7 346.3 351.3 347.9 351.2 348.1Z" fill="#FAFAFA"/>
<path d="M371.4 345.5C371.5 345.6 369.6 346.5 367.2 347.5C364.8 348.5 362.9 349.2 362.8 349C362.7 348.9 364.6 348 367 347C369.4 346.1 371.3 345.4 371.4 345.5Z" fill="#FAFAFA"/>
<path d="M364.2 368.4C364.1 368.4 364 365.9 364 362.9C364 359.9 364.2 357.4 364.3 357.4C364.4 357.4 364.5 359.9 364.5 362.9C364.4 365.9 364.3 368.4 364.2 368.4Z" fill="#FAFAFA"/>
<path d="M348.6 367.1C348.5 367.1 348.7 364.5 349.5 361.4C350.3 358.3 351.3 355.9 351.4 356C351.5 356.1 350.8 358.5 350 361.5C349.3 364.6 348.8 367.1 348.6 367.1Z" fill="#FAFAFA"/>
<path d="M349.4 373.1C349.4 373.3 346.9 373.5 343.9 374C340.9 374.5 338.4 375.1 338.4 374.9C338.4 374.8 340.8 374 343.8 373.5C346.8 373 349.4 372.9 349.4 373.1Z" fill="#FAFAFA"/>
<path d="M332.2 369.2C332.1 369.1 333.4 367.6 335.2 365.8C336.9 364 338.4 362.6 338.5 362.7C338.6 362.8 337.3 364.3 335.5 366.1C333.8 367.9 332.3 369.3 332.2 369.2Z" fill="#FAFAFA"/>
<path d="M321.1 380C321 380 320.5 378.2 319.7 376.1C318.9 374 318.2 372.3 318.3 372.2C318.4 372.1 319.4 373.7 320.2 375.9C321 378.1 321.2 380 321.1 380Z" fill="#FAFAFA"/>
<path d="M339 386.2C338.9 386.3 336.7 385.5 334 384.3C331.3 383.1 329.1 382 329.2 381.9C329.3 381.8 331.5 382.6 334.2 383.8C336.9 385 339.1 386.1 339 386.2Z" fill="#FAFAFA"/>
<path d="M307.8 384.4C307.7 384.4 308.1 382.7 308.7 380.7C309.4 378.7 310 377.2 310.1 377.2C310.2 377.2 309.8 378.9 309.2 380.9C308.5 382.9 307.9 384.5 307.8 384.4Z" fill="#FAFAFA"/>
<path d="M328.4 387.9C328.4 388.1 325.5 387.6 322 387.4C318.5 387.2 315.6 387.4 315.6 387.2C315.6 387.1 318.5 386.7 322.1 386.9C325.6 387.1 328.4 387.8 328.4 387.9Z" fill="#FAFAFA"/>
<path d="M332.6 358.4C332.6 358.4 332.6 358.3 332.6 358C332.6 357.7 332.6 357.4 332.8 356.9C332.9 356.4 333.2 355.8 333.9 355.4C334.5 355 335.4 354.8 336.3 355L336.1 355.1C337.2 351.3 338.9 345.7 340.7 339.4C342.3 333.5 343.4 328.1 344.2 324.2C344.6 322.3 344.9 320.7 345.1 319.6C345.3 318.5 345.5 317.9 345.5 317.9C345.5 317.9 345.5 318.5 345.3 319.6C345.1 320.7 344.9 322.3 344.5 324.3C343.8 328.2 342.8 333.7 341.1 339.6C339.3 345.9 337.5 351.5 336.3 355.3V355.4H336.1C335.3 355.2 334.4 355.4 333.9 355.7C333.3 356 333 356.6 332.9 357C332.7 357.9 332.7 358.4 332.6 358.4Z" fill="#263238"/>
<path d="M355.1 372.3C355 372.3 354.4 371 353.1 369C351.8 367 349.8 364.3 347.1 361.9C344.4 359.5 341.6 357.7 339.5 356.6C337.4 355.5 336 355 336 355C336 355 336.4 355.1 337 355.3C337.6 355.5 338.6 355.8 339.7 356.3C341.9 357.3 344.8 359 347.5 361.5C350.2 364 352.2 366.7 353.4 368.8C354 369.8 354.4 370.7 354.7 371.3C355 372 355.1 372.3 355.1 372.3Z" fill="#263238"/>
<g opacity="0.2">
<path opacity="0.2" d="M336.5 354.2C340.3 354.5 343.5 354.8 347 356.1C350.6 357.4 353.9 360 355.2 363.6C355.5 364.5 355.7 365.6 355 366.2C354.5 366.7 353.7 366.7 353.1 366.5C352.5 366.3 351.9 365.8 351.4 365.4C349.2 363.4 346.9 361.6 344.6 359.6C342.3 357.6 339 355.6 336 355.1" fill="black"/>
</g>
<path d="M329.3 347.9C329.3 347.9 329 348.2 328.3 348.5C327.6 348.8 326.6 349.3 325.2 349.7C322.5 350.5 318.6 350.9 314.4 349.8C310.2 348.7 307 346.4 305 344.4C304 343.4 303.3 342.5 302.9 341.9C302.5 341.3 302.3 340.9 302.3 340.9C302.4 340.8 303.3 342.3 305.3 344.2C307.3 346.1 310.5 348.3 314.5 349.3C318.5 350.3 322.4 350 325.1 349.3C327.8 348.6 329.3 347.8 329.3 347.9Z" fill="#263238"/>
<g opacity="0.2">
<path opacity="0.2" d="M302.9 341.6C304.6 345.3 306.6 348.9 309.8 351.4C311.6 352.8 313.8 354 316.1 354C319.4 354.1 322.3 351.8 324.9 349.6C316.6 351 307.3 347.2 302.9 341.6Z" fill="black"/>
</g>
<path d="M339.9 292.6C339.7 292.6 339.9 289.2 339.5 285C339.1 280.8 338.3 277.5 338.4 277.4C338.5 277.4 338.8 278.2 339.1 279.5C339.4 280.9 339.8 282.7 340 284.9C340.2 287 340.2 288.9 340.1 290.3C340.1 291.8 339.9 292.6 339.9 292.6Z" fill="#263238"/>
<path d="M221.2 426.4C221.2 426.4 210.3 428.7 200.6 427.3C191.5 425.9 171.1 427.3 171.1 439.3C171.1 452.7 198.3 449.4 208.9 447.2C219.5 445.1 230.1 443.2 230.1 443.2L221.2 426.4Z" fill="#544694"/>
<path d="M196.8 443.6C196.7 443.6 196.1 441.5 195.5 438.9C194.9 436.3 194.6 434.2 194.7 434.1C194.8 434.1 195.4 436.2 196 438.8C196.6 441.4 197 443.5 196.8 443.6Z" fill="#263238"/>
<path d="M200.6 443.7C200.5 443.7 200 441.6 199.7 438.9C199.3 436.2 199.2 434.1 199.3 434.1C199.4 434.1 199.9 436.2 200.2 438.9C200.5 441.6 200.7 443.7 200.6 443.7Z" fill="#263238"/>
<path d="M204.1 442.3C204 442.3 203.6 440.5 203.3 438.1C203 435.8 202.9 433.9 203.1 433.9C203.2 433.9 203.6 435.7 203.9 438.1C204.2 440.4 204.3 442.3 204.1 442.3Z" fill="#263238"/>
<path d="M209.8 440.9C209.7 441 208.9 439.4 208.4 437.3C207.9 435.2 207.9 433.5 208 433.5C208.1 433.5 208.4 435.2 208.9 437.2C209.3 439.3 209.9 440.9 209.8 440.9Z" fill="#263238"/>
<path d="M211 436.1C211 436.1 211.5 436 212.4 436C213.3 436 214.7 436.2 216.2 436.7C216.6 436.8 217 437 217.4 437.3C217.8 437.6 218.1 438.1 218.1 438.6C218.1 439.8 216.8 440.6 215.6 440.4C214.4 440.2 213.5 439.3 212.8 438.4C212 437.5 211.5 436.3 211.2 435.1C210.6 432.6 211 430 212.4 428.2C212.6 428 212.9 427.8 213.2 427.7C213.5 427.6 213.9 427.8 214.1 428C214.5 428.4 214.7 429 214.8 429.5C214.9 430.5 214.9 431.4 214.7 432.2C214.3 433.8 213.5 435 212.9 435.6C212.6 435.9 212.3 436.2 212.1 436.3C211.9 436.4 211.8 436.5 211.8 436.5C211.8 436.5 212.2 436.2 212.8 435.5C213.4 434.8 214.1 433.7 214.4 432.1C214.6 431.3 214.6 430.4 214.5 429.5C214.4 429.1 214.3 428.6 213.9 428.3C213.6 428 213.2 428.1 212.9 428.5C211.7 430.2 211.3 432.6 211.8 435C212.1 436.2 212.6 437.3 213.3 438.2C214 439.1 214.8 439.9 215.8 440.1C216.7 440.3 217.8 439.6 217.7 438.8C217.7 438.4 217.5 438 217.1 437.8C216.8 437.5 216.4 437.3 216 437.2C214.5 436.6 213.2 436.4 212.3 436.3C211.5 436.1 211 436.1 211 436.1Z" fill="#263238"/>
<path d="M229 441.5C229 441.5 228.9 441.5 228.7 441.6C228.5 441.7 228.2 441.7 227.9 441.8C227.1 442 226.1 442.2 224.7 442.5C222 443.1 218 443.9 213 444.9C208.1 445.8 202.2 446.9 195.5 447.8C192.2 448.2 188.7 448.6 185 448.3C183.2 448.2 181.3 447.9 179.5 447.2C178.6 446.9 177.7 446.5 176.9 446C176.1 445.5 175.2 445 174.6 444.1C174.3 443.8 173.9 443.4 173.7 443C172.6 441.2 172.6 439 173.1 437.1C173.7 435.2 175.1 433.7 176.6 432.5C178.1 431.4 179.8 430.6 181.6 430C182.5 429.8 183.3 429.5 184.2 429.3C185.1 429.1 185.9 428.9 186.8 428.8C193.6 427.7 199.8 428.3 205 428.3C207.6 428.3 209.9 428.3 212 428.2C214 428 215.8 427.8 217.2 427.5C217.9 427.4 218.5 427.2 219.1 427.1C219.6 427 220.1 426.8 220.4 426.7C220.7 426.6 221 426.5 221.2 426.5C221.4 426.5 221.5 426.4 221.5 426.4C221.5 426.4 221.4 426.4 221.2 426.5C221 426.6 220.7 426.7 220.4 426.8C220 426.9 219.6 427.1 219.1 427.2C218.6 427.3 217.9 427.5 217.2 427.6C215.8 427.9 214 428.2 212 428.3C209.9 428.5 207.6 428.5 205 428.5C199.8 428.5 193.6 428 186.9 429.1C186.1 429.2 185.2 429.4 184.4 429.6C183.6 429.8 182.7 430.1 181.9 430.3C180.2 430.9 178.6 431.6 177.1 432.7C175.6 433.8 174.4 435.2 173.8 437C173.2 438.8 173.3 440.8 174.3 442.4C174.5 442.8 174.9 443.1 175.2 443.4C175.8 444.1 176.6 444.7 177.3 445.1C178.1 445.6 179 445.9 179.8 446.2C181.6 446.8 183.4 447.1 185.2 447.2C188.8 447.5 192.3 447.1 195.6 446.7C202.2 445.8 208.1 444.8 213.1 443.9C218 443 222 442.2 224.8 441.7C226.1 441.4 227.2 441.2 228 441.1C228.3 441 228.6 441 228.8 440.9C229 441.5 229 441.5 229 441.5Z" fill="#263238"/>
<path d="M189.3 447.9C189.2 447.9 189.2 446.8 189 445.1C188.9 443.4 188.7 441 188.3 438.4C188 435.8 187.5 433.5 187.2 431.8C186.9 430.1 186.6 429.1 186.7 429.1C186.8 429.1 187.1 430.1 187.5 431.8C187.9 433.5 188.4 435.8 188.8 438.4C189.1 441 189.3 443.4 189.3 445.1C189.4 446.9 189.4 447.9 189.3 447.9Z" fill="#263238"/>
<path opacity="0.4" d="M217.9 427L224.8 444.3L230.1 443.3L219.9 426.4L217.9 427Z" fill="black"/>
<path d="M307.7 379.7C306.6 380.1 235.4 360.1 206.6 352C199 349.9 190.9 351.1 184.3 355.4L184 355.6C174.3 361.9 169.6 373.5 172.2 384.8C173.9 391.9 178.3 398.1 184.5 401.9C203.5 413.5 243.7 438 244.9 437.5C246.5 436.9 296.7 435.6 296.7 435.6L236.3 392.2L265 410.8L307.7 379.7Z" fill="#263238"/>
<path d="M248.2 358.1L263.3 350.3L278.1 359.6L333.6 361.4L341.6 388.4L261.2 369.8C261.2 369.8 246.6 371.1 245.5 367.8C244.6 364.5 248.2 358.1 248.2 358.1Z" fill="#FFBE9D"/>
<path d="M293.7 401.4L286.2 426L287.1 433.5C300.7 447.2 322.4 448.7 337.8 436.9C347.1 429.7 352.6 418.6 352.5 406.9L352.4 381.2L293.7 401.4Z" fill="#263238"/>
<path d="M249.2 401.6C249.1 401.7 240.4 395.4 229.8 387.5C219.2 379.6 210.6 373.1 210.7 372.9C210.8 372.8 219.5 379.1 230.1 387C240.7 394.9 249.3 401.5 249.2 401.6Z" fill="#455A64"/>
<path d="M262.3 355.2C262.3 355.3 259 356.5 254.9 357.8C250.8 359.1 247.4 360.1 247.3 359.9C247.3 359.8 250.6 358.6 254.7 357.3C258.9 356 262.3 355 262.3 355.2Z" fill="#EB996E"/>
<path d="M263.5 359.8C263.5 359.9 262.5 360 260.9 360.3C259.3 360.6 257.1 361 254.7 361.5C252.3 362.1 250.2 362.7 248.6 363.1C247.1 363.6 246.1 363.9 246.1 363.8C246.1 363.7 247 363.3 248.5 362.8C250 362.2 252.2 361.6 254.6 361C257 360.4 259.2 360.1 260.9 359.9C262.5 359.7 263.5 359.7 263.5 359.8Z" fill="#EB996E"/>
<path d="M262.2 364C262.2 364.1 258.5 365 253.9 365.9C249.3 366.8 245.5 367.4 245.5 367.3C245.5 367.2 249.2 366.3 253.8 365.4C258.4 364.5 262.2 363.9 262.2 364Z" fill="#EB996E"/>
<path d="M242.6 321.8L256.6 367.7C256.8 368.2 257.2 368.6 257.8 368.6L295.8 371.5C296.5 371.6 297 372.1 297 372.8V375.2C297 375.9 296.4 376.5 295.6 376.5L191.6 374.5C191.1 374.5 190.6 374.2 190.4 373.6L172.1 325.7C171.8 324.9 172.4 323.9 173.3 323.9L241.2 320.7C241.8 320.8 242.4 321.2 242.6 321.8Z" fill="#455A64"/>
<path d="M213.3 341.6C212.6 341.8 211.4 342.8 211.2 343.9C211.1 345 211.6 346.1 212.5 346.8C213.6 347.6 215.2 347.7 216.3 346.9C217.4 346.1 217.9 344.7 217.3 343.1C216.9 341.8 214.6 340.9 213.3 341.6Z" fill="#E0E0E0"/>
<path d="M230.1 443.3L219.1 425.2L299.9 361.9C304.9 357.8 311.1 355.3 317.5 354.7C337.6 352.9 354.5 369.6 352.8 389.7L351.5 405.1L298 422.4L230.1 443.3Z" fill="#263238"/>
<path d="M333.7 400.4C333.7 400.4 333.6 400.5 333.5 400.6C333.3 400.7 333.1 400.9 332.8 401.1C332.2 401.6 331.3 402.3 330.2 403.2C329.6 403.6 329 404.1 328.3 404.7C327.6 405.2 326.8 405.7 326 406.3C325.2 406.9 324.3 407.5 323.3 408.1C322.8 408.4 322.3 408.8 321.8 409.1C321.3 409.4 320.7 409.7 320.2 410.1C318 411.4 315.6 412.9 312.9 414.3C311.6 415 310.2 415.8 308.8 416.5C307.4 417.2 305.9 417.9 304.3 418.6C298.1 421.4 291.3 424.2 283.9 426.7C269.1 431.8 255.5 435.4 245.7 438.4C243.2 439.1 241 439.8 239.1 440.4C237.2 441 235.5 441.5 234.1 442C232.8 442.4 231.7 442.8 231 443C230.7 443.1 230.4 443.2 230.2 443.3C230 443.4 229.9 443.4 229.9 443.4C229.9 443.4 230 443.4 230.2 443.3C230.4 443.2 230.7 443.1 231 443C231.7 442.7 232.8 442.4 234.1 441.9C235.4 441.4 237.1 440.9 239 440.2C240.9 439.6 243.1 438.9 245.6 438.1C255.4 435 269 431.3 283.7 426.3C291.1 423.8 298 421 304.1 418.2C305.6 417.5 307.1 416.8 308.6 416.1C310 415.4 311.4 414.6 312.7 414C315.4 412.7 317.8 411.2 320 409.9C320.5 409.6 321.1 409.3 321.6 409C322.1 408.7 322.6 408.3 323.1 408C324.1 407.4 325 406.8 325.8 406.2C326.6 405.6 327.4 405.1 328.1 404.6C328.8 404.1 329.4 403.6 330 403.2C331.1 402.4 332 401.7 332.6 401.2C332.9 401 333.1 400.8 333.3 400.7C333.7 400.4 333.7 400.4 333.7 400.4Z" fill="#455A64"/>
<path d="M335.7 408.8C335.7 408.8 335.4 409 334.9 409.2C334.4 409.4 333.6 409.8 332.6 410.1C330.6 410.8 327.8 411.7 324.7 412.4C321.5 413.1 318.6 413.4 316.5 413.6C315.4 413.7 314.6 413.7 314 413.7C313.4 413.7 313.1 413.7 313.1 413.6C313.1 413.5 314.4 413.4 316.5 413.2C318.6 413 321.5 412.6 324.6 411.9C327.7 411.2 330.5 410.4 332.5 409.8C334.5 409.2 335.7 408.7 335.7 408.8Z" fill="#455A64"/>
<path d="M296.7 364.9C296.8 365 279.5 378.6 258.1 395.2C236.7 411.9 219.2 425.3 219.2 425.1C219.1 425 236.4 411.4 257.8 394.7C279.2 378.2 296.6 364.8 296.7 364.9Z" fill="#455A64"/>
<path d="M292 432.1C288.1 430 283.8 431.3 280.1 432.5C277.6 433.3 275.1 434.6 272.6 433.9C270.8 433.4 269.4 431.9 268.1 430.6C262.5 425.4 254.8 422.6 247.2 423.1C245 423.2 242.9 424.1 241.5 425.7C237.7 429.8 240.6 435.2 244 438.7C250 444.8 258.2 448.8 266.7 449.7C273.8 450.4 283.5 449.5 290.7 446.4C295.1 444.5 297.4 439.3 295.1 435C294.3 433.8 293.3 432.8 292 432.1Z" fill="#544694"/>
<g opacity="0.4">
<path opacity="0.4" d="M292 435.4C288.1 433.3 283.8 434.6 280.1 435.8C277.6 436.6 275.1 437.9 272.6 437.2C270.8 436.7 269.4 435.2 268.1 433.9C262.5 428.7 254.8 425.9 247.2 426.4C245 426.5 242.9 427.4 241.5 429C240.7 429.9 240.2 430.9 239.9 431.9C240.5 434.4 242.1 436.8 244 438.7C250 444.8 258.2 448.8 266.7 449.7C273.8 450.4 283.5 449.5 290.7 446.4C293.4 445.3 295.2 442.9 295.8 440.3C295.6 439.6 295.4 439 295.1 438.3C294.3 437.1 293.3 436.1 292 435.4Z" fill="black"/>
</g>
<path d="M295.7 440.3C295.6 440.3 295.6 439.4 294.7 438C294.2 437.3 293.6 436.6 292.6 436C291.7 435.4 290.4 434.8 289 434.6C286.1 434.3 282.8 435.5 279.1 436.5C277.3 437 275.3 437.7 273.1 437.5C272 437.4 271 437 270 436.4C269 435.8 268.2 435.1 267.3 434.4C264.1 431.3 260.3 429.3 256.7 428.1C254.9 427.5 253.1 427.1 251.4 426.9C249.7 426.7 248.1 426.7 246.7 426.9C245.3 427.1 244.1 427.6 243.1 428.2C242.1 428.8 241.4 429.5 240.9 430.1C239.9 431.3 239.5 432.2 239.5 432.2C239.5 432.2 239.8 431.3 240.8 430C241.3 429.4 242 428.6 243 428C244 427.4 245.3 426.9 246.7 426.6C248.2 426.3 249.8 426.4 251.5 426.6C253.2 426.8 255 427.2 256.9 427.8C258.7 428.4 260.6 429.2 262.5 430.3C263.4 430.8 264.3 431.4 265.2 432.1C266.1 432.8 266.9 433.5 267.7 434.2C268.5 434.9 269.4 435.6 270.3 436.2C271.2 436.7 272.2 437.1 273.2 437.2C275.2 437.5 277.2 436.8 279 436.3C282.7 435.3 286.1 434.1 289.1 434.5C292.1 435 294 436.8 294.9 438.1C295.3 438.8 295.5 439.4 295.6 439.9C295.7 440.1 295.7 440.3 295.7 440.3Z" fill="#263238"/>
<path d="M295.7 440.3C295.6 440.3 295.6 439.4 294.7 438C294.2 437.3 293.6 436.6 292.6 436C291.7 435.4 290.4 434.8 289 434.6C286.1 434.3 282.8 435.5 279.1 436.5C277.3 437 275.3 437.7 273.1 437.5C272 437.4 271 437 270 436.4C269 435.8 268.2 435.1 267.3 434.4C264.1 431.3 260.3 429.3 256.7 428.1C254.9 427.5 253.1 427.1 251.4 426.9C249.7 426.7 248.1 426.7 246.7 426.9C245.3 427.1 244.1 427.6 243.1 428.2C242.1 428.8 241.4 429.5 240.9 430.1C239.9 431.3 239.5 432.2 239.5 432.2C239.5 432.2 239.8 431.3 240.8 430C241.3 429.4 242 428.6 243 428C244 427.4 245.3 426.9 246.7 426.6C248.2 426.3 249.8 426.4 251.5 426.6C253.2 426.8 255 427.2 256.9 427.8C258.7 428.4 260.6 429.2 262.5 430.3C263.4 430.8 264.3 431.4 265.2 432.1C266.1 432.8 266.9 433.5 267.7 434.2C268.5 434.9 269.4 435.6 270.3 436.2C271.2 436.7 272.2 437.1 273.2 437.2C275.2 437.5 277.2 436.8 279 436.3C282.7 435.3 286.1 434.1 289.1 434.5C292.1 435 294 436.8 294.9 438.1C295.3 438.8 295.5 439.4 295.6 439.9C295.7 440.1 295.7 440.3 295.7 440.3Z" fill="#263238"/>
<path d="M247.6 439.4C247.6 439.3 248.3 438.8 249.6 438C250.9 437.2 252.7 436.2 254.7 435.3C256.8 434.3 258.7 433.6 260.1 433.1C261.5 432.6 262.4 432.4 262.4 432.4C262.4 432.5 261.6 432.8 260.2 433.4C258.8 434 256.9 434.8 254.9 435.7C252.9 436.7 251 437.6 249.7 438.3C248.5 439 247.7 439.4 247.6 439.4Z" fill="#263238"/>
<path d="M249 443.3C248.9 443.2 252.3 441.4 256.6 439.4C260.8 437.3 264.3 435.8 264.4 435.9C264.5 436 261.1 437.8 256.8 439.8C252.5 441.8 249 443.4 249 443.3Z" fill="#263238"/>
<path d="M265 444.9C264.9 445 260.8 442.6 255.8 439.4C250.8 436.2 246.8 433.6 246.9 433.5C247 433.4 251.1 435.8 256.1 439C261.1 442.2 265.1 444.8 265 444.9Z" fill="#263238"/>
<path d="M267.3 440.9C267.3 441 266.5 440.4 265.3 439.5C264.1 438.6 262.4 437.4 260.5 436.1C258.6 434.8 256.9 433.7 255.7 432.8C254.5 432 253.7 431.4 253.7 431.4C253.7 431.3 254.6 431.8 255.9 432.5C257.2 433.3 259 434.4 260.8 435.7C262.7 437 264.3 438.3 265.5 439.2C266.7 440.2 267.4 440.9 267.3 440.9Z" fill="#263238"/>
</svg>
