<svg width="500" height="474" viewBox="0 0 500 474" fill="none" xmlns="http://www.w3.org/2000/svg">
<g clip-path="url(#clip0_348_638)">
<path d="M18.4656 474H486.44C486.44 474 539.537 276.322 407.608 213.373C275.678 150.425 241.344 259.703 133.13 275.002C24.9151 290.302 -31.7004 357.006 18.4656 474Z" fill="#F5F5F5" fill-opacity="0.7"/>
<path d="M123.543 276.701L123.011 276.144L126.351 272.958L126.883 273.515L123.543 276.701ZM130.204 270.308L129.663 269.76C130.749 268.692 131.839 267.605 132.901 266.485L133.455 267.017C132.396 268.129 131.303 269.237 130.204 270.308ZM136.616 263.638L136.053 263.118C137.072 261.997 138.1 260.837 139.109 259.67L139.691 260.175C138.681 261.332 137.65 262.511 136.625 263.638H136.616ZM142.665 256.635L142.07 256.146C143.031 254.976 144 253.766 144.948 252.55L145.564 253.024C144.61 254.253 143.637 255.459 142.674 256.635H142.665ZM148.365 249.343L147.75 248.884C148.651 247.668 149.563 246.422 150.458 245.157L151.074 245.6C150.191 246.865 149.289 248.124 148.365 249.343ZM153.721 241.802L153.084 241.371C153.946 240.096 154.794 238.815 155.63 237.526L156.276 237.945C155.441 239.238 154.59 240.523 153.724 241.802H153.721ZM195.891 236.464C194.472 236.465 193.065 236.198 191.745 235.676L192.031 234.962C193.26 235.447 194.57 235.696 195.891 235.695C196.082 235.679 196.224 235.695 196.39 235.695L196.427 236.461C196.242 236.461 196.03 236.449 195.885 236.464H195.891ZM201.001 235.15L200.616 234.485C201.898 233.741 202.96 232.672 203.694 231.385L204.362 231.767C203.561 233.172 202.401 234.34 201.001 235.15V235.15ZM158.76 234.039L158.101 233.629C158.912 232.324 159.709 231.011 160.493 229.689L161.155 230.083C160.367 231.421 159.566 232.74 158.754 234.039H158.76ZM187.845 232.967C186.771 231.793 185.914 230.439 185.312 228.966L186.023 228.658C186.59 230.044 187.398 231.32 188.408 232.426L187.845 232.967ZM205.618 227.181H204.849V226.974C204.855 225.85 204.624 224.737 204.171 223.708C204.054 223.45 203.925 223.201 203.787 222.957L204.458 222.576C204.609 222.84 204.744 223.111 204.87 223.391C205.367 224.515 205.622 225.73 205.618 226.959V227.181ZM163.787 226.374L163.196 225.878C164.199 224.683 165.296 223.569 166.477 222.548L166.979 223.13C165.83 224.125 164.763 225.21 163.787 226.374V226.374ZM184.102 224.419C184.015 223.681 183.97 222.938 183.97 222.194C183.971 221.371 184.023 220.548 184.127 219.731L184.89 219.827C184.791 220.616 184.741 221.411 184.739 222.206C184.739 222.919 184.782 223.632 184.869 224.339L184.102 224.419ZM170.635 220.436L170.244 219.778C171.57 218.957 172.955 218.237 174.388 217.623L174.695 218.328C173.296 218.93 171.943 219.635 170.648 220.436H170.635ZM200.819 219.645C199.613 218.742 198.291 218.005 196.889 217.454L197.175 216.74C198.649 217.316 200.039 218.087 201.309 219.033L200.819 219.645ZM178.983 216.835L178.783 216.09C180.286 215.683 181.815 215.382 183.36 215.188L183.456 215.952C181.95 216.14 180.459 216.435 178.996 216.835H178.983ZM192.527 216.195C191.034 215.914 189.521 215.755 188.002 215.721L188.021 214.951C189.588 214.987 191.15 215.15 192.69 215.441L192.527 216.195ZM185.949 215.419L185.241 215.16C185.774 213.687 186.455 212.271 187.273 210.934L187.928 211.337C187.137 212.628 186.479 213.995 185.964 215.419H185.949ZM190.655 207.724L190.089 207.2C190.314 206.957 190.545 206.72 190.779 206.489C191.662 205.617 192.61 204.811 193.613 204.079L194.069 204.695C193.103 205.401 192.191 206.176 191.339 207.016C191.108 207.262 190.886 207.49 190.671 207.724H190.655ZM197.938 202.359L197.615 201.669C199.013 200.976 200.466 200.399 201.958 199.942L202.183 200.678C200.729 201.121 199.315 201.683 197.954 202.359H197.938ZM206.619 199.53L206.428 198.785C207.933 198.4 209.429 197.997 210.876 197.588L211.085 198.326C209.647 198.739 208.145 199.154 206.634 199.53H206.619ZM215.536 197L215.305 196.267C216.789 195.799 218.26 195.313 219.676 194.817L219.928 195.544C218.506 196.042 217.029 196.532 215.536 197ZM224.275 193.943L223.998 193.226C225.438 192.669 226.869 192.081 228.255 191.484L228.562 192.189C227.165 192.792 225.724 193.383 224.275 193.943ZM232.776 190.271L232.444 189.578L236.596 187.562L236.932 188.255L232.776 190.271ZM241.087 186.235L240.752 185.543L244.904 183.524L245.24 184.216L241.087 186.235ZM249.398 182.197L249.063 181.507L253.215 179.488L253.551 180.181L249.398 182.197ZM257.709 178.162L257.374 177.469L261.511 175.453L261.849 176.145L257.709 178.162ZM266.02 174.123L265.685 173.43L269.837 171.414L270.175 172.104L266.02 174.123Z" fill="#9192FF"/>
<path d="M251.811 31.0275C251.808 31.1837 251.815 31.3399 251.83 31.4954H353.029C352.765 23.1537 345.503 16.4649 336.598 16.4649C333.861 16.4584 331.161 17.1053 328.724 18.3518C328.848 11.8601 325.729 5.64228 319.979 2.3056C311.361 -2.69018 300.07 0.701902 294.791 9.887C293.253 12.5505 292.344 15.5299 292.132 18.5981C287.924 16.6712 282.71 15.52 277.049 15.52C263.111 15.5261 251.811 22.4703 251.811 31.0275Z" fill="#EBEBFF"/>
<path d="M83.4477 267.504H0V267.196C0.221624 260.135 6.26089 254.603 13.7469 254.603C15.8749 254.603 17.9768 255.072 19.9031 255.976C19.9585 250.571 22.7288 245.646 27.2136 243.048C28.8812 242.089 30.7229 241.47 32.6315 241.229C34.5402 240.987 36.4778 241.128 38.3318 241.641C40.4127 242.208 42.3603 243.182 44.0613 244.508C45.7623 245.834 47.1828 247.485 48.2402 249.364C49.4522 251.464 50.1966 253.8 50.4226 256.213C54.2493 254.603 58.3652 253.795 62.5166 253.837C74.078 253.837 83.4816 259.664 83.4816 266.824C83.4842 266.963 83.479 267.103 83.4662 267.242L83.4477 267.504ZM0.615623 266.925H82.9183V266.83C82.9183 259.987 73.7732 254.422 62.5289 254.422C58.0871 254.422 53.8578 255.284 50.2995 256.912L49.9178 257.087L49.8901 256.669C49.719 254.198 48.9817 251.8 47.7354 249.66C46.7177 247.847 45.3502 246.255 43.7121 244.975C42.0741 243.695 40.1982 242.754 38.1933 242.205C36.4127 241.711 34.5517 241.576 32.7186 241.808C30.8855 242.04 29.1168 242.634 27.5153 243.556C23.0828 246.126 20.3925 251.067 20.4941 256.444V256.927L20.0632 256.706C18.1075 255.707 15.9426 255.188 13.7469 255.191C6.68875 255.191 0.969607 260.323 0.615623 266.925Z" fill="#9192FF"/>
<path d="M246.625 259.178C246.626 263.901 248.502 268.43 251.842 271.769C255.182 275.109 259.712 276.985 264.435 276.985H462.222C466.945 276.985 471.474 275.109 474.814 271.769C478.153 268.43 480.029 263.9 480.029 259.178V138.823H246.625V259.178Z" fill="white"/>
<path d="M234.411 169.534C237.141 160.786 245.772 154.072 255.203 153.361C264.635 152.65 274.257 157.978 278.385 166.222C283.405 166.172 288.349 168.955 290.786 173.2C291.982 175.329 292.573 177.745 292.497 180.185C292.421 182.626 291.681 185 290.356 187.051C296.33 188.086 301.695 192.019 304.339 197.301C305.64 199.946 306.285 202.865 306.22 205.812C306.155 208.758 305.382 211.646 303.967 214.231C310.542 210.888 318.954 211.193 325.264 215.004C331.575 218.814 335.552 225.986 335.33 233.165C339.427 226.741 347.282 222.733 355.091 223.09C362.901 223.447 370.343 228.147 373.819 234.919C377.485 223.952 387.261 215.096 398.825 212.264C410.39 209.432 423.367 212.723 432.023 220.677C445.043 222.714 454.53 236.849 451.138 249.155C458.171 254.973 461.767 264.435 460.295 273.257C458.824 282.079 452.341 289.959 443.778 293.345L219.777 293.197L200.693 207.739L234.411 169.534Z" fill="#D1D1FF"/>
<g opacity="0.8">
<path opacity="0.8" d="M230.859 197.923C233.5 189.172 241.844 182.452 250.959 181.732C260.073 181.012 269.366 186.349 273.346 194.571C275.784 194.548 278.183 195.184 280.29 196.411C282.397 197.639 284.133 199.412 285.316 201.544C286.499 203.677 287.084 206.089 287.01 208.526C286.936 210.963 286.205 213.335 284.895 215.391C287.793 215.91 290.526 217.108 292.872 218.886C295.217 220.665 297.108 222.974 298.389 225.625C299.67 228.275 300.304 231.191 300.241 234.134C300.177 237.077 299.417 239.963 298.023 242.556C301.22 240.872 304.802 240.055 308.412 240.187C312.023 240.32 315.535 241.397 318.6 243.31C321.664 245.224 324.173 247.907 325.877 251.093C327.581 254.279 328.419 257.856 328.309 261.468C332.273 255.041 339.864 251.027 347.408 251.378C354.953 251.729 362.143 256.423 365.492 263.191C369.045 252.221 378.494 243.356 389.671 240.518C400.848 237.68 413.373 240.958 421.739 248.906C434.316 250.931 443.47 265.06 440.186 277.366C446.976 283.178 450.439 292.637 449.011 301.462C447.583 310.287 441.316 318.17 433.039 321.546L216.647 321.577L198.252 236.147L230.859 197.923Z" fill="white"/>
</g>
<path opacity="0.7" d="M402.907 142.702C338.079 203.667 292.113 220.104 234.192 225.983L230.345 287.546L291.137 308.323C344.235 306.784 395.218 229.914 426.71 163.959L402.907 142.689" fill="#FFF2E0"/>
<path d="M412.037 143.493C401.497 155.962 385.602 167.89 366.853 184.001L392.435 173.575C389.299 178.774 384.74 186.048 382.17 189.169C388.064 186.445 397.56 180.458 400.694 177.284C400.694 181.714 395.356 189.123 393.029 193.17C406.675 181.492 419.089 167.237 423.096 154.712L412.037 143.493" fill="#544694"/>
<path opacity="0.4" d="M415.025 144.124C408.789 152.389 399.459 160.355 388.431 171.085L403.359 164.005C401.488 167.437 398.767 172.242 397.249 174.311C400.694 172.464 406.253 168.462 408.106 166.348C408.06 169.244 404.892 174.145 403.489 176.813C411.513 169.035 418.852 159.576 421.305 151.348L415.013 144.124" fill="white"/>
<path d="M318.222 186.479C318.305 188.406 318.222 191.659 316.295 192.773C313.081 194.636 310.554 190.117 309.372 187.848C307.966 185.137 308.326 181.772 311.508 180.562C315.713 178.962 318.068 182.88 318.222 186.479Z" fill="#D1D1FF"/>
<path d="M470.626 244.997C470.709 246.924 470.626 250.177 468.699 251.291C465.485 253.138 462.958 248.635 461.776 246.366C460.369 243.655 460.729 240.29 463.912 239.081C468.117 237.48 470.472 241.398 470.626 244.997Z" fill="#D1D1FF"/>
<path d="M301.141 167.37C302.629 167.37 303.835 166.164 303.835 164.676C303.835 163.189 302.629 161.983 301.141 161.983C299.654 161.983 298.448 163.189 298.448 164.676C298.448 166.164 299.654 167.37 301.141 167.37Z" fill="#D1D1FF"/>
<path d="M439.942 216.935C441.97 215.927 442.797 213.466 441.789 211.438C440.781 209.411 438.32 208.584 436.292 209.592C434.265 210.6 433.438 213.061 434.446 215.088C435.454 217.116 437.914 217.943 439.942 216.935Z" fill="#D1D1FF"/>
<path d="M462.222 277.381H264.435C259.611 277.374 254.987 275.453 251.577 272.04C248.168 268.627 246.252 264.001 246.249 259.177V138.463H480.423V259.177C480.422 264.004 478.503 268.633 475.091 272.047C471.678 275.46 467.049 277.379 462.222 277.381V277.381ZM247.01 139.232V259.177C247.015 263.797 248.853 268.225 252.12 271.492C255.386 274.758 259.815 276.595 264.435 276.6H462.222C466.841 276.595 471.27 274.758 474.536 271.491C477.802 268.225 479.639 263.797 479.644 259.177V139.232H247.01Z" fill="#9192FF"/>
<path d="M462.222 92.2266H264.435C262.096 92.2262 259.78 92.6864 257.62 93.5811C255.459 94.4758 253.495 95.7874 251.841 97.441C250.188 99.0946 248.876 101.058 247.981 103.218C247.086 105.379 246.625 107.695 246.625 110.033V138.848H480.029V110.033C480.03 107.695 479.569 105.379 478.675 103.219C477.78 101.058 476.468 99.0948 474.815 97.4412C473.161 95.7876 471.198 94.476 469.037 93.5812C466.877 92.6865 464.561 92.2262 462.222 92.2266V92.2266Z" fill="white"/>
<path d="M480.414 139.233H246.249V110.034C246.255 105.21 248.174 100.585 251.585 97.1743C254.996 93.7633 259.62 91.8446 264.444 91.8389H462.231C467.055 91.8446 471.679 93.7634 475.09 97.1745C478.5 100.586 480.418 105.21 480.423 110.034L480.414 139.233ZM247.01 138.463H479.644V110.034C479.639 105.414 477.802 100.985 474.536 97.7186C471.27 94.4519 466.842 92.6141 462.222 92.6084H264.435C259.815 92.6133 255.385 94.4507 252.119 97.7175C248.852 100.984 247.014 105.414 247.01 110.034V138.463Z" fill="#9192FF"/>
<path d="M279.695 117.469C280.768 112.184 277.353 107.031 272.068 105.958C266.783 104.886 261.63 108.301 260.558 113.586C259.485 118.87 262.9 124.024 268.185 125.096C273.47 126.168 278.623 122.753 279.695 117.469Z" fill="#D1D1FF"/>
<path d="M305.8 122.441C309.613 118.628 309.613 112.446 305.8 108.633C301.987 104.82 295.805 104.82 291.992 108.633C288.179 112.446 288.179 118.628 291.992 122.441C295.805 126.254 301.987 126.254 305.8 122.441Z" fill="white"/>
<path d="M298.885 125.686C296.876 125.686 294.912 125.09 293.242 123.974C291.571 122.858 290.269 121.271 289.501 119.415C288.732 117.559 288.531 115.517 288.923 113.546C289.315 111.576 290.282 109.766 291.703 108.345C293.123 106.925 294.933 105.957 296.903 105.565C298.874 105.173 300.916 105.375 302.772 106.143C304.628 106.912 306.215 108.214 307.331 109.885C308.447 111.555 309.043 113.519 309.043 115.528C309.043 118.222 307.973 120.806 306.068 122.711C304.163 124.616 301.579 125.686 298.885 125.686V125.686ZM298.885 106.158C297.03 106.158 295.217 106.708 293.674 107.739C292.132 108.769 290.93 110.234 290.22 111.948C289.51 113.662 289.325 115.548 289.686 117.367C290.048 119.186 290.942 120.857 292.253 122.169C293.565 123.481 295.236 124.374 297.055 124.736C298.875 125.098 300.761 124.912 302.474 124.202C304.188 123.492 305.653 122.29 306.683 120.748C307.714 119.205 308.264 117.392 308.264 115.537C308.261 113.051 307.272 110.667 305.513 108.909C303.755 107.151 301.372 106.161 298.885 106.158V106.158Z" fill="#9192FF"/>
<path d="M373.212 106.22H334.339C329.193 106.22 325.021 110.391 325.021 115.537V115.54C325.021 120.686 329.193 124.858 334.339 124.858H373.212C378.358 124.858 382.53 120.686 382.53 115.54V115.537C382.53 110.391 378.358 106.22 373.212 106.22Z" fill="white"/>
<path d="M373.212 125.239H334.339C333.036 125.286 331.738 125.069 330.521 124.603C329.304 124.137 328.194 123.43 327.256 122.525C326.318 121.62 325.572 120.535 325.063 119.336C324.554 118.136 324.291 116.846 324.291 115.543C324.291 114.24 324.554 112.95 325.063 111.751C325.572 110.551 326.318 109.467 327.256 108.562C328.194 107.657 329.304 106.95 330.521 106.484C331.738 106.017 333.036 105.801 334.339 105.847H373.212C375.724 105.937 378.103 106.997 379.848 108.806C381.594 110.615 382.569 113.03 382.569 115.543C382.569 118.057 381.594 120.472 379.848 122.28C378.103 124.089 375.724 125.15 373.212 125.239V125.239ZM334.339 106.604C331.971 106.604 329.701 107.545 328.027 109.219C326.353 110.893 325.412 113.163 325.412 115.531C325.412 117.898 326.353 120.169 328.027 121.843C329.701 123.517 331.971 124.457 334.339 124.457H373.212C375.58 124.457 377.85 123.517 379.524 121.843C381.198 120.169 382.139 117.898 382.139 115.531C382.139 113.163 381.198 110.893 379.524 109.219C377.85 107.545 375.58 106.604 373.212 106.604H334.339Z" fill="#9192FF"/>
<path d="M452.542 70.9846C436.954 84.6299 410.064 75.2263 401.716 86.1228L425.59 105.026L452.542 70.9846Z" fill="#3335CF"/>
<path d="M401.716 86.1228C401.131 87.6827 400.979 89.3717 401.276 91.0109C401.573 92.6502 402.308 94.1785 403.403 95.4341L420.332 114.811L425.602 105.026L401.716 86.1228Z" fill="#D1D1FF"/>
<path d="M487.881 98.9614C478.173 117.261 493.49 141.273 484.803 151.905L460.932 133.002L487.881 98.9614Z" fill="#3335CF"/>
<path d="M484.803 151.902C483.419 152.83 481.809 153.366 480.145 153.453C478.481 153.541 476.824 153.176 475.35 152.398L452.6 140.362L460.911 132.99L484.803 151.902Z" fill="#D1D1FF"/>
<path d="M500 47.5325L478.746 55.3355L497.276 70.0089L500 47.5325Z" fill="#1B1B43"/>
<path d="M497.276 70.0088C494.305 103.637 469.459 135.016 439.278 152.447L411.778 130.691C423.318 94.3844 444.809 68.4021 478.746 55.3354L497.276 70.0088Z" fill="#C5C5FF"/>
<path d="M411.778 130.691L399.847 138.952L433.968 165.972L439.278 152.447L411.778 130.691Z" fill="#3335CF"/>
<path d="M472.275 97.1254C479.276 96.2931 484.276 89.9433 483.444 82.9427C482.612 75.9421 476.262 70.9417 469.261 71.774C462.261 72.6063 457.26 78.9561 458.093 85.9567C458.925 92.9573 465.275 97.9577 472.275 97.1254Z" fill="white"/>
<path d="M471.734 93.4917L471.651 92.7284C472.389 92.651 473.113 92.4761 473.805 92.2082L474.082 92.9254C473.329 93.2191 472.539 93.4096 471.734 93.4917V93.4917ZM469.33 93.4302C468.535 93.3045 467.761 93.0737 467.027 92.7437L467.335 92.0419C468.006 92.3441 468.714 92.5563 469.44 92.673L469.33 93.4302ZM476.172 91.768L475.717 91.1524C476.309 90.7113 476.84 90.1938 477.296 89.6133L477.911 90.0904C477.413 90.7238 476.832 91.2879 476.185 91.768H476.172ZM464.986 91.4602C464.366 90.949 463.815 90.358 463.349 89.7026L463.965 89.2562C464.392 89.8567 464.897 90.3981 465.467 90.8661L464.986 91.4602ZM478.838 88.6345L478.158 88.2805C478.497 87.6269 478.749 86.9314 478.906 86.212L479.657 86.3751C479.487 87.1665 479.211 87.9316 478.838 88.6499V88.6345ZM462.216 87.5756C461.939 86.8203 461.763 86.0316 461.693 85.2301L462.459 85.1623C462.522 85.8988 462.684 86.6235 462.939 87.317L462.216 87.5756ZM479.084 84.0327C479.046 83.3003 478.912 82.576 478.687 81.878L479.417 81.641C479.666 82.4051 479.813 83.199 479.854 84.0019L479.084 84.0327ZM462.567 82.98L461.81 82.8445C461.951 82.0519 462.197 81.2818 462.542 80.5544L463.238 80.8868C462.923 81.5506 462.697 82.2535 462.567 82.9769V82.98ZM477.724 79.8834C477.319 79.2671 476.835 78.7071 476.283 78.2181L476.794 77.6425C477.396 78.1769 477.925 78.7886 478.367 79.4617L477.724 79.8834ZM464.423 79.0369L463.838 78.5352C464.36 77.9233 464.962 77.384 465.627 76.9315L466.061 77.5655C465.456 77.9816 464.909 78.4764 464.435 79.0369H464.423ZM474.461 76.9869C473.802 76.6584 473.102 76.4203 472.38 76.2789L472.528 75.5217C473.317 75.6792 474.082 75.94 474.803 76.2974L474.461 76.9869ZM468.025 76.5775L467.775 75.851C468.535 75.5881 469.325 75.4267 470.127 75.3708L470.182 76.1404C469.451 76.1908 468.73 76.3378 468.037 76.5775H468.025Z" fill="#9192FF"/>
<path d="M434.406 131.002L433.801 130.522C432.904 129.812 431.601 129.963 430.89 130.86L406.957 161.089C406.247 161.986 406.398 163.289 407.295 163.999L407.901 164.479C408.798 165.189 410.101 165.038 410.811 164.141L434.745 133.912C435.455 133.015 435.303 131.712 434.406 131.002Z" fill="#1B1B43"/>
<path d="M450.27 428.009H445.653V427.243H450.27V428.009ZM441.036 428.009H436.418V427.243H441.036V428.009ZM431.801 428.009H427.184V427.243H431.801V428.009ZM422.567 428.009H417.95V427.243H422.567V428.009ZM413.333 428.009H408.715V427.243H413.333V428.009ZM404.098 428.009H399.481V427.243H404.098V428.009ZM394.864 428.009H390.247V427.243H394.864V428.009ZM385.63 428.009H381.012V427.243H385.63V428.009ZM376.395 428.009H371.778V427.243H376.395V428.009ZM367.161 428.009H362.544V427.243H367.161V428.009ZM357.927 428.009C356.343 427.998 354.772 427.73 353.275 427.215L353.525 426.489C354.944 426.974 356.433 427.228 357.933 427.24L357.927 428.009ZM450.83 428.009L450.799 427.24C452.299 427.186 453.781 426.89 455.186 426.362L455.457 427.083C453.973 427.636 452.41 427.946 450.827 428L450.83 428.009ZM349.114 424.999C347.855 424.038 346.759 422.881 345.866 421.573L346.501 421.139C347.347 422.378 348.386 423.475 349.579 424.386L349.114 424.999ZM459.554 424.74L459.067 424.14C460.235 423.198 461.244 422.073 462.053 420.809L462.702 421.225C461.848 422.553 460.789 423.736 459.563 424.731L459.554 424.74ZM343.863 417.3C343.489 415.986 343.301 414.625 343.302 413.259V412.643H344.072V413.259C344.071 414.555 344.25 415.845 344.604 417.091L343.863 417.3ZM464.58 416.897L463.835 416.706C464.12 415.579 464.263 414.421 464.263 413.259V412.221H465.033V413.259C465.032 414.483 464.879 415.702 464.577 416.888L464.58 416.897ZM344.072 408.014H343.302V403.397H344.072V408.014ZM465.042 407.604H464.272V402.987H465.042V407.604ZM344.072 398.779H343.302V394.162H344.072V398.779ZM465.042 398.37H464.272V393.753H465.042V398.37ZM344.072 389.545H343.302V384.928H344.072V389.545ZM465.042 389.136H464.272V384.518H465.042V389.136ZM344.072 380.311H343.302V375.693H344.072V380.311ZM465.042 379.901H464.272V375.284H465.042V379.901ZM344.072 371.076H343.302V366.459H344.072V371.076ZM465.042 370.667H464.272V366.05H465.042V370.667ZM344.072 361.842H343.302V358.764C343.302 358.237 343.33 357.711 343.385 357.188L344.152 357.268C344.099 357.765 344.072 358.264 344.072 358.764V361.842ZM465.042 361.433H464.272V358.764C464.272 358.132 464.23 357.5 464.146 356.874L464.91 356.769C464.997 357.431 465.041 358.097 465.042 358.764V361.433ZM345.343 352.952L344.641 352.645C345.301 351.205 346.187 349.881 347.267 348.723L347.83 349.246C346.803 350.336 345.959 351.584 345.331 352.943L345.343 352.952ZM462.841 352.595C462.178 351.249 461.303 350.017 460.249 348.948L460.8 348.409C461.911 349.537 462.834 350.836 463.534 352.257L462.841 352.595ZM351.358 346.488L350.988 345.811C352.378 345.052 353.881 344.521 355.439 344.238L355.578 344.995C354.096 345.258 352.667 345.759 351.345 346.479L351.358 346.488ZM456.629 346.301C455.293 345.618 453.856 345.155 452.372 344.931L452.486 344.17C454.053 344.406 455.57 344.895 456.98 345.617L456.629 346.301ZM447.82 344.761H443.203V343.992H447.82V344.761ZM438.585 344.761H433.968V343.992H438.585V344.761ZM429.351 344.761H424.734V343.992H429.351V344.761ZM420.117 344.761H415.5V343.992H420.117V344.761ZM410.882 344.761H406.265V343.992H410.882V344.761ZM401.648 344.761H397.031V343.992H401.648V344.761ZM392.414 344.761H387.797V343.992H392.414V344.761ZM383.179 344.761H378.562V343.992H383.179V344.761ZM373.945 344.761H369.328V343.992H373.945V344.761ZM364.711 344.761H360.093V343.992H364.711V344.761Z" fill="#9192FF"/>
<path d="M441.848 329.134H343.61C337.335 329.134 332.249 334.22 332.249 340.495V403.31C332.249 409.585 337.335 414.672 343.61 414.672H441.848C448.123 414.672 453.21 409.585 453.21 403.31V340.495C453.21 334.22 448.123 329.134 441.848 329.134Z" fill="#9192FF"/>
<path d="M366.379 379.098H353.282V405.696H366.379V379.098Z" fill="white"/>
<path d="M388.314 379.954H375.216V405.699H388.314V379.954Z" fill="white"/>
<path d="M410.245 366.505H397.148V405.699H410.245V366.505Z" fill="white"/>
<path d="M432.18 355.005H419.082V405.696H432.18V355.005Z" fill="white"/>
<path d="M427.867 341.182H357.591V344.254H427.867V341.182Z" fill="white"/>
<path d="M143.616 245.634C141.389 237.912 136.674 231.143 130.204 226.377L127.606 224.462L129.813 270.092L146.866 256.9L143.616 245.634Z" fill="#544694"/>
<path d="M198.415 300.784L194.626 293.366C194.151 292.436 193.487 291.614 192.677 290.954C191.866 290.295 190.927 289.811 189.92 289.534L178.774 286.456L150.098 268.147L146.866 256.9L129.813 270.092L129.967 273.297C130.119 276.447 131.152 279.491 132.948 282.084C134.743 284.677 137.23 286.714 140.125 287.964L167.97 299.969L181.206 300.276C185.472 301.748 186.943 305.423 189.59 304.099C190.575 303.607 186.722 297.263 186.722 297.263L193.118 304.321L198.415 300.784Z" fill="#FFBC96"/>
<path d="M149.764 267.879L146.016 272.292L146.69 272.864L150.438 268.451L149.764 267.879Z" fill="#D28572"/>
<path d="M148.541 319.268L169.404 317.421C182.985 316.224 194.799 327.191 195.46 341.612L200.173 444.36L171.396 445.259L148.541 319.268Z" fill="#26289C"/>
<path d="M173.71 444.24L174.594 472.62H217.238L196.208 455.121L194.885 441.445L173.71 444.24Z" fill="#1B1B43"/>
<path d="M195.665 454.435L186.694 461.346L187.77 462.743L196.741 455.832L195.665 454.435Z" fill="white"/>
<path d="M164.005 444.24L164.885 472.62H207.533L186.503 455.121L185.179 441.445L164.005 444.24Z" fill="#D1D1FF"/>
<path d="M185.96 454.433L176.989 461.344L178.066 462.741L187.037 455.83L185.96 454.433Z" fill="white"/>
<path d="M195.768 447.032H160.475L135.32 369.636L131.799 358.798L81.5054 358.579C78.3996 358.533 75.4261 357.095 72.8867 354.968C67.54 350.462 65.0775 343.376 66.0502 336.451L70.4888 304.977L145.204 314.691C152.116 315.589 158.577 318.616 163.689 323.354C168.801 328.091 172.312 334.303 173.732 341.126L195.768 447.032Z" fill="#3335CF"/>
<path d="M142.166 358.798L135.32 369.636L131.799 358.798H142.166Z" fill="#1B1B43"/>
<path d="M132.928 299.276C132.565 300.732 132.187 302.188 131.799 303.653L129.152 314.461L94.2981 313.014L69.2053 311.973C67.6417 311.91 66.1107 311.506 64.7189 310.79C63.3271 310.075 62.108 309.065 61.1462 307.83C60.1844 306.596 59.5031 305.166 59.1497 303.642C58.7963 302.117 58.7793 300.534 59.0999 299.002L70.7967 242.7C71.5296 238.042 73.7823 233.757 77.204 230.513C80.6257 227.268 85.0243 225.246 89.7148 224.761L118.341 221.815L127.603 224.463C136.668 229.32 136.668 238.111 137.093 243.873C138.989 269.092 136.668 284.366 132.928 299.276Z" fill="#544694"/>
<path opacity="0.3" d="M109.298 297.475C108.938 298.931 132.187 302.188 131.799 303.653L129.152 314.461L94.2981 313.014C82.1242 303.829 77.5686 283.846 73.1238 258.802L109.298 297.475Z" fill="#1B1B43"/>
<path d="M102.372 238.102C103.877 239.747 105.635 241.14 107.58 242.229C109.5 243.324 111.613 244.038 113.804 244.332C115.959 244.615 118.243 244.43 120.136 243.408C122.075 242.442 123.306 240.41 123.522 238.206L123.867 238.231C123.856 239.406 123.555 240.559 122.989 241.589C122.397 242.627 121.537 243.487 120.499 244.079C118.427 245.277 115.965 245.495 113.678 245.206C111.384 244.874 109.183 244.076 107.208 242.863C105.237 241.679 103.507 240.135 102.107 238.311L102.372 238.102Z" fill="#1B1B43"/>
<path d="M137.863 272.5L137.204 272.453C137.838 263.576 137.204 252.667 135.296 240.026L135.951 239.927C137.857 252.615 138.515 263.573 137.863 272.5Z" fill="#1B1B43"/>
<path d="M197.092 303.801H164.298V310.271H197.092V303.801Z" fill="#1B1B43"/>
<path d="M253.855 310.271H187.974L218.269 252.329H284.15L253.855 310.271Z" fill="#9192FF"/>
<path d="M109.63 175.493C101.91 167.884 87.3508 171.082 87.5725 183.874C71.6894 188.073 70.7967 205.492 77.2054 214.425L82.7183 214.868L83.9311 208.361L87.1292 214.979L102.572 215.97L109.63 175.493Z" fill="#1B1B43"/>
<path d="M122.534 203.947V228.264C122.534 228.482 122.534 228.695 122.509 228.907C122.415 230.095 122.062 231.247 121.476 232.284C120.889 233.321 120.083 234.217 119.113 234.909C118.143 235.601 117.034 236.072 115.862 236.29C114.691 236.507 113.486 236.466 112.333 236.168C108.787 235.254 105.648 233.18 103.417 230.276C101.186 227.372 99.9903 223.806 100.02 220.144L100.143 203.953L122.534 203.947Z" fill="#FFBC96"/>
<path d="M122.534 214.456V228.258C122.534 228.476 122.534 228.689 122.509 228.901C116.005 227.833 108.488 220.307 106.651 212.11L122.534 214.456Z" fill="#1B1B43"/>
<path d="M135.69 205.747C135.359 207.707 134.897 209.641 134.304 211.537C132.362 217.694 128.878 222.822 122.641 221.929C107.974 219.83 99.8141 204.726 99.8141 204.726L109.846 193.253L116.578 184.201L136.758 192.918C136.765 197.217 136.408 201.509 135.69 205.747V205.747Z" fill="#FFBC96"/>
<path d="M104.151 200.86C110.588 200.653 115.565 197.375 117.695 188.067C117.695 188.067 132.695 200.995 140.045 194.094C146.201 188.307 135.757 174.991 118.468 173.406C112.159 172.856 105.883 174.771 100.956 178.749C92.5744 185.463 91.7741 201.081 99.6048 206.486L104.151 200.86Z" fill="#1B1B43"/>
<path d="M96.6159 184.536C96.1942 183.016 96.5082 181.332 97.1884 179.882C97.889 178.423 98.9234 177.149 100.208 176.164C101.473 175.173 102.947 174.482 104.517 174.142C106.071 173.782 107.697 173.907 109.178 174.499C107.801 174.923 106.462 175.464 105.176 176.115C103.987 176.725 102.859 177.447 101.806 178.269C100.753 179.079 99.7853 179.994 98.9183 181C97.9985 182.072 97.2244 183.261 96.6159 184.536V184.536Z" fill="#544694"/>
<path d="M104.486 207.506C107.059 206.476 108.135 203.121 106.89 200.012C105.646 196.903 102.551 195.217 99.9785 196.247C97.4061 197.277 96.3298 200.632 97.5746 203.741C98.8194 206.851 101.914 208.536 104.486 207.506Z" fill="#FFBC96"/>
<path d="M102.221 205.221C102.373 204.21 102.307 203.178 102.027 202.195C101.664 201.239 101.127 200.358 100.442 199.597L100.657 199.33C101.178 199.595 101.64 199.96 102.018 200.406C102.395 200.851 102.68 201.367 102.857 201.923C103.033 202.48 103.097 203.066 103.045 203.647C102.993 204.229 102.826 204.794 102.554 205.31L102.221 205.221Z" fill="#1B1B43"/>
<path d="M126.323 201.968C126.294 202.256 126.181 202.53 126 202.756C125.818 202.982 125.574 203.151 125.298 203.241C125.023 203.332 124.727 203.34 124.446 203.266C124.166 203.191 123.913 203.037 123.719 202.822C123.524 202.606 123.397 202.339 123.351 202.053C123.305 201.766 123.344 201.472 123.462 201.207C123.58 200.942 123.772 200.717 124.016 200.559C124.259 200.401 124.543 200.318 124.833 200.318C125.249 200.34 125.639 200.526 125.918 200.835C126.198 201.145 126.343 201.552 126.323 201.968V201.968Z" fill="#1B1B43"/>
<path d="M134.147 203.267C134.09 203.518 133.961 203.747 133.776 203.927C133.591 204.107 133.358 204.229 133.105 204.278C132.852 204.328 132.59 204.303 132.35 204.207C132.111 204.11 131.905 203.947 131.757 203.736C131.609 203.525 131.525 203.275 131.516 203.017C131.507 202.76 131.573 202.505 131.706 202.284C131.838 202.063 132.032 201.885 132.264 201.772C132.496 201.659 132.756 201.616 133.012 201.648C133.377 201.712 133.701 201.919 133.914 202.222C134.127 202.526 134.211 202.901 134.147 203.267V203.267Z" fill="#1B1B43"/>
<path d="M126.249 197.828C126.308 198.6 125.076 198.671 123.257 198.726C121.438 198.782 120.179 199.342 120.179 198.856C120.179 198.369 121.509 197.117 123.3 196.812C125.141 196.501 126.178 196.91 126.249 197.828Z" fill="#1B1B43"/>
<path d="M132.051 198.569C131.916 199.33 132.824 199.527 134.166 199.761C135.508 199.994 136.376 200.684 136.444 200.198C136.511 199.711 135.659 198.351 134.363 197.858C133.067 197.366 132.211 197.667 132.051 198.569Z" fill="#1B1B43"/>
<path d="M129.896 204.636C130.245 205.046 130.62 205.434 131.017 205.797L131.611 206.351C131.847 206.557 132.055 206.794 132.227 207.056C132.338 207.232 132.402 207.433 132.414 207.64C132.424 207.855 132.374 208.068 132.27 208.256C132.091 208.547 131.847 208.792 131.559 208.973C131.054 209.28 130.493 209.483 129.909 209.57L129.78 209.263C130.237 208.992 130.676 208.692 131.094 208.364C131.26 208.227 131.399 208.06 131.503 207.871C131.574 207.724 131.552 207.674 131.472 207.502C131.275 207.194 130.777 206.751 130.447 206.308C130.075 205.859 129.782 205.35 129.583 204.802L129.896 204.636Z" fill="#1B1B43"/>
<path d="M122.423 210.069C123.325 211.097 124.27 212.049 125.393 212.652C126.543 213.259 127.854 213.49 129.142 213.314L129.235 213.646C128.566 213.948 127.834 214.086 127.102 214.049C126.355 214.011 125.627 213.8 124.975 213.434C123.713 212.707 122.716 211.596 122.13 210.263L122.423 210.069Z" fill="#1B1B43"/>
<path opacity="0.2" d="M117.132 209.133C119.143 209.133 120.773 207.503 120.773 205.492C120.773 203.481 119.143 201.851 117.132 201.851C115.12 201.851 113.49 203.481 113.49 205.492C113.49 207.503 115.12 209.133 117.132 209.133Z" fill="#FE5B52"/>
<path opacity="0.2" d="M135.69 205.748C135.36 207.707 134.897 209.641 134.304 211.537C133.919 211.1 133.644 210.575 133.503 210.009C133.362 209.443 133.36 208.851 133.495 208.283C133.631 207.716 133.901 207.189 134.283 206.748C134.665 206.307 135.147 205.963 135.69 205.748V205.748Z" fill="#FE5B52"/>
<path d="M94.1535 248.801L73.1238 258.799L79.7202 274.436L101.769 264.266L94.1535 248.801Z" fill="#544694"/>
<path d="M172.048 303.022C171.467 302.714 171.1 302.533 171.1 302.533L171.313 302.12C171.313 302.12 171.7 302.305 172.264 302.61L172.048 303.022Z" fill="#C5C5FF"/>
<path d="M180.769 305.195C180.088 306.537 174.883 304.164 172.458 302.973C174.335 304.013 177.574 306.051 176.151 307.181C174.997 308.073 172.436 306.177 164.054 302.699C165.326 303.315 172.818 306.864 170.928 308.215C168.872 309.68 160.05 306.451 160.05 306.451L152.401 310.56H143.56L111.813 310.764C109.827 310.77 107.849 310.521 105.927 310.022C102.132 309.03 98.6059 307.203 95.6063 304.675C93.7209 303.091 92.0718 301.245 90.7091 299.193C89.6801 297.639 88.802 295.989 88.0865 294.268L79.7233 274.439L101.772 264.266L113.275 287.619L151.216 295.862L161.804 293.215C164.082 292.64 167.302 293.603 169.306 294.828C174.188 297.82 181.403 303.918 180.769 305.195Z" fill="#FFBC96"/>
<path opacity="0.2" d="M106.503 306.741C106.505 307.86 106.31 308.97 105.927 310.022C102.132 309.03 98.6058 307.203 95.6063 304.675C93.7208 303.091 92.0717 301.245 90.709 299.193C92.1345 298.046 93.8551 297.326 95.6724 297.114C97.4896 296.903 99.3297 297.209 100.98 297.998C102.631 298.787 104.025 300.026 105.002 301.573C105.98 303.12 106.5 304.911 106.503 306.741V306.741Z" fill="#FE5B52"/>
<path d="M151.157 295.696C153.78 294.808 156.452 294.075 159.16 293.499C160.525 293.2 161.91 293.003 163.303 292.908C164.013 292.865 164.724 292.883 165.43 292.963C165.784 293.034 166.138 293.126 166.492 293.209C166.846 293.292 167.157 293.465 167.49 293.591C170.072 294.764 172.319 296.435 174.495 298.156C176.672 299.876 178.722 301.751 180.716 303.696L180.809 303.786L180.827 303.896C180.91 304.307 180.835 304.733 180.618 305.091C180.495 305.256 180.341 305.396 180.164 305.502C179.987 305.608 179.791 305.677 179.587 305.706C178.921 305.789 178.245 305.723 177.607 305.512C176.423 305.141 175.276 304.66 174.181 304.075C173.101 303.496 172.027 302.896 171.005 302.25C169.983 301.603 168.958 300.932 167.927 300.27L168.395 299.525C170.203 300.582 171.95 301.74 173.627 302.995C174.496 303.626 175.291 304.356 175.994 305.168C176.185 305.403 176.339 305.666 176.453 305.946C176.522 306.117 176.558 306.298 176.558 306.482C176.552 306.706 176.473 306.922 176.333 307.098C176.097 307.358 175.783 307.533 175.437 307.596C175.158 307.662 174.874 307.703 174.588 307.719H174.502L174.406 307.679L164.83 303.678L165.116 303.007C166.641 303.677 168.113 304.46 169.521 305.349C170.204 305.839 170.922 306.273 171.426 307.122C171.498 307.249 171.542 307.39 171.555 307.536C171.569 307.681 171.551 307.828 171.503 307.966C171.394 308.224 171.192 308.433 170.937 308.551C170.525 308.749 170.074 308.854 169.617 308.858C167.902 308.898 166.289 308.498 164.692 308.101C163.094 307.704 161.53 307.178 159.979 306.621L160.096 306.297C161.635 306.814 163.217 307.273 164.805 307.652C166.394 308.03 168.013 308.354 169.586 308.267C170.337 308.237 171.233 307.907 170.866 307.412C170.522 306.833 169.814 306.344 169.161 305.906C167.781 305.054 166.341 304.303 164.852 303.659L165.138 302.988L174.751 306.916L174.569 306.885C174.801 306.869 175.032 306.835 175.259 306.784C175.427 306.757 175.585 306.683 175.711 306.568C175.844 306.516 175.665 306.042 175.363 305.685C174.7 304.931 173.954 304.256 173.138 303.672C171.483 302.445 169.76 301.315 167.976 300.286L168.441 299.541C169.456 300.19 170.441 300.892 171.476 301.508C172.51 302.123 173.535 302.739 174.588 303.315C175.627 303.879 176.717 304.344 177.844 304.703C178.357 304.877 178.9 304.941 179.439 304.891L179.611 304.86C179.656 304.84 179.699 304.817 179.74 304.792C179.842 304.764 179.873 304.684 179.941 304.632C180.033 304.462 180.066 304.266 180.036 304.075L180.147 304.278C178.195 302.354 176.145 300.507 174.021 298.762C171.897 297.017 169.681 295.355 167.234 294.21L166.311 293.84C166.003 293.763 165.677 293.674 165.356 293.603C164.691 293.521 164.019 293.497 163.35 293.529C161.983 293.596 160.623 293.76 159.28 294.022C156.576 294.535 153.904 295.204 151.277 296.026L151.157 295.696Z" fill="#D28572"/>
<path d="M79.8525 274.737L79.5754 274.137L101.332 264.099L92.2696 242.891L92.8791 242.633L102.193 264.432L79.8525 274.737Z" fill="#1B1B43"/>
<path d="M82.9645 367.623H81.8102V467.033H82.9645V367.623Z" fill="#1B1B43"/>
<path d="M110.181 358.357H54.5965C50.8191 358.357 47.757 361.419 47.757 365.195C47.757 368.972 50.8191 372.034 54.5965 372.034H110.181C113.959 372.034 117.021 368.972 117.021 365.195C117.021 361.419 113.959 358.357 110.181 358.357Z" fill="#D1D1FF"/>
<path d="M69.2884 462.093H95.4893C98.216 462.093 100.831 463.176 102.759 465.104C104.687 467.032 105.77 469.647 105.77 472.374V473.504H59.0044V472.374C59.0044 471.024 59.2704 469.686 59.7873 468.439C60.3041 467.191 61.0617 466.058 62.0167 465.103C62.9717 464.148 64.1054 463.391 65.3531 462.875C66.6008 462.358 67.938 462.093 69.2884 462.093Z" fill="#D1D1FF"/>
<path d="M149.647 316.327L148.671 316.943L247.206 473.112L248.183 472.496L149.647 316.327Z" fill="#1B1B43"/>
<path d="M247.209 316.341L148.646 472.493L149.622 473.109L248.185 316.957L247.209 316.341Z" fill="#1B1B43"/>
<path d="M284.738 310.271H112.093V323.292H284.738V310.271Z" fill="#D1D1FF"/>
<path d="M126.566 102.689C119.43 102.689 112.455 100.573 106.522 96.6089C100.589 92.6445 95.9645 87.0098 93.2338 80.4173C90.5031 73.8248 89.7886 66.5706 91.1807 59.572C92.5728 52.5735 96.0089 46.1449 101.055 41.0992C106.1 36.0535 112.529 32.6173 119.527 31.2252C126.526 29.8331 133.78 30.5476 140.373 33.2783C146.965 36.009 152.6 40.6333 156.564 46.5664C160.529 52.4995 162.645 59.4749 162.645 66.6106C162.633 76.1757 158.828 85.3459 152.065 92.1094C145.301 98.873 136.131 102.678 126.566 102.689V102.689ZM126.566 31.3015C119.583 31.3015 112.756 33.3724 106.949 37.2522C101.143 41.132 96.6172 46.6465 93.9447 53.0984C91.2723 59.5503 90.573 66.6498 91.9354 73.4991C93.2978 80.3484 96.6607 86.6398 101.599 91.5779C106.537 96.516 112.828 99.8788 119.678 101.241C126.527 102.604 133.626 101.904 140.078 99.2319C146.53 96.5595 152.045 92.0338 155.924 86.2273C159.804 80.4207 161.875 73.5941 161.875 66.6106C161.864 57.2493 158.141 48.2745 151.522 41.655C144.902 35.0356 135.927 31.3121 126.566 31.3015V31.3015Z" fill="#9192FF"/>
<path d="M150.963 91.728C172.643 91.728 190.218 74.1528 190.218 52.4727C190.218 30.7927 172.643 13.2175 150.963 13.2175C129.283 13.2175 111.708 30.7927 111.708 52.4727C111.708 74.1528 129.283 91.728 150.963 91.728Z" fill="#EBEBFF"/>
<path d="M150.978 53.2176L129.213 36.1556L129.927 35.2476L150.951 51.7278L162.672 41.8009L163.417 42.6812L150.978 53.2176Z" fill="#1B1B43"/>
<path d="M49.0929 137.13H29.159C27.6185 137.13 26.1411 137.742 25.0518 138.831C23.9625 139.921 23.3506 141.398 23.3506 142.939V162.872C23.3506 164.413 23.9625 165.89 25.0518 166.98C26.1411 168.069 27.6185 168.681 29.159 168.681H43.383L49.5146 177.146V168.659C50.9776 168.554 52.3466 167.899 53.3461 166.825C54.3455 165.752 54.9012 164.339 54.9013 162.872V142.939C54.9013 141.398 54.2893 139.921 53.2 138.831C52.1108 137.742 50.6334 137.13 49.0929 137.13V137.13Z" fill="white"/>
<path d="M49.8993 178.334L43.189 169.066H29.159C27.517 169.064 25.9426 168.411 24.7816 167.25C23.6205 166.089 22.9675 164.514 22.9658 162.872V142.939C22.9675 141.296 23.6205 139.722 24.7816 138.561C25.9426 137.4 27.517 136.747 29.159 136.745H49.0929C50.7347 136.748 52.3085 137.401 53.4694 138.562C54.6303 139.723 55.2836 141.297 55.286 142.939V162.872C55.2807 164.373 54.7323 165.821 53.7421 166.949C52.7518 168.077 51.3868 168.808 49.8993 169.007V178.334ZM29.159 137.515C27.7211 137.517 26.3425 138.088 25.3257 139.105C24.3089 140.122 23.737 141.501 23.7353 142.939V162.872C23.7362 164.311 24.3078 165.69 25.3248 166.707C26.3418 167.724 27.7208 168.295 29.159 168.296H43.58L49.1206 175.961V168.302L49.4776 168.278C50.8422 168.175 52.1179 167.561 53.0501 166.559C53.9823 165.557 54.5026 164.241 54.5073 162.872V142.939C54.5048 141.501 53.9326 140.123 52.916 139.106C51.8994 138.09 50.5213 137.517 49.0836 137.515H29.159Z" fill="#9192FF"/>
<path d="M38.7165 163.165L30.738 151.64L32.6342 150.326L38.5072 158.806L47.3506 142.982L49.3668 144.108L38.7165 163.165Z" fill="#9192FF"/>
<path d="M488.46 472.349H15.526V473.504H488.46V472.349Z" fill="#1B1B43"/>
</g>
<defs>
<clipPath id="clip0_348_638">
<rect width="500" height="473.504" fill="white"/>
</clipPath>
</defs>
</svg>
