<svg width="867" height="500" viewBox="0 0 867 500" fill="none" xmlns="http://www.w3.org/2000/svg">
<g clip-path="url(#clip0_349_732)">
<path d="M32.2109 495.601H848.53C848.53 495.601 941.151 195.646 711.018 100.128C480.884 4.6096 420.993 170.428 232.227 193.643C43.4611 216.859 -55.297 318.076 32.2109 495.601Z" fill="#F7F7F7"/>
<path d="M520.36 60.3128H509.654C508.169 52.2003 504.978 44.4957 500.293 37.7085L507.866 30.136C508.094 29.9089 508.275 29.6391 508.398 29.3419C508.522 29.0447 508.585 28.726 508.585 28.4042C508.585 28.0824 508.522 27.7637 508.398 27.4665C508.275 27.1693 508.094 26.8995 507.866 26.6724L496.127 14.9342C495.9 14.7061 495.631 14.5251 495.333 14.4015C495.036 14.278 494.717 14.2145 494.396 14.2145C494.074 14.2145 493.755 14.278 493.458 14.4015C493.161 14.5251 492.891 14.7061 492.664 14.9342L485.091 22.5067C478.304 17.8214 470.599 14.6307 462.487 13.1457V2.44022C462.487 2.1195 462.424 1.80193 462.301 1.50566C462.178 1.2094 461.998 0.940249 461.771 0.713612C461.544 0.486976 461.275 0.307296 460.978 0.184848C460.682 0.062401 460.364 -0.0004118 460.044 2.03159e-06H443.444C443.123 -0.0004118 442.805 0.062401 442.509 0.184848C442.213 0.307296 441.943 0.486976 441.716 0.713612C441.489 0.940249 441.309 1.2094 441.186 1.50566C441.064 1.80193 441 2.1195 441 2.44022V13.1457C432.888 14.6298 425.183 17.8206 418.396 22.5067L410.82 14.9342C410.594 14.7053 410.324 14.5236 410.027 14.3996C409.73 14.2757 409.411 14.2118 409.089 14.2118C408.767 14.2118 408.448 14.2757 408.15 14.3996C407.853 14.5236 407.583 14.7053 407.357 14.9342L395.615 26.6724C395.387 26.8995 395.206 27.1693 395.083 27.4665C394.959 27.7637 394.896 28.0824 394.896 28.4042C394.896 28.726 394.959 29.0447 395.083 29.3419C395.206 29.6391 395.387 29.9089 395.615 30.136L403.191 37.7085C398.504 44.4948 395.313 52.1999 393.83 60.3128H383.125C382.477 60.3137 381.857 60.5715 381.399 61.0296C380.941 61.4877 380.684 62.1087 380.684 62.7562V79.3466C380.684 79.9938 380.942 80.6144 381.399 81.0721C381.857 81.5297 382.477 81.7868 383.125 81.7868H393.83C395.313 89.8999 398.504 97.6051 403.191 104.391L395.615 111.967C395.387 112.193 395.205 112.463 395.081 112.76C394.957 113.058 394.893 113.377 394.893 113.699C394.893 114.021 394.957 114.34 395.081 114.637C395.205 114.934 395.387 115.204 395.615 115.43L407.357 127.172C407.583 127.401 407.853 127.582 408.15 127.706C408.448 127.83 408.767 127.894 409.089 127.894C409.411 127.894 409.73 127.83 410.027 127.706C410.324 127.582 410.594 127.401 410.82 127.172L418.396 119.596C425.182 124.283 432.887 127.474 441 128.957V139.663C441 139.983 441.064 140.301 441.186 140.597C441.309 140.893 441.489 141.163 441.716 141.389C441.943 141.616 442.213 141.795 442.509 141.918C442.805 142.04 443.123 142.103 443.444 142.103H460.044C460.364 142.103 460.682 142.04 460.978 141.918C461.275 141.795 461.544 141.616 461.771 141.389C461.998 141.163 462.178 140.893 462.301 140.597C462.424 140.301 462.487 139.983 462.487 139.663V128.957C470.6 127.474 478.305 124.283 485.091 119.596L492.664 127.172C492.891 127.4 493.161 127.581 493.458 127.704C493.755 127.828 494.074 127.891 494.396 127.891C494.717 127.891 495.036 127.828 495.333 127.704C495.631 127.581 495.9 127.4 496.127 127.172L507.866 115.43C508.095 115.204 508.276 114.934 508.4 114.637C508.524 114.34 508.588 114.021 508.588 113.699C508.588 113.377 508.524 113.058 508.4 112.76C508.276 112.463 508.095 112.193 507.866 111.967L500.293 104.391C504.979 97.6044 508.17 89.8995 509.654 81.7868H520.36C521.007 81.7868 521.627 81.5297 522.085 81.0721C522.543 80.6144 522.8 79.9938 522.8 79.3466V62.7562C522.8 62.1087 522.543 61.4877 522.085 61.0296C521.628 60.5715 521.007 60.3137 520.36 60.3128V60.3128ZM451.744 97.7821C446.455 97.7821 441.286 96.2139 436.889 93.2758C432.491 90.3377 429.064 86.1617 427.041 81.2759C425.017 76.3901 424.487 71.0139 425.519 65.8271C426.551 60.6403 429.097 55.876 432.837 52.1365C436.576 48.3971 441.341 45.8505 446.527 44.8188C451.714 43.787 457.09 44.3166 461.976 46.3403C466.862 48.3641 471.038 51.7913 473.976 56.1884C476.914 60.5855 478.482 65.7551 478.482 71.0435C478.484 74.5559 477.794 78.0343 476.451 81.2798C475.108 84.5253 473.138 87.4744 470.655 89.9587C468.172 92.4429 465.224 94.4136 461.979 95.7581C458.734 97.1026 455.256 97.7946 451.744 97.7946V97.7821Z" fill="#D1D1D1"/>
<path d="M451.744 110.355C443.971 110.355 436.373 108.05 429.91 103.732C423.448 99.4136 418.411 93.276 415.436 86.0951C412.462 78.9142 411.684 71.0126 413.2 63.3894C414.716 55.7662 418.459 48.7639 423.955 43.2679C429.451 37.7719 436.454 34.029 444.077 32.5127C451.7 30.9964 459.602 31.7746 466.783 34.749C473.963 37.7234 480.101 42.7604 484.419 49.2231C488.737 55.6857 491.042 63.2837 491.042 71.0562C491.026 81.474 486.881 91.4605 479.514 98.827C472.148 106.194 462.161 110.339 451.744 110.355V110.355ZM451.744 33.5933C444.333 33.5933 437.089 35.7908 430.927 39.908C424.765 44.0251 419.962 49.877 417.127 56.7236C414.291 63.5702 413.549 71.1041 414.994 78.3724C416.44 85.6407 420.009 92.3171 425.249 97.5572C430.489 102.797 437.165 106.366 444.434 107.812C451.702 109.258 459.236 108.515 466.082 105.68C472.929 102.844 478.781 98.0411 482.898 91.8793C487.015 85.7175 489.213 78.4732 489.213 71.0625C489.203 61.1281 485.252 51.6035 478.227 44.5788C471.203 37.5541 461.678 33.6033 451.744 33.5933V33.5933Z" fill="white"/>
<path d="M606.218 133.878H598.837C597.816 128.289 595.618 122.98 592.389 118.305L597.619 113.085C597.775 112.928 597.899 112.743 597.984 112.539C598.069 112.334 598.113 112.116 598.113 111.894C598.113 111.673 598.069 111.454 597.984 111.25C597.899 111.046 597.775 110.86 597.619 110.704L589.53 102.618C589.374 102.462 589.189 102.338 588.985 102.253C588.781 102.169 588.562 102.125 588.341 102.125C588.12 102.125 587.902 102.169 587.698 102.253C587.494 102.338 587.308 102.462 587.153 102.618L581.932 107.836C577.253 104.605 571.94 102.407 566.346 101.387V94.0037C566.346 93.5577 566.169 93.1301 565.854 92.8147C565.538 92.4994 565.111 92.3223 564.665 92.3223H553.222C552.776 92.3223 552.349 92.4994 552.033 92.8147C551.718 93.1301 551.541 93.5577 551.541 94.0037V101.387C545.952 102.409 540.643 104.607 535.968 107.836L530.75 102.618C530.594 102.462 530.409 102.338 530.204 102.253C530 102.168 529.781 102.125 529.56 102.125C529.339 102.125 529.12 102.168 528.916 102.253C528.712 102.338 528.526 102.462 528.37 102.618L520.281 110.704C519.966 111.02 519.79 111.448 519.79 111.894C519.79 112.34 519.966 112.768 520.281 113.085L525.514 118.305C522.284 122.98 520.085 128.289 519.062 133.878H511.66C511.214 133.878 510.786 134.056 510.471 134.371C510.156 134.686 509.979 135.114 509.979 135.56V146.999C509.979 147.445 510.156 147.873 510.471 148.188C510.786 148.503 511.214 148.68 511.66 148.68H519.04C520.07 154.272 522.277 159.58 525.514 164.254L520.294 169.471C519.979 169.787 519.802 170.215 519.802 170.661C519.802 171.107 519.979 171.535 520.294 171.851L528.383 179.94C528.699 180.255 529.127 180.432 529.573 180.432C530.019 180.432 530.447 180.255 530.763 179.94L535.98 174.72C540.656 177.95 545.964 180.149 551.554 181.172V188.552C551.554 188.998 551.731 189.426 552.046 189.741C552.361 190.056 552.789 190.233 553.235 190.233H564.674C565.12 190.233 565.548 190.056 565.863 189.741C566.178 189.426 566.356 188.998 566.356 188.552V181.172C571.945 180.149 577.254 177.95 581.929 174.72L587.149 179.94C587.465 180.255 587.893 180.431 588.338 180.431C588.784 180.431 589.211 180.255 589.527 179.94L597.619 171.851C597.775 171.695 597.899 171.51 597.984 171.306C598.069 171.101 598.113 170.882 598.113 170.661C598.113 170.44 598.069 170.221 597.984 170.017C597.899 169.813 597.775 169.627 597.619 169.471L592.401 164.254C595.63 159.578 597.828 154.27 598.85 148.68H606.23C606.451 148.681 606.67 148.638 606.875 148.553C607.079 148.469 607.265 148.345 607.421 148.189C607.578 148.033 607.702 147.847 607.787 147.643C607.871 147.439 607.915 147.22 607.915 146.999V135.56C607.915 135.338 607.871 135.118 607.785 134.913C607.7 134.708 607.575 134.522 607.417 134.365C607.259 134.209 607.072 134.085 606.866 134.002C606.66 133.918 606.44 133.876 606.218 133.878V133.878ZM558.947 159.698C555.303 159.698 551.741 158.618 548.711 156.594C545.681 154.57 543.319 151.693 541.924 148.327C540.529 144.961 540.164 141.256 540.874 137.683C541.585 134.109 543.339 130.826 545.916 128.249C548.492 125.672 551.774 123.917 555.348 123.206C558.922 122.495 562.626 122.86 565.993 124.254C569.36 125.648 572.237 128.009 574.261 131.039C576.286 134.069 577.366 137.631 577.366 141.275C577.366 146.161 575.426 150.846 571.972 154.302C568.518 157.757 563.833 159.699 558.947 159.701V159.698Z" fill="#E8E8E8"/>
<path d="M558.947 168.353C553.591 168.353 548.355 166.765 543.902 163.79C539.449 160.814 535.979 156.585 533.929 151.637C531.88 146.689 531.343 141.245 532.388 135.992C533.433 130.739 536.012 125.914 539.799 122.127C543.586 118.34 548.411 115.761 553.664 114.716C558.916 113.672 564.361 114.208 569.309 116.257C574.257 118.307 578.486 121.778 581.462 126.231C584.437 130.684 586.025 135.919 586.025 141.275C586.019 148.454 583.163 155.338 578.087 160.415C573.01 165.492 566.126 168.347 558.947 168.353V168.353ZM558.947 115.456C553.84 115.456 548.848 116.97 544.602 119.807C540.356 122.644 537.047 126.676 535.093 131.394C533.138 136.112 532.627 141.303 533.623 146.312C534.62 151.32 537.079 155.921 540.69 159.532C544.3 163.142 548.901 165.601 553.909 166.598C558.918 167.594 564.109 167.083 568.827 165.128C573.545 163.174 577.577 159.865 580.414 155.619C583.251 151.373 584.766 146.381 584.766 141.275C584.757 134.431 582.034 127.87 577.193 123.031C572.353 118.193 565.79 115.473 558.947 115.468V115.456Z" fill="white"/>
<path d="M161.146 34.8464H70.9113C67.9203 34.8464 65.4956 37.2711 65.4956 40.2622V86.9066C65.4956 89.8976 67.9203 92.3223 70.9113 92.3223H161.146C164.137 92.3223 166.562 89.8976 166.562 86.9066V40.2622C166.562 37.2711 164.137 34.8464 161.146 34.8464Z" fill="#E8E8E8"/>
<path d="M157.95 44.8655H74.1072C73.2482 44.8655 72.5518 45.5619 72.5518 46.4209V50.722C72.5518 51.5811 73.2482 52.2775 74.1072 52.2775H157.95C158.809 52.2775 159.506 51.5811 159.506 50.722V46.4209C159.506 45.5619 158.809 44.8655 157.95 44.8655Z" fill="#D1D1D1"/>
<path d="M157.95 59.8784H74.1072C73.2482 59.8784 72.5518 60.5748 72.5518 61.4339V65.735C72.5518 66.594 73.2482 67.2904 74.1072 67.2904H157.95C158.809 67.2904 159.506 66.594 159.506 65.735V61.4339C159.506 60.5748 158.809 59.8784 157.95 59.8784Z" fill="#F7F7F7"/>
<path d="M119.379 74.8911H73.7073C73.0691 74.8911 72.5518 75.4085 72.5518 76.0467V81.1475C72.5518 81.7857 73.0691 82.3031 73.7073 82.3031H119.379C120.017 82.3031 120.534 81.7857 120.534 81.1475V76.0467C120.534 75.4085 120.017 74.8911 119.379 74.8911Z" fill="#F7F7F7"/>
<path d="M711.576 58.1401H655.494C652.973 58.1401 650.929 60.1842 650.929 62.7057V128.009C650.929 130.531 652.973 132.575 655.494 132.575H711.576C714.097 132.575 716.141 130.531 716.141 128.009V62.7057C716.141 60.1842 714.097 58.1401 711.576 58.1401Z" fill="#E8E8E8"/>
<path d="M671.943 64.3779H660.497C659.969 64.3779 659.54 64.8065 659.54 65.3351V76.7806C659.54 77.3092 659.969 77.7378 660.497 77.7378H671.943C672.472 77.7378 672.9 77.3092 672.9 76.7806V65.3351C672.9 64.8065 672.472 64.3779 671.943 64.3779Z" fill="white"/>
<path d="M689.258 64.3779H677.812C677.283 64.3779 676.855 64.8065 676.855 65.3351V76.7806C676.855 77.3092 677.283 77.7378 677.812 77.7378H689.258C689.786 77.7378 690.215 77.3092 690.215 76.7806V65.3351C690.215 64.8065 689.786 64.3779 689.258 64.3779Z" fill="white"/>
<path d="M706.572 64.3779H695.127C694.598 64.3779 694.169 64.8065 694.169 65.3351V76.7806C694.169 77.3092 694.598 77.7378 695.127 77.7378H706.572C707.101 77.7378 707.529 77.3092 707.529 76.7806V65.3351C707.529 64.8065 707.101 64.3779 706.572 64.3779Z" fill="white"/>
<path d="M704.988 89.4224H662.075C661.403 89.4224 660.758 89.1554 660.283 88.68C659.807 88.2047 659.54 87.56 659.54 86.8877V86.8877C659.54 86.5549 659.606 86.2253 659.733 85.9178C659.861 85.6102 660.047 85.3308 660.283 85.0955C660.518 84.8601 660.797 84.6734 661.105 84.546C661.413 84.4186 661.742 84.3531 662.075 84.3531H704.988C705.322 84.351 705.652 84.4151 705.961 84.5418C706.269 84.6684 706.549 84.855 706.785 85.0908C707.021 85.3266 707.207 85.6068 707.334 85.9153C707.461 86.2238 707.525 86.5543 707.523 86.8877C707.525 87.2212 707.461 87.5517 707.334 87.8602C707.207 88.1687 707.021 88.4489 706.785 88.6847C706.549 88.9205 706.269 89.1071 705.961 89.2337C705.652 89.3604 705.322 89.4245 704.988 89.4224Z" fill="#D1D1D1"/>
<path d="M704.988 98.3835H662.075C661.406 98.3827 660.764 98.1175 660.289 97.6458C659.814 97.174 659.545 96.5338 659.54 95.8646V95.8646C659.54 95.1923 659.807 94.5476 660.283 94.0723C660.758 93.5969 661.403 93.3299 662.075 93.3299H704.988C705.322 93.3278 705.652 93.3919 705.961 93.5186C706.269 93.6452 706.549 93.8318 706.785 94.0676C707.021 94.3034 707.207 94.5836 707.334 94.8921C707.461 95.2006 707.525 95.5311 707.523 95.8646C707.519 96.5341 707.25 97.1747 706.775 97.6467C706.3 98.1186 705.658 98.3835 704.988 98.3835V98.3835Z" fill="#D1D1D1"/>
<path d="M704.988 107.345H662.075C661.403 107.344 660.759 107.076 660.284 106.601C659.808 106.126 659.541 105.482 659.54 104.81V104.81C659.54 104.138 659.807 103.493 660.283 103.018C660.758 102.542 661.403 102.275 662.075 102.275H704.988C705.322 102.273 705.652 102.337 705.961 102.464C706.269 102.591 706.549 102.777 706.785 103.013C707.021 103.249 707.207 103.529 707.334 103.837C707.461 104.146 707.525 104.476 707.523 104.81C707.523 105.143 707.457 105.472 707.33 105.78C707.202 106.087 707.016 106.367 706.78 106.602C706.545 106.838 706.266 107.024 705.958 107.152C705.651 107.279 705.321 107.345 704.988 107.345V107.345Z" fill="#D1D1D1"/>
<path d="M704.988 116.303H662.075C661.403 116.303 660.758 116.035 660.283 115.56C659.807 115.085 659.54 114.44 659.54 113.768V113.768C659.541 113.096 659.808 112.452 660.284 111.976C660.759 111.501 661.403 111.234 662.075 111.233H704.988C705.321 111.233 705.651 111.299 705.958 111.426C706.266 111.553 706.545 111.74 706.78 111.976C707.016 112.211 707.202 112.49 707.33 112.798C707.457 113.105 707.523 113.435 707.523 113.768V113.768C707.525 114.101 707.461 114.432 707.334 114.74C707.207 115.049 707.021 115.329 706.785 115.565C706.549 115.801 706.269 115.987 705.961 116.114C705.652 116.24 705.322 116.305 704.988 116.303Z" fill="#D1D1D1"/>
<path d="M704.988 125.264H662.075C661.403 125.264 660.758 124.997 660.283 124.521C659.807 124.046 659.54 123.401 659.54 122.729V122.729C659.544 122.059 659.813 121.419 660.288 120.947C660.763 120.475 661.405 120.21 662.075 120.21H704.988C705.32 120.208 705.649 120.272 705.957 120.397C706.264 120.523 706.544 120.708 706.779 120.942C707.015 121.176 707.202 121.455 707.33 121.761C707.457 122.068 707.523 122.397 707.523 122.729V122.729C707.525 123.062 707.461 123.393 707.334 123.701C707.207 124.01 707.021 124.29 706.785 124.526C706.549 124.762 706.269 124.948 705.961 125.075C705.652 125.202 705.322 125.266 704.988 125.264V125.264Z" fill="#D1D1D1"/>
<path d="M626.939 350.573H385.133C384.151 350.573 383.354 351.37 383.354 352.352V357.96C383.354 358.943 384.151 359.739 385.133 359.739H626.939C627.921 359.739 628.718 358.943 628.718 357.96V352.352C628.718 351.37 627.921 350.573 626.939 350.573Z" fill="#544693"/>
<path d="M398.925 495.589H394.271L423.362 359.739H428.018L398.925 495.589Z" fill="#463B7C"/>
<path d="M613.148 495.589H617.805L588.711 359.739H584.057L613.148 495.589Z" fill="#463B7C"/>
<path d="M663.618 294.266L611.69 457.367L641.552 462.247L693.338 331.436C693.338 331.436 717.98 321.498 717.013 294.281L663.618 294.266Z" fill="#373660"/>
<path d="M615.09 471.615L611.712 476.489L589.948 484.131C586.255 485.428 583.081 488.596 581.948 492.122H628.671L632.635 471.656L615.09 471.615Z" fill="#4F5285"/>
<path d="M609.089 477.411L609.64 480.598C609.763 481.3 609.181 482.15 608.362 482.462C607.616 482.748 606.936 482.484 606.788 481.854L606.057 478.472L609.089 477.411Z" fill="#373660"/>
<path d="M603.774 479.285L604.325 482.471C604.448 483.174 603.865 484.024 603.047 484.335C602.301 484.622 601.62 484.357 601.472 483.731L600.742 480.346L603.774 479.285Z" fill="#373660"/>
<path d="M597.77 481.391L598.321 484.578C598.444 485.28 597.861 486.127 597.042 486.442C596.296 486.728 595.616 486.464 595.468 485.834L594.738 482.452L597.77 481.391Z" fill="#373660"/>
<path d="M628.671 492.122L627.556 495.589H580.833L581.948 492.122H628.671Z" fill="#373660"/>
<path d="M632.635 471.652L636.319 461.381L618.255 458.431L615.09 471.615L632.635 471.652Z" fill="#FFD1C1"/>
<path d="M613.815 457.707L636.319 467.868L640.201 455.068L613.815 457.707Z" fill="#FFB2A0"/>
<path d="M708.036 310.154L732.212 442.867L705.943 451.3L670.929 324.66L708.036 310.154Z" fill="#373660"/>
<path d="M713.95 460.201L712.728 466.004L695.637 481.492C692.737 484.121 691.043 488.271 691.364 491.961L734.426 473.828L730.134 453.425L713.95 460.201Z" fill="#4F5285"/>
<path d="M710.656 467.871L712.404 470.595C712.785 471.193 712.58 472.201 711.947 472.799C711.371 473.353 710.64 473.372 710.272 472.846L708.285 470.012L710.656 467.871Z" fill="#373660"/>
<path d="M706.5 471.671L708.244 474.395C708.628 474.993 708.421 476.004 707.788 476.599C707.211 477.153 706.484 477.172 706.112 476.646L704.125 473.813L706.5 471.671Z" fill="#373660"/>
<path d="M701.783 475.928L703.528 478.655C703.912 479.253 703.704 480.261 703.071 480.859C702.495 481.41 701.768 481.432 701.399 480.906L699.409 478.073L701.783 475.928Z" fill="#373660"/>
<path d="M734.425 473.828L734.743 477.459L691.682 495.589L691.364 491.961L734.425 473.828Z" fill="#373660"/>
<path d="M730.134 453.425L729.608 443.705L711.276 449.587L713.949 460.201L730.134 453.425Z" fill="#FFD1C1"/>
<path d="M706.1 450.893L732.59 450.415L730.02 439.52L706.1 450.893Z" fill="#FFB2A0"/>
<path d="M680.709 360.618C680.628 360.616 680.547 360.599 680.473 360.567C680.331 360.504 680.22 360.388 680.164 360.243C680.107 360.099 680.111 359.938 680.173 359.796L692.875 331.004L693.067 330.91C693.187 330.853 705.004 324.984 709.056 318.199C709.136 318.066 709.265 317.97 709.415 317.932C709.564 317.894 709.723 317.918 709.856 317.997C709.989 318.076 710.085 318.205 710.123 318.355C710.16 318.505 710.137 318.664 710.058 318.797C706.071 325.475 695.397 331.045 693.773 331.864L681.244 360.268C681.198 360.372 681.123 360.46 681.028 360.522C680.933 360.584 680.822 360.617 680.709 360.618V360.618Z" fill="#4F5285"/>
<path d="M669.528 249.454C666.722 251.862 599.763 257.221 599.763 257.221C599.763 257.221 591.45 263.834 590.046 261.755C589.029 260.263 588.393 259.917 586.951 256.573C586.513 255.549 585.591 252.017 585.751 250.905C586.356 246.708 589.215 245.937 589.215 245.937C591.29 245.083 598.758 245.754 598.758 245.754L660.066 230.442L669.528 249.454Z" fill="#FFD1C1"/>
<path d="M622.178 255.301C622.584 255.263 645.311 245.518 645.311 245.518C645.311 245.518 646.498 235.058 650.592 230.455L657.456 229.283L656.662 257.048C656.662 257.048 622.54 257.823 622.178 255.301" fill="#FFB2A0"/>
<path d="M592.895 253.053C591.135 251.239 589.451 249.356 587.769 247.47C585.364 248.128 583.676 250.496 583.327 252.964C582.977 255.433 583.79 257.952 585.055 260.102C585.833 261.425 586.841 262.694 588.245 263.311C589.885 264.035 591.803 263.755 593.5 263.179C595.587 262.464 597.507 261.331 599.142 259.851C599.675 259.366 600.26 258.641 600.169 257.87C600.087 257.196 599.413 257.225 598.884 257.105C597.354 256.755 596.006 255.877 594.826 254.879C594.152 254.303 593.508 253.693 592.895 253.053V253.053Z" fill="#FFB2A0"/>
<path d="M673.407 162.39C673.407 162.39 666.259 161.568 662.642 168.47C660.198 173.136 664.588 182.793 667.179 189.273C669.068 193.996 674.204 196.657 679.1 195.287C679.448 195.191 679.79 195.072 680.123 194.931L673.407 162.39Z" fill="#373660"/>
<path d="M687.564 180.485C689.047 180.765 690.574 179.245 690.98 177.094C691.386 174.944 690.511 172.969 689.031 172.686C688.14 172.516 687.236 173.001 686.566 173.879C685.067 167.676 681.213 163.265 676.707 163.265C670.891 163.265 666.178 170.598 666.178 179.638C666.178 188.678 670.901 196.011 676.707 196.011V208.197L690.146 208.241L688.093 197.019C687.524 193.909 687.238 190.754 687.239 187.592V180.391C687.344 180.433 687.453 180.465 687.564 180.485V180.485Z" fill="#FFD1C1"/>
<path d="M680.86 163.271C680.86 163.271 682.161 173.429 676.707 177.491C672.249 180.813 664.582 179.037 664.582 179.037C664.582 179.037 668.716 163.259 672.098 162.245C675.479 161.231 680.86 163.271 680.86 163.271Z" fill="#FFB2A0"/>
<path d="M669.682 189.006C669.682 189.006 672.132 189.73 674.881 186.288C674.881 186.288 675.085 190.696 672.774 190.904C670.463 191.112 669.682 189.006 669.682 189.006Z" fill="white"/>
<path d="M676.707 196.03C676.707 196.03 680.91 195.4 683.536 189.815C683.536 189.815 682.683 197.611 676.707 198.105V196.03Z" fill="#FFB2A0"/>
<path d="M672.34 164.748C672.34 164.748 670.485 176.209 686.565 173.879C686.565 173.879 688.899 171.25 690.567 173.879C692.236 176.508 689.849 180.438 687.239 180.369C687.239 180.369 686.581 193.017 688.351 198.429C689.483 195.138 691.034 192.007 692.967 189.113C697.413 182.374 697.463 173.555 692.699 167.037C690.423 163.886 687.22 161.525 683.536 160.283C668.999 155.312 672.34 164.748 672.34 164.748Z" fill="#373660"/>
<path d="M718.663 294.266L707.193 220.511C706.169 215.228 703.255 210.5 698.995 207.213C694.735 203.926 689.422 202.305 684.053 202.655V202.655C681.05 202.849 678.117 203.655 675.437 205.023C672.756 206.391 670.383 208.293 668.464 210.612L668.439 210.643C667.967 211.216 667.523 211.813 667.107 212.435L655.325 228.279C652.53 232.036 651.042 236.605 651.088 241.288C651.134 245.971 652.712 250.509 655.58 254.211L666.008 259.589L663.618 294.272L718.663 294.266Z" fill="#544693"/>
<path d="M690.883 226.194C690.883 226.194 688.993 263.015 674.308 270.219L661.499 273.954L660.431 260.345L690.883 226.194" fill="#463B7C"/>
<path d="M706.563 169.666C708.883 170.208 711.043 171.289 712.868 172.821C714.694 174.352 716.133 176.292 717.07 178.482C718.49 181.892 718.594 185.69 718.543 189.38C718.408 199.194 717.356 209.349 720.807 218.537C719.013 218.735 717.212 218.323 715.455 217.907C710.133 216.613 704.242 214.686 701.796 209.783C700.067 206.32 700.536 202.183 701.519 198.448C702.501 194.714 703.994 191.055 704.211 187.195C704.428 183.335 703.03 179.056 699.636 177.207C698.276 176.467 691.963 175.101 694.189 172.484C695.029 171.496 696.594 170.856 697.775 170.394C699.088 169.877 700.465 169.543 701.868 169.402C703.437 169.236 705.023 169.325 706.563 169.666V169.666Z" fill="#373660"/>
<path d="M695.149 171.65L696.181 176.143C696.181 176.143 696.994 177.579 698.76 176.842C698.76 176.842 697.63 170.948 697.394 170.545C697.158 170.142 695.13 170.431 695.149 171.65Z" fill="#FFC967"/>
<path d="M600.396 284.269L600.191 284.332C599.972 284.398 599.742 284.421 599.513 284.398C599.285 284.376 599.064 284.308 598.862 284.2C598.66 284.092 598.481 283.945 598.336 283.768C598.191 283.59 598.082 283.386 598.015 283.167L582.527 232.007C582.461 231.788 582.438 231.557 582.461 231.329C582.483 231.101 582.551 230.88 582.659 230.678C582.767 230.476 582.914 230.297 583.091 230.152C583.268 230.006 583.473 229.898 583.692 229.831L583.9 229.768C584.119 229.702 584.35 229.679 584.578 229.702C584.806 229.724 585.027 229.792 585.229 229.9C585.431 230.008 585.61 230.155 585.755 230.332C585.901 230.51 586.009 230.714 586.076 230.933L601.561 282.093C601.627 282.312 601.65 282.543 601.627 282.771C601.605 282.999 601.537 283.22 601.429 283.422C601.321 283.624 601.174 283.803 600.997 283.948C600.819 284.094 600.615 284.202 600.396 284.269Z" fill="#373660"/>
<path d="M683.124 215.848C682.518 215.652 681.898 215.503 681.269 215.401C674.758 214.33 668.404 218.084 665.942 224.217L656.776 247.026L603.195 266.189C603.195 266.189 595.676 264.86 593.689 265.909C593.689 265.909 590.109 267.253 590.78 273.078C590.78 273.078 591.97 277.376 593.566 279.294C595.162 281.211 605.26 276.12 605.26 276.12C605.26 276.12 645.623 272.461 668.502 265.6C670.542 264.64 672.392 263.318 673.961 261.699V261.699C674.515 261.125 675.023 260.509 675.482 259.857C676.48 258.431 689.604 231.752 689.604 231.752C690.361 230.303 690.793 228.707 690.87 227.074C690.947 225.441 690.668 223.811 690.051 222.298C689.434 220.784 688.495 219.423 687.299 218.309C686.102 217.195 684.678 216.355 683.124 215.848Z" fill="#FFD1C1"/>
<path d="M632.128 273.573C644.213 272.735 664.925 270.859 670.718 267.568C679.05 262.845 692.636 234.611 692.636 234.611C692.636 234.611 705.546 218.537 687.998 220.102C687.998 220.102 674.906 255.849 670.929 259.46C666.952 263.072 623.189 274.121 623.189 274.121C623.189 274.121 626.832 273.935 632.128 273.573Z" fill="#FFB2A0"/>
<path d="M477.418 177.05C477.418 177.05 482.771 159.773 484.323 160.097C485.875 160.422 483.914 168.977 486.033 168.57C488.152 168.164 491.332 151.215 492.554 152.197C493.775 153.18 501.03 162.468 499.972 167.686C498.914 172.903 485.671 183.385 485.671 183.385L477.418 177.05Z" fill="#FFD1C1"/>
<path d="M346.354 161.864C346.354 161.864 356.625 146.974 355.41 145.96C354.195 144.946 348.684 151.769 347.693 149.852C346.701 147.934 358.061 134.958 356.537 134.599C355.013 134.24 343.221 134.285 339.777 138.346C336.332 142.408 336.279 159.291 336.279 159.291L346.354 161.864Z" fill="#FFD1C1"/>
<path d="M367.189 137.355C360.262 138.759 356.402 148.639 358.584 159.427L360.505 168.917C361.268 172.686 361.69 176.517 361.764 180.362L362.025 194.239L378.033 190.945L375.096 176.417C382.023 175.013 385.88 165.132 383.698 154.345C381.516 143.557 374.123 135.953 367.189 137.355Z" fill="#FFD1C1"/>
<path d="M382.299 170.085C382.299 170.085 375.637 173.492 373.896 171.678L375.092 176.401C375.092 176.401 381.881 175.507 382.299 170.069" fill="#FFB2A0"/>
<path d="M411.085 273.61L394.274 463.734H353.382L374.765 295.579L344.745 463.734H300.5L347.85 273.61H411.085Z" fill="#373660"/>
<path d="M320.4 464.067C320.324 464.069 320.25 464.043 320.192 463.995C320.122 463.941 320.077 463.861 320.066 463.774C320.055 463.687 320.079 463.599 320.132 463.529C321.807 460.919 350.284 335.535 365.111 269.571C365.136 269.49 365.191 269.422 365.265 269.38C365.338 269.338 365.424 269.325 365.507 269.343C365.589 269.362 365.661 269.411 365.709 269.48C365.757 269.55 365.778 269.635 365.766 269.719C364.006 277.546 322.651 461.419 320.664 463.929C320.633 463.97 320.594 464.004 320.548 464.028C320.502 464.052 320.451 464.066 320.4 464.067V464.067Z" fill="#4F5285"/>
<path d="M377.545 464.067H377.526C377.482 464.065 377.438 464.053 377.398 464.033C377.358 464.013 377.322 463.986 377.293 463.952C377.264 463.918 377.241 463.879 377.227 463.837C377.213 463.795 377.208 463.75 377.211 463.705L392.955 267.892C392.956 267.847 392.966 267.801 392.985 267.76C393.004 267.718 393.032 267.681 393.066 267.65C393.1 267.62 393.14 267.596 393.183 267.582C393.227 267.567 393.273 267.561 393.318 267.565C393.364 267.568 393.408 267.581 393.449 267.603C393.489 267.624 393.525 267.654 393.554 267.689C393.582 267.725 393.604 267.766 393.616 267.81C393.628 267.854 393.631 267.9 393.625 267.946L377.882 463.759C377.875 463.843 377.836 463.922 377.774 463.979C377.711 464.036 377.63 464.068 377.545 464.067V464.067Z" fill="#4F5285"/>
<path d="M387.602 463.734L386.742 470.173L411.082 480.343C415.213 482.068 417.518 486.284 416.891 490.976H354.724L358.351 463.734H387.602Z" fill="#4F5285"/>
<path d="M375.505 479.049C375.124 481.905 372.501 484.222 369.642 484.222C366.783 484.222 364.78 481.905 365.161 479.049C365.377 477.637 366.082 476.346 367.153 475.401C368.224 474.456 369.593 473.917 371.021 473.879C373.877 473.876 375.886 476.193 375.505 479.049Z" fill="#373660"/>
<path d="M389.69 471.397L387.026 475.639C386.44 476.583 386.711 477.701 387.599 478.12C388.037 478.292 388.522 478.305 388.968 478.157C389.415 478.01 389.796 477.71 390.045 477.311L393.068 472.808L389.69 471.397Z" fill="#373660"/>
<path d="M395.628 473.891L392.964 478.132C392.379 479.077 392.649 480.195 393.537 480.613C393.975 480.786 394.46 480.799 394.907 480.651C395.354 480.503 395.735 480.204 395.984 479.804L399.006 475.302L395.628 473.891Z" fill="#373660"/>
<path d="M402.344 476.709L399.68 480.95C399.095 481.895 399.365 483.013 400.253 483.432C400.692 483.604 401.176 483.617 401.623 483.469C402.07 483.321 402.451 483.022 402.7 482.622L405.723 478.12L402.344 476.709Z" fill="#373660"/>
<path d="M354.724 490.976L354.11 495.589H416.29L416.904 490.976H354.724Z" fill="#373660"/>
<path d="M310.33 463.734L309.474 470.173L282.427 480.343C277.833 482.068 274.407 486.284 273.784 490.976H335.964L339.591 463.734H310.33Z" fill="#4F5285"/>
<path d="M326.849 482.533C329.079 480.447 329.406 477.173 327.579 475.222C325.753 473.27 322.465 473.379 320.235 475.466C318.006 477.552 317.679 480.826 319.505 482.777C321.331 484.729 324.619 484.62 326.849 482.533Z" fill="#373660"/>
<path d="M306.215 471.397L307.745 475.639C308.085 476.583 307.522 477.701 306.511 478.12C305.591 478.501 304.622 478.148 304.282 477.311L302.458 472.808L306.215 471.397Z" fill="#373660"/>
<path d="M299.612 473.891L301.142 478.132C301.482 479.077 300.919 480.195 299.908 480.614C298.989 480.995 298.019 480.642 297.679 479.804L295.856 475.302L299.612 473.891Z" fill="#373660"/>
<path d="M292.147 476.709L293.68 480.95C294.017 481.895 293.456 483.013 292.446 483.432C291.526 483.813 290.557 483.46 290.217 482.622L288.393 478.12L292.147 476.709Z" fill="#373660"/>
<path d="M335.964 490.976L335.35 495.589H273.17L273.784 490.976H335.964Z" fill="#373660"/>
<path d="M473.787 171.848L439.426 218.25L439.328 218.383L409.482 194.1C400.625 186.896 389.825 182.888 379.255 182.888H351.603C350.548 182.888 349.5 182.929 348.454 183.01L354.894 161.332L333.772 155.444L305.969 220.02C304.754 222.846 304.18 225.906 304.289 228.981C304.398 232.055 305.187 235.068 306.599 237.801C307.987 240.486 309.943 242.838 312.331 244.691C314.719 246.545 317.482 247.856 320.428 248.534V248.534C322.949 249.11 325.579 248.977 328.029 248.151C330.479 247.324 332.652 245.835 334.307 243.849L337.141 240.439L338.483 279.288H419.312L409.296 238.421L418.251 246.23L418.216 246.277L420.704 248.371L423.1 250.461L423.132 250.417L424.794 251.818C427.107 253.766 429.816 255.187 432.733 255.982C435.65 256.777 438.706 256.927 441.687 256.422V256.422C444.722 255.908 447.605 254.727 450.129 252.964C452.653 251.201 454.754 248.9 456.281 246.226L491.193 185.193L473.787 171.848Z" fill="#544693"/>
<path d="M348.47 183.01C348.47 183.01 331.411 185.432 322.434 196.821L307.131 217.359L319.335 189.021C319.335 189.021 330.705 176.206 348.47 183.01Z" fill="#463B7C"/>
<path d="M409.306 238.408L393.071 223.694C393.071 223.694 389.989 246.68 419.322 279.275L409.306 238.408Z" fill="#463B7C"/>
<path d="M377.026 141.083C377.026 141.083 381.459 151.898 380.108 155.444C380.108 155.444 377.822 151.48 375.363 153.835C372.904 156.19 376.185 159.88 379.456 159.981C379.456 159.981 372.032 170.535 371.134 170.945C370.237 171.354 361.112 172.481 361.112 172.481C361.112 172.481 347.491 155.68 349.235 146.662C350.98 137.644 359.887 130.576 369.519 130.27C379.151 129.965 389.598 137.197 389.598 137.197C389.598 137.197 385.14 142.569 377.026 141.083Z" fill="#373660"/>
<path d="M337.16 240.439L336.278 220.835C336.278 220.835 327.349 248.859 320.441 248.544C320.437 248.534 330.201 252.319 337.16 240.439Z" fill="#463B7C"/>
<path d="M519.856 321.952H494.786V347.022H519.856V321.952Z" fill="#373660"/>
<path d="M519.856 326.637H494.786V330.768H519.856V326.637Z" fill="#4F5285"/>
<path d="M562.706 317.793V262.086C562.706 257.202 558.746 253.242 553.861 253.242H460.777C455.893 253.242 451.933 257.202 451.933 262.086V317.793C451.933 322.677 455.893 326.637 460.777 326.637H553.861C558.746 326.637 562.706 322.677 562.706 317.793Z" fill="#373660"/>
<path d="M553.862 256.457H460.78C457.671 256.457 455.151 258.977 455.151 262.086V317.793C455.151 320.902 457.671 323.422 460.78 323.422H553.862C556.971 323.422 559.491 320.902 559.491 317.793V262.086C559.491 258.977 556.971 256.457 553.862 256.457Z" fill="white"/>
<path d="M491.508 345.608H521.553C522.722 345.608 523.843 346.072 524.67 346.899C525.497 347.726 525.961 348.847 525.961 350.016V350.684H487.1V350.016C487.1 348.847 487.565 347.726 488.391 346.899C489.218 346.072 490.339 345.608 491.508 345.608V345.608Z" fill="#4F5285"/>
<path d="M486.889 269.87H477.314V310.009H486.889V269.87Z" fill="#544693"/>
<path d="M503.703 280.638H494.128V310.009H503.703V280.638Z" fill="#E8E8E8"/>
<path d="M520.517 285.5H510.942V310.009H520.517V285.5Z" fill="#E8E8E8"/>
<path d="M537.331 297.081H527.756V310.009H537.331V297.081Z" fill="#E8E8E8"/>
<path d="M570.023 340.189C572.44 340.189 574.758 341.149 576.467 342.858C578.176 344.567 579.136 346.884 579.136 349.301V350.699H560.911V349.301C560.911 348.105 561.147 346.92 561.605 345.814C562.063 344.709 562.734 343.704 563.58 342.858C564.426 342.012 565.431 341.341 566.536 340.883C567.642 340.425 568.827 340.189 570.023 340.189V340.189Z" fill="#373660"/>
<path d="M211.503 243.563L239.945 165.183L249.321 171.197C249.321 171.197 248.27 243.679 237.586 249.633C227.104 255.474 211.503 243.563 211.503 243.563Z" fill="#FFD1C1"/>
<path d="M241.028 248.292C248.185 240.867 252.971 230.379 252.971 230.379C221.087 227.74 217.057 227.429 217.057 227.429L207.696 238.396C207.696 238.396 211.644 249.769 222.854 254.526C229.538 257.363 235.892 253.616 241.028 248.292Z" fill="#FFB2A0"/>
<path d="M174.638 133.157C167.78 134.546 163.97 144.316 166.137 154.984L168.026 164.367C168.026 164.405 168.026 164.443 168.048 164.48C169.143 170.059 169.28 175.783 168.454 181.408L167.654 186.994H185.772L182.437 171.785C189.295 170.397 193.105 160.626 190.939 149.959C188.773 139.291 181.493 131.772 174.638 133.157Z" fill="#FFD1C1"/>
<path d="M173.974 146.662C173.974 146.662 182.195 149.99 193.067 148.772C193.067 148.772 192.179 140.116 187.085 136.013C187.085 136.013 172.33 137.455 171.996 138.453C171.663 139.452 173.974 146.662 173.974 146.662Z" fill="#FFB2A0"/>
<path d="M182.45 171.785C182.45 171.785 178.845 171.757 176.581 169.49C176.581 169.49 177.16 174.506 183.133 174.896L182.45 171.785Z" fill="#FFB2A0"/>
<path d="M209.824 247.911L222.854 212.932L190.832 186.675C190.671 186.537 190.517 186.405 190.34 186.272L190.089 186.065C186.338 183.135 181.715 181.546 176.955 181.549H175.633C164.635 181.549 156.832 188.379 153.939 200.618L143.101 249.06L152.796 250.634C152.615 252.349 152.366 254.055 152.049 255.751L145.944 288.22H213.795L206.103 245.115L209.824 247.911Z" fill="#544693"/>
<path d="M206.087 245.115L197.356 205.747L220.47 230.423L212.835 246.976L206.087 245.115Z" fill="#463B7C"/>
<path d="M152.796 250.634L180.164 254.457L183.883 218.603C183.883 218.603 187.749 275.279 186.036 277.19C181.049 282.751 146.637 285.846 146.637 285.846L152.796 250.634Z" fill="#463B7C"/>
<path d="M239.945 165.183C239.945 165.183 238.096 146.536 239.101 145.677C240.105 144.817 241.828 155.567 244.139 155.438C246.45 155.308 251.025 136.501 252.747 136.788C254.47 137.074 261.504 146.835 261.217 150.28C260.931 153.725 249.334 171.206 249.334 171.206C249.334 171.206 240.105 166.88 239.945 165.183Z" fill="#FFD1C1"/>
<path d="M252.735 136.778C252.735 136.778 248.374 160.809 245.729 159.994C243.084 159.178 239.117 145.677 239.117 145.677C239.117 145.677 243.32 153.712 244.312 152.808C245.304 151.905 249.397 135.654 252.75 136.778" fill="#FFB2A0"/>
<path d="M247.965 231.191C245.886 231.084 147.692 249.646 147.692 249.646C147.692 249.646 148.665 268.469 157.217 272.65C167.806 277.833 230.483 248.27 230.483 248.27V248.112L242.032 242.731C242.032 242.731 250.534 244.35 254.092 242.873C257.65 241.396 263.302 236.151 263.302 236.151C263.302 236.151 250.046 231.298 247.965 231.191Z" fill="#FFD1C1"/>
<path d="M178.303 243.884C178.303 243.884 153.089 263.591 147.131 263.295C141.174 262.999 144.524 248.314 144.524 248.314C144.524 248.314 176.751 244.177 178.306 243.884" fill="#FFB2A0"/>
<path d="M167.598 162.497C168.57 159.814 169.486 157.112 170.347 154.392C170.347 154.392 166.461 150.484 168.974 147.392C171.486 144.3 173.728 149.94 173.426 150.906C173.426 150.906 176.82 142.72 180.151 141.029C183.483 139.338 181.959 147.012 189.812 145.812C197.664 144.612 197.353 131.41 197.353 131.41C197.353 131.41 178.883 126.196 168.139 128.466C157.396 130.736 163.687 135.635 163.687 135.635C163.687 135.635 154.666 138.242 154.666 143.243C154.666 148.243 167.598 162.497 167.598 162.497Z" fill="#373660"/>
<path d="M138.375 455.988L135.922 461.46L153.869 479.883C155.359 481.412 156.355 483.353 156.727 485.454C157.1 487.556 156.833 489.721 155.96 491.669V491.669L103.132 467.991L113.507 444.845L138.375 455.988Z" fill="#4F5285"/>
<path d="M123.989 465.166C123.599 466.035 122.961 466.769 122.154 467.275C121.347 467.781 120.409 468.036 119.457 468.009C118.506 467.981 117.583 467.672 116.807 467.121C116.031 466.569 115.436 465.8 115.097 464.91C114.758 464.021 114.69 463.05 114.903 462.122C115.115 461.194 115.598 460.35 116.29 459.696C116.982 459.042 117.853 458.609 118.792 458.45C119.73 458.291 120.695 458.414 121.564 458.803C122.729 459.326 123.639 460.29 124.093 461.483C124.548 462.676 124.51 464.001 123.989 465.166V465.166Z" fill="#373660"/>
<path d="M138.085 463.68L134.688 466.483C134.511 466.629 134.365 466.81 134.26 467.014C134.154 467.218 134.092 467.442 134.075 467.671C134.059 467.9 134.089 468.131 134.164 468.348C134.239 468.565 134.357 468.765 134.511 468.935V468.935C134.799 469.251 135.194 469.447 135.619 469.485C136.044 469.523 136.468 469.4 136.807 469.14L140.585 466.237L138.085 463.68Z" fill="#373660"/>
<path d="M142.465 468.186L139.068 470.991C138.89 471.137 138.744 471.318 138.639 471.522C138.533 471.726 138.47 471.949 138.454 472.178C138.437 472.407 138.467 472.637 138.543 472.854C138.618 473.072 138.736 473.271 138.891 473.441V473.441C139.177 473.757 139.572 473.954 139.997 473.992C140.422 474.03 140.846 473.906 141.183 473.646L144.962 470.742L142.465 468.186Z" fill="#373660"/>
<path d="M147.421 473.265L144.024 476.08C143.846 476.226 143.7 476.406 143.594 476.611C143.489 476.815 143.426 477.039 143.409 477.268C143.393 477.498 143.423 477.728 143.498 477.945C143.574 478.163 143.692 478.362 143.847 478.532V478.532C144.134 478.848 144.529 479.045 144.953 479.083C145.378 479.12 145.802 478.997 146.139 478.737L149.918 475.834L147.421 473.265Z" fill="#373660"/>
<path d="M103.144 467.953L101.386 471.875L154.215 495.551L155.973 491.629L103.144 467.953Z" fill="#373660"/>
<path d="M208.682 288.22H149.801L140.721 368.049C139.685 377.028 137.138 385.768 133.189 393.899L108.028 445.632L146.155 459.64L170.003 400.36C171.658 396.251 172.64 391.901 172.91 387.479L180.214 310.459L178.618 465.909H216.692L208.682 288.22Z" fill="#373660"/>
<path d="M210.489 465.903V471.886L234.419 481.354C236.403 482.14 238.105 483.504 239.305 485.269C240.505 487.034 241.147 489.119 241.147 491.253H183.253V465.891L210.489 465.903Z" fill="#4F5285"/>
<path d="M200.98 481.223C201.587 478.634 199.98 476.043 197.391 475.437C194.803 474.83 192.212 476.437 191.606 479.026C190.999 481.614 192.606 484.205 195.194 484.811C197.783 485.418 200.374 483.811 200.98 481.223Z" fill="#373660"/>
<path d="M213.37 473.038L211.418 476.989C211.316 477.195 211.256 477.42 211.243 477.649C211.23 477.878 211.264 478.108 211.343 478.324C211.421 478.54 211.543 478.737 211.701 478.905C211.858 479.072 212.048 479.206 212.259 479.297C212.65 479.469 213.091 479.487 213.495 479.348C213.899 479.208 214.236 478.922 214.437 478.545L216.692 474.354L213.37 473.038Z" fill="#373660"/>
<path d="M219.208 475.362L217.256 479.31C217.154 479.516 217.095 479.741 217.082 479.97C217.07 480.2 217.104 480.429 217.183 480.645C217.262 480.861 217.384 481.058 217.541 481.226C217.699 481.393 217.889 481.526 218.099 481.618V481.618C218.49 481.789 218.93 481.807 219.334 481.669C219.737 481.53 220.073 481.244 220.275 480.869L222.529 476.675L219.208 475.362Z" fill="#373660"/>
<path d="M225.81 477.969L223.871 481.92C223.769 482.126 223.711 482.351 223.699 482.58C223.686 482.81 223.721 483.039 223.8 483.255C223.878 483.47 224 483.668 224.157 483.835C224.315 484.002 224.504 484.136 224.715 484.228V484.228C225.105 484.4 225.547 484.418 225.95 484.278C226.353 484.139 226.689 483.852 226.89 483.476L229.145 479.285L225.81 477.969Z" fill="#373660"/>
<path d="M241.138 491.266H183.247V495.564H241.138V491.266Z" fill="#373660"/>
<path d="M343.363 31.7859H215.961C213.525 31.7859 211.55 33.7609 211.55 36.1972V109.41C211.55 111.846 213.525 113.821 215.961 113.821H343.363C345.799 113.821 347.774 111.846 347.774 109.41V36.1972C347.774 33.7609 345.799 31.7859 343.363 31.7859Z" fill="#E8E8E8"/>
<path d="M205.174 114.149C206.541 109.71 208.384 105.431 210.668 101.387C214.107 95.2945 218.653 89.6679 224.617 86.0091C230.581 82.3504 238.093 80.8579 244.731 83.0683C249.454 84.6426 253.396 87.9046 257.621 90.5495C261.847 93.1944 266.863 95.3071 271.718 94.1799C276.003 93.1849 279.316 89.8725 282.272 86.6231C287.509 80.861 292.474 74.7526 298.693 70.0705C304.911 65.3885 312.707 62.1988 320.419 63.2914C327.632 64.3211 333.81 68.9055 339.197 73.8049C344.652 78.7669 349.655 84.204 354.147 90.052V130.563H206.474L205.174 114.149Z" fill="#544693"/>
<path d="M352.919 28.1082H205.495V49.283H352.919V28.1082Z" fill="#373660"/>
<path d="M226.346 39.1411C226.346 39.7522 226.166 40.3497 225.827 40.858C225.488 41.3664 225.005 41.7628 224.441 41.9971C223.877 42.2314 223.256 42.293 222.656 42.1741C222.057 42.0553 221.506 41.7614 221.074 41.3295C220.641 40.8977 220.347 40.3473 220.228 39.748C220.108 39.1488 220.169 38.5275 220.403 37.9629C220.636 37.3983 221.032 36.9157 221.54 36.5762C222.048 36.2367 222.646 36.0554 223.257 36.0554C224.075 36.0554 224.861 36.3804 225.44 36.959C226.019 37.5376 226.345 38.3224 226.346 39.1411Z" fill="#544693"/>
<path d="M238.449 39.1411C238.45 39.7522 238.269 40.3497 237.93 40.858C237.591 41.3664 237.109 41.7628 236.544 41.9971C235.98 42.2314 235.359 42.293 234.76 42.1741C234.16 42.0553 233.609 41.7614 233.177 41.3295C232.745 40.8977 232.45 40.3473 232.331 39.748C232.212 39.1488 232.272 38.5275 232.506 37.9629C232.74 37.3983 233.136 36.9157 233.644 36.5762C234.152 36.2367 234.749 36.0554 235.36 36.0554C236.179 36.0554 236.964 36.3804 237.543 36.959C238.122 37.5376 238.448 38.3224 238.449 39.1411Z" fill="white"/>
<path d="M250.549 39.1411C250.55 39.7523 250.369 40.35 250.03 40.8584C249.691 41.3668 249.209 41.7632 248.644 41.9974C248.08 42.2316 247.458 42.293 246.859 42.1739C246.259 42.0549 245.709 41.7606 245.277 41.3284C244.844 40.8963 244.55 40.3456 244.431 39.7461C244.312 39.1466 244.373 38.5253 244.608 37.9608C244.842 37.3962 245.238 36.9138 245.747 36.5747C246.255 36.2355 246.853 36.0548 247.464 36.0554C248.282 36.0563 249.066 36.3816 249.645 36.9601C250.223 37.5386 250.549 38.323 250.549 39.1411V39.1411Z" fill="white"/>
<path d="M802.676 422.322C803.469 395.76 792.446 362.438 792.446 362.438C777.776 383.338 776.073 401.295 778.891 414.986C773.019 407.281 765.666 400.621 757.102 398.968C757.102 398.968 762.206 436.466 777.915 443.831H810.428C840.268 434.448 835.195 380.892 835.195 380.892C810.696 398.817 807.597 406.286 802.676 422.322Z" fill="#E8E8E8"/>
<path d="M767.921 438.321C767.921 438.321 780.176 441.986 782.15 431.982C782.15 431.982 787.081 438.884 793.982 437.76C800.884 436.636 802.015 429.574 802.015 429.574C802.015 429.574 806.946 441.268 823.851 438.17C823.851 438.17 810.186 447.326 804.128 447.615C798.069 447.905 778.485 447.332 777.641 447.052C776.797 446.772 767.921 438.321 767.921 438.321Z" fill="#B5B5B5"/>
<path d="M760.559 443.831H829.172L813.743 495.589H773.957L760.559 443.831Z" fill="#D1D1D1"/>
<path d="M761.926 477.216C761.926 477.216 808.787 462.902 829.172 437.316H836.121L818.212 500.009H766.073L761.926 477.216Z" fill="#B5B5B5"/>
<path d="M136.479 103.661H69.9825C67.5044 103.661 65.4956 105.669 65.4956 108.148V143.847C65.4956 146.325 67.5044 148.334 69.9825 148.334H136.479C138.957 148.334 140.966 146.325 140.966 143.847V108.148C140.966 105.669 138.957 103.661 136.479 103.661Z" fill="#E8E8E8"/>
<path d="M103.453 112.153H73.0871C72.6245 112.153 72.2495 112.528 72.2495 112.99V116.488C72.2495 116.951 72.6245 117.326 73.0871 117.326H103.453C103.915 117.326 104.29 116.951 104.29 116.488V112.99C104.29 112.528 103.915 112.153 103.453 112.153Z" fill="#D1D1D1"/>
<path d="M103.453 127.861H73.0871C72.6245 127.861 72.2495 128.236 72.2495 128.699V132.197C72.2495 132.66 72.6245 133.035 73.0871 133.035H103.453C103.915 133.035 104.29 132.66 104.29 132.197V128.699C104.29 128.236 103.915 127.861 103.453 127.861Z" fill="#F7F7F7"/>
<path d="M134.836 127.861H107.996C107.562 127.861 107.209 128.214 107.209 128.648V132.247C107.209 132.682 107.562 133.035 107.996 133.035H134.836C135.27 133.035 135.623 132.682 135.623 132.247V128.648C135.623 128.214 135.27 127.861 134.836 127.861Z" fill="#F7F7F7"/>
<path d="M121.425 112.153H107.779C107.464 112.153 107.209 112.408 107.209 112.722V116.756C107.209 117.071 107.464 117.326 107.779 117.326H121.425C121.74 117.326 121.995 117.071 121.995 116.756V112.722C121.995 112.408 121.74 112.153 121.425 112.153Z" fill="#F7F7F7"/>
<path d="M88.4589 119.952H72.8572C72.5216 119.952 72.2495 120.224 72.2495 120.56V124.517C72.2495 124.853 72.5216 125.125 72.8572 125.125H88.4589C88.7945 125.125 89.0666 124.853 89.0666 124.517V120.56C89.0666 120.224 88.7945 119.952 88.4589 119.952Z" fill="#F7F7F7"/>
<path d="M121.192 119.952H93.163C92.7178 119.952 92.3569 120.313 92.3569 120.758V124.319C92.3569 124.764 92.7178 125.125 93.163 125.125H121.192C121.638 125.125 121.999 124.764 121.999 124.319V120.758C121.999 120.313 121.638 119.952 121.192 119.952Z" fill="#F7F7F7"/>
<path d="M135.125 119.952H124.867C124.592 119.952 124.37 120.175 124.37 120.449V124.628C124.37 124.902 124.592 125.125 124.867 125.125H135.125C135.4 125.125 135.623 124.902 135.623 124.628V120.449C135.623 120.175 135.4 119.952 135.125 119.952Z" fill="#F7F7F7"/>
<path d="M135.125 112.153H124.867C124.592 112.153 124.37 112.375 124.37 112.65V116.828C124.37 117.103 124.592 117.326 124.867 117.326H135.125C135.4 117.326 135.623 117.103 135.623 116.828V112.65C135.623 112.375 135.4 112.153 135.125 112.153Z" fill="#F7F7F7"/>
<path d="M104.07 140.944H114.111C114.382 140.944 114.602 140.724 114.602 140.453V136.262C114.602 135.991 114.382 135.771 114.111 135.771H104.07C103.799 135.771 103.579 135.991 103.579 136.262V140.453C103.579 140.724 103.799 140.944 104.07 140.944Z" fill="#D1D1D1"/>
<path d="M117.698 140.944H127.739C128.01 140.944 128.23 140.724 128.23 140.453V136.262C128.23 135.991 128.01 135.771 127.739 135.771H117.698C117.426 135.771 117.206 135.991 117.206 136.262V140.453C117.206 140.724 117.426 140.944 117.698 140.944Z" fill="#D1D1D1"/>
<path d="M131.974 140.944H134.48C135.111 140.944 135.623 140.432 135.623 139.801V136.914C135.623 136.283 135.111 135.771 134.48 135.771H131.974C131.342 135.771 130.831 136.283 130.831 136.914V139.801C130.831 140.432 131.342 140.944 131.974 140.944Z" fill="#D1D1D1"/>
<path d="M86.4438 140.944H100.09C100.405 140.944 100.66 140.689 100.66 140.374V136.341C100.66 136.026 100.405 135.771 100.09 135.771H86.4438C86.129 135.771 85.8738 136.026 85.8738 136.341V140.374C85.8738 140.689 86.129 140.944 86.4438 140.944Z" fill="#F7F7F7"/>
<path d="M72.7471 140.944H83.0054C83.2802 140.944 83.5029 140.721 83.5029 140.447V136.268C83.5029 135.994 83.2802 135.771 83.0054 135.771H72.7471C72.4723 135.771 72.2496 135.994 72.2496 136.268V140.447C72.2496 140.721 72.4723 140.944 72.7471 140.944Z" fill="#F7F7F7"/>
</g>
<defs>
<clipPath id="clip0_349_732">
<rect width="866.953" height="500" fill="white"/>
</clipPath>
</defs>
</svg>
