<svg xmlns="http://www.w3.org/2000/svg" viewBox="0 0 90.8 90.52"><defs><style>.cls-1{fill:#8b71ff;}</style></defs><g id="Capa_2" data-name="Capa 2"><g id="Layer_1" data-name="Layer 1"><path class="cls-1" d="M83.85,4.76C78.78,0,74-1.33,67.47,1.37,61.71,3.75,57.21,9,52.67,13.1c-6.84,6.23-13.43,12.73-19.9,19.34Q23.39,42,14.36,51.91c-2.68,3-5.71,5.86-8,9.13a1.28,1.28,0,0,0-.24.34,1.29,1.29,0,0,0-.2.41c-1.6,3.22-2.26,7.15-3,10.58A121.06,121.06,0,0,0,0,89.05c-.1,1.07,1,1.58,1.89,1.45,8.78-1.37,17.44-3.32,26.18-4.86,3.56-.63,5.1-3.08,7.59-5.66q6.27-6.47,12.48-13c7.72-8,15.44-16.11,23.29-24,6.46-6.54,15.61-13.64,18.69-22.64C92.41,13.68,88.5,9.1,83.85,4.76ZM74.57,35.87C71,32.9,68.25,29.44,65,26c-3.4-3.59-7-6.95-10.68-10.28l2-1.85q10.14,10,20,20.23Zm-8,7.81C60.17,36.5,52.76,30.34,45.56,24l1.78-1.71c7.65,5.6,14.14,13,20.81,19.7l-.77.76ZM27.79,72.42h0c-2.86.17-5.71.17-8.57.26-.1-2.18-.09-5.65-.88-7.67,5.15-5.05,9.58-10.56,14.5-15.82C38.37,43.26,44.24,37.61,50,31.86c3,2.61,5.92,5.25,8.75,8C48.68,51,38.47,61.93,27.79,72.42Zm24.9-55.15,1.59,1.45a44.65,44.65,0,0,1-3.38,3.5c-.63-.51-1.28-1-1.92-1.47C50.21,19.59,51.45,18.42,52.69,17.27ZM60,30.52a35,35,0,0,0,3.31-3l.11.11c.63.66,1.23,1.33,1.83,2a26.44,26.44,0,0,1-3.1,3.07Zm-1.6-1.58c-.62-.6-1.24-1.21-1.87-1.8,1-1.11,2.09-2.21,3.17-3.28.69.67,1.36,1.35,2,2A35.63,35.63,0,0,1,58.42,28.94Zm-3.53-3.31c-.74-.67-1.49-1.32-2.25-2a44.14,44.14,0,0,0,3.29-3.41l2.18,2.05Q56.46,23.94,54.89,25.63Zm8.85,8.66a25.33,25.33,0,0,0,3-3q1,1.11,2,2.19-1.5,1.47-2.88,3.06Zm-37.3,9.05q8.31-8.78,17-17.21l4.88,4.25c-5.69,5.71-11.53,11.32-17,17.22-4.91,5.26-9.36,10.77-14.5,15.82a22.63,22.63,0,0,0-2.63-.4c-1.65-.3-3.3-.55-5-.77C14,55.43,20.72,49.36,26.44,43.34ZM15,85.33a64.62,64.62,0,0,0-9.8-9.77c.18-.8.35-1.6.53-2.39A59.27,59.27,0,0,1,8,64.33c2.39.22,6.13.27,8.22,1.34-.81-.27,0,1.49.14,2.65.23,1.84.44,3.68.66,5.51A1.15,1.15,0,0,0,18.16,75c2.12-.08,4.3.05,6.41-.14,2.3-.21,2.22-.68,2.47,1.58.24,2.06.39,4.13.54,6.2-.26.09-.52.17-.79.24C22.92,83.81,19,84.61,15,85.33ZM47.31,63.54Q42,69.12,36.61,74.7c-2.17,2.25-4.24,5.06-6.85,6.79-.17-2.38-.38-4.77-.73-7.13,10.81-10.6,21.13-21.68,31.29-32.91q2.11,2.13,4.11,4.38Q55.82,54.64,47.31,63.54ZM69.75,40.46l-2.27-2.3c.92-1.06,1.88-2.09,2.88-3.07q1.22,1.2,2.58,2.34C71.86,38.45,70.79,39.46,69.75,40.46Zm16.7-19.11a44.76,44.76,0,0,1-8,10.63Q68.65,21.8,58.55,11.86l.44-.41c4.54-4.09,10.2-10.21,17-8.32,3.16.87,5.75,3.63,7.88,6C87.38,13,89,16.21,86.45,21.35Z"/><path class="cls-1" d="M68,9.1c-.27-1.42-2.44-.81-2.17.6a46.09,46.09,0,0,0,1.55,6c.46,1.37,2.63.78,2.17-.6A46.09,46.09,0,0,1,68,9.1Z"/><path class="cls-1" d="M71.79,8.33c-.45-1.37-2.63-.78-2.17.6.57,1.69,1.13,3.39,1.7,5.08.45,1.37,2.63.78,2.17-.6C72.92,11.72,72.36,10,71.79,8.33Z"/></g></g></svg>