<svg xmlns="http://www.w3.org/2000/svg" viewBox="0 0 98.9 78.37"><defs><style>.cls-1{fill:#8b71ff;}</style></defs><g id="Capa_2" data-name="Capa 2"><g id="Layer_1" data-name="Layer 1"><path class="cls-1" d="M98.34,36.63c-.16-5.13-.06-10.26,0-15.39.07-3.27.08-6.52-.1-9.79-.13-2.61.33-5.93-.38-8.45S95.23.35,92.9.23C86.83,0,80.71.19,74.63.16,61.08.1,47.53,0,34,0,26.84,0,19.74.17,12.62.64,10.05.81,5.77.32,3.67,2.11,2.28,3.3,2.11,5.2,1.82,6.87A87,87,0,0,0,.91,18.28C.58,26.55.73,34.82.22,43.08c-.41,6.69-.15,13.36,0,20.05.11,3.75-1.09,9.8,2.09,12.62s10.21,1.65,14.1,1.77c7.15.22,14.31.42,21.47.53,13.41.21,26.81-.27,40.21.25A78.34,78.34,0,0,0,94,77.43c3-.52,4-2.32,4.25-5.17C99.46,60.49,98.7,48.42,98.34,36.63ZM8.81,3.88c1.27-.12,2.54-.15,3.81-.24,5.22-.35,10.43-.59,15.66-.63,11.23-.08,22.47.05,33.7.1l14.49.06c5.09,0,10.62-.61,15.66.05,2.36.31,2.47.51,2.9,2.92a55.68,55.68,0,0,1,.34,7.08c0,.33,0,.66,0,1q-45.61-1.65-91.27-.3c.12-1.72.27-3.43.47-5.14C5,5.53,5.58,4.18,8.81,3.88Zm86.85,55c-.13,4.1,0,8.26-.37,12.36-.24,3-1.45,2.84-4.19,3.29a62.6,62.6,0,0,1-8.53.88c-10.5.23-21.13-.25-31.66-.23-12.46,0-24.9-.34-37.35-.72-3.9-.11-9.93.42-10.17-4.6-.14-2.83-.1-5.68-.18-8.51-.19-6.09-.37-12.16,0-18.24.55-8.94.26-18,.76-26.92q45.72-1.35,91.46.3c0,4.24-.16,8.48-.18,12.71C95.21,39.08,96,48.93,95.66,58.85Z"/><path class="cls-1" d="M11.44,12.09c1.84-.21,3.76-1.27,3.44-3.41a3.58,3.58,0,0,0-3.53-3.26c-1.87,0-3.23,1.8-3.52,3.5C7.47,11,9.52,12.32,11.44,12.09Zm-1.33-3c.15-.55.58-1.4,1.24-1.38a1.17,1.17,0,0,1,1.19.86c.3.93-.23,1.14-1.08,1.3a1.73,1.73,0,0,1-1.1-.1C10,9.55,10,9.48,10.11,9.05Z"/><path class="cls-1" d="M20.88,12a3.52,3.52,0,0,0,3.78-3.35,3.22,3.22,0,0,0-3.37-3.56,3.62,3.62,0,0,0-3.87,3.14A3.69,3.69,0,0,0,20.88,12ZM19.67,8.24c.16-.68,1-.94,1.62-.91s1.25.39,1.14,1.14A1.28,1.28,0,0,1,20.9,9.73C20.23,9.62,19.5,9,19.67,8.24Z"/><path class="cls-1" d="M31,11.82a3.69,3.69,0,0,0,3.45-3.57A3.66,3.66,0,0,0,30.8,4.77a3.93,3.93,0,0,0-3.66,3.77C27,10.67,29,12,31,11.82ZM30.8,7a1.28,1.28,0,0,1,.25,2.54c-.65.12-1.63-.15-1.67-.86A1.65,1.65,0,0,1,30.8,7Z"/><path class="cls-1" d="M36.94,26.32c-3.13-2.54-7.51-.39-10.29,1.54-5.25,3.64-9.56,8.21-14.52,12.2C4.6,46.65,13.72,53.84,19,57.76c3.53,2.64,7.78,6.28,12.1,7.56,2.86.85,7.26-.27,7.47-3.86s-5.28-7.1-7.67-9.2a54.92,54.92,0,0,0-4.58-3.6c-.69-.48-1.41-.93-2.11-1.41-1.54-1-2.15-.82-1.21-2.31C25.33,41.17,44.13,32.17,36.94,26.32ZM20.5,47.45c1.67,2.07,5.32,3.54,7.41,5.26,1.65,1.35,3.17,2.82,4.69,4.29.62.6,2.51,1.8,2.77,2.66,1.26,4.21-2.13,3.91-4.21,3.23l.59-.44a1.16,1.16,0,0,0,.41-1.54,1.13,1.13,0,0,0-1.54-.4l-1.32,1a1.55,1.55,0,0,0-.38.43c-.47-.23-.94-.49-1.4-.76l.51-.34a1.13,1.13,0,0,0-1.14-1.94,9.68,9.68,0,0,0-1.37,1q-.84-.57-1.65-1.17l.94-.5c1.28-.68.14-2.62-1.14-1.94l-1.79.95-1.06-.83.56-.35a1.12,1.12,0,0,0-1.13-1.94A8.55,8.55,0,0,0,19,55l-1.64-1.26a5.23,5.23,0,0,1,.93-.59,1.14,1.14,0,0,0,.41-1.54,1.15,1.15,0,0,0-1.54-.4,6,6,0,0,0-1.55,1.08c-.42-.37-.83-.75-1.21-1.14l1.08-.72c1.2-.8.07-2.75-1.14-1.94l-1.41.93a7.47,7.47,0,0,1-1.16-2.26h1.07a1.13,1.13,0,0,0,0-2.25H11.62a5.1,5.1,0,0,1,1-2.09A9.25,9.25,0,0,0,14,44a1.13,1.13,0,0,0,1.13-1.95c.18.13-.18-.16-.22-.2s-.28-.28-.41-.42l-.24-.24,1.13-.95a14.26,14.26,0,0,1,1.23,1.34A1.12,1.12,0,1,0,18.18,40a13.3,13.3,0,0,0-1.13-1.24l1.6-1.45c.42.38.86.75,1.27,1.15a1.12,1.12,0,0,0,1.59-1.59c-.38-.37-.78-.72-1.18-1.07.61-.55,1.23-1.09,1.87-1.61.4.46.83.9,1.24,1.36,1,1.08,2.56-.52,1.59-1.59-.35-.39-.77-.74-1.1-1.15l.85-.64c.42-.3.82-.61,1.22-.93l.62.85a1.16,1.16,0,0,0,1.54.4,1.13,1.13,0,0,0,.4-1.54l-.79-1.08a15.46,15.46,0,0,1,1.58-1l.1.12,1,1c1,1,2.63-.58,1.6-1.59l-.58-.56c1.4-.54,2.6-.53,3.52,1.19,1.17,2.18,0,2.69-1.54,4.21C29.72,37,25,39.59,21.21,43.26,19.8,44.64,19.22,45.84,20.5,47.45Z"/><path class="cls-1" d="M79.8,33c-3.54-2.65-7.78-6.29-12.11-7.57-2.85-.84-7.26.27-7.47,3.86s5.28,7.11,7.67,9.2a52.9,52.9,0,0,0,4.58,3.6c.7.49,1.42.94,2.12,1.42,1.54,1,2.15.81,1.2,2.31-2.38,3.77-21.18,12.77-14,18.62,3.13,2.54,7.5.39,10.29-1.54,5.24-3.65,9.55-8.21,14.51-12.2C94.14,44.15,85,37,79.8,33ZM85,49.15c-3.81,3.06-7.09,6.6-11.06,9.45a41,41,0,0,1-5.19,3.72c-2,1-3.77,1.8-5-.5a2.37,2.37,0,0,1-.33-2.11c.55.43,1.09.88,1.65,1.28a1.13,1.13,0,0,0,1.54-.4,1.16,1.16,0,0,0-.4-1.54c-.46-.33-.9-.68-1.33-1l.42-.41c.33-.34.67-.65,1-1a18.76,18.76,0,0,0,1.41,1.41,1.15,1.15,0,0,0,1.59,0,1.12,1.12,0,0,0,0-1.59A16.07,16.07,0,0,1,68,55.16c.54-.45,1.09-.88,1.65-1.31a21.64,21.64,0,0,0,1.44,1.73c1,1,2.6-.55,1.59-1.59-.45-.47-.85-1-1.25-1.49.46-.34.92-.68,1.37-1A14.45,14.45,0,0,1,74,52.77a1.12,1.12,0,0,0,1.59-1.59c-.32-.38-.63-.75-1-1.1.59-.47,1.17-1,1.73-1.45a5.28,5.28,0,0,1,.8.7c1,1.05,2.59-.54,1.59-1.59a8.06,8.06,0,0,0-.74-.69,3.77,3.77,0,0,0,.84-1.37l1.4.09a1.13,1.13,0,1,0,0-2.25l-2-.13,0,0a8.13,8.13,0,0,0-1-1l1.08-.51a1.13,1.13,0,0,0,.4-1.54,1.15,1.15,0,0,0-1.54-.4l-2,1L74,40.19l.92-.44a1.14,1.14,0,0,0,.4-1.54,1.16,1.16,0,0,0-1.54-.41L72,38.7a1.49,1.49,0,0,0-.14.12c-.35-.24-.7-.49-1-.74-.14-.11-.26-.23-.4-.35.42-.23.86-.45,1.29-.66a1.13,1.13,0,0,0,.41-1.54,1.15,1.15,0,0,0-1.54-.4,21,21,0,0,0-1.93,1c-.44-.39-.86-.8-1.29-1.2a4.27,4.27,0,0,1,.76-.4,1.18,1.18,0,0,0,.79-1.39,1.13,1.13,0,0,0-1.39-.78,9.62,9.62,0,0,0-1.83,1c-.31-.25-.7-.54-1.07-.86a4.83,4.83,0,0,1,.9-.63c1.28-.68.14-2.63-1.13-1.94a7.12,7.12,0,0,0-1.12.76c-1-4,2.71-3.45,4.66-2.71,4,1.52,7.92,4.81,11.31,7.38C83.15,38.39,91.06,43.86,85,49.15Z"/><path class="cls-1" d="M52.26,25.05C49,25,48,27.89,47.09,30.64a142.27,142.27,0,0,0-4.77,18.75c-.62,3.32-4.76,17.54,2.8,16.65,3-.35,4.83-3.48,5.76-6,2-5.28,3-11.14,4.2-16.65.57-2.69,1.07-5.39,1.59-8.09.35-1.83,1.31-4.2,1.07-6.1C57.36,26.2,55.06,25.13,52.26,25.05Zm0,20.94c-.56,2.45-1.16,4.9-1.8,7.33C49.6,56.41,49,62.61,45.1,62.5c-2.12-.06-2.23-.26-2.15-1.62a4.49,4.49,0,0,1,.8.21,1.13,1.13,0,0,0,1.38-.78,1.15,1.15,0,0,0-.78-1.39,7,7,0,0,0-1.25-.28c0-.4.09-.81.15-1.21a9.44,9.44,0,0,0,1.5.17,1.13,1.13,0,0,0,0-2.25,6.34,6.34,0,0,1-1.15-.14c0-.22.08-.45.11-.68s0-.23.06-.35a12.06,12.06,0,0,1,1.46.26,1.13,1.13,0,0,0,.6-2.17,13.75,13.75,0,0,0-1.68-.3c.11-.66.21-1.32.33-2a8.17,8.17,0,0,1,1.89.47,1.13,1.13,0,0,0,.6-2.17,9.78,9.78,0,0,0-2-.49c.1-.48.19-1,.29-1.46l1.54.35c1.41.33,2-1.84.6-2.17l-1.69-.38c.09-.48.19-1,.31-1.63l1.07.28a1.12,1.12,0,0,0,.59-2.17l-1.2-.32c.06-.27.12-.56.18-.85l1.9.41a1.16,1.16,0,0,0,1.39-.79,1.14,1.14,0,0,0-.79-1.38l-2-.43c.11-.44.22-.89.34-1.33.44.09.88.16,1.31.27a1.13,1.13,0,0,0,.6-2.17c-.43-.11-.86-.18-1.29-.27l.27-.84a5.57,5.57,0,0,1,1.2.31,1.13,1.13,0,1,0,.6-2.17,5.92,5.92,0,0,0-1-.27c.15-.33.29-.64.44-.94a3.91,3.91,0,0,0,1.09.33,1.17,1.17,0,0,0,1.39-.78A1.14,1.14,0,0,0,51.29,28c-.13,0-.24-.06-.37-.09a1.91,1.91,0,0,1,1.34-.62C57.62,27.45,52.8,43.41,52.21,46Z"/></g></g></svg>