<svg width="96" height="96" viewBox="0 0 96 96" fill="none" xmlns="http://www.w3.org/2000/svg">
<path d="M0 11.1515C0 7.91911 1.08111 5.25245 3.24324 3.15151C5.40537 1.05047 8.21625 0 11.6757 0C15.0734 0 17.8224 1.03428 19.9228 3.10302C22.0849 5.23635 23.166 8.01608 23.166 11.4424C23.166 14.5454 22.1159 17.1312 20.0154 19.2C17.8533 21.3333 15.0116 22.4 11.4903 22.4H11.3977C7.99997 22.4 5.251 21.3333 3.15058 19.2C1.05016 17.0666 0 14.3838 0 11.1515ZM1.20463 95.9998V31.2242H21.7761V95.9998H1.20463ZM33.1737 95.9998H53.7452V59.8302C53.7452 57.5675 53.9923 55.8221 54.4865 54.5938C55.3513 52.3958 56.6641 50.5372 58.4247 49.0181C60.1853 47.4989 62.3938 46.7393 65.0502 46.7393C71.9691 46.7393 75.4286 51.6201 75.4286 61.3817V95.9998H96V58.8605C96 49.2928 93.8379 42.0363 89.5135 37.0908C85.1892 32.1454 79.4749 29.6727 72.3707 29.6727C64.4015 29.6727 58.193 33.2605 53.7452 40.4363V40.6302H53.6525L53.7452 40.4363V31.2242H33.1737C33.2973 33.2928 33.3591 39.7251 33.3591 50.5211C33.3591 61.317 33.2973 76.4766 33.1737 95.9998Z" fill="white"/>
</svg>
