<svg xmlns="http://www.w3.org/2000/svg" viewBox="0 0 96.3 99.23"><defs><style>.cls-1{fill:#8b71ff;}</style></defs><g id="Capa_2" data-name="Capa 2"><g id="Layer_1" data-name="Layer 1"><path class="cls-1" d="M18.78,78.35C21,76,23.42,73.63,25.46,71.06c1-1.2,1.44-2.32.95-3.72a1,1,0,0,0-.3-.65.91.91,0,0,0-.73-.36c-3.77-1.35-7,3.44-9.35,5.84-3,3.06-7,6.52-8.22,10.69A1.12,1.12,0,0,0,8.1,84C11.9,87.78,16.51,80.75,18.78,78.35Zm-6.12,3.16c-.61.56-2.44,2-2.52,1.72-.28-1.2,2.13-3.56,2.93-4.48,1-1.14,2-2.27,3-3.38s5.93-7.3,8.25-7c-.05,1.9-5.84,7-6.77,8-1.07,1.13-2.14,2.24-3.2,3.37C13.81,80.31,13.27,81,12.66,81.51Z"/><path class="cls-1" d="M23.76,76.83c-2.37,2.49-4.74,5-7,7.54-1.75,1.95-2.88,3-2.53,5.58h0s0,.08,0,.13a.89.89,0,0,0,.53.73C18,93.65,23.5,86.2,25.29,84.3s9-7.89,7.17-11.33C30.3,68.94,25.05,75.47,23.76,76.83ZM16.36,89c.21-2.64,5-6.41,6.61-8.11.92-1,6-7,6.78-6.13C31,76.14,18.55,88.52,16.36,89Z"/><path class="cls-1" d="M88.26,73.1C79,63.77,69,55.22,59,46.61q8.79-8.72,17.45-17.55c1.31-1.35,2.6-2.9,4-4.14,2-1.78,3.07-1.48,5.55-2a5.09,5.09,0,0,0,2.18-.62c2.67-1.77,4.64-7.12,6-9.88s1.24-3.33-.91-5.63-3.16-4-6-2.5C84,6.06,78.89,8.18,76.44,11a4.17,4.17,0,0,0-1,1.88c0,.66,0,1.32,0,2a7.86,7.86,0,0,1-2.75,4.38c-1.11,1.31-2.49,2.47-3.71,3.68q-8.69,8.67-17.33,17.4C47,36.18,42.4,32,37.94,27.7c4.23-6.19,4.88-14.18.22-20.37C33.29.88,26.64-1,19,.51a1.52,1.52,0,0,0-.9,2.2c1.46,2.45,2.85,4.94,4.24,7.44a28.28,28.28,0,0,0,1.44,2.58,3.44,3.44,0,0,1,.53,1.21c-.49,2.44-1.87,5.06-2.87,7.42l-4.31-.21c-.9,0-2.45-.42-3.32-.16l-.11,0c-2.26-3.52-4.32-7.2-6.44-10.8a1.53,1.53,0,0,0-2.36-.3c-6.25,5.59-6.38,15.89-1.27,22.33,5.9,7.42,14.56,8.21,23,5.78,4.47,4.63,9,9.25,13.45,13.88l-1.52,1.5c-1.8-1.69-3.62-3.35-5.5-4.94a1.54,1.54,0,0,0-2.13,0,17.42,17.42,0,0,0-3.58,4.3c-1.2,2.34-.07,4.71-.94,7.17-.29.89-6,1-7.27,1.58-2.19,1-4.18,3-5.92,4.67a77.14,77.14,0,0,0-6.92,7.43C4.65,75.55,1.92,78.09.82,80.36c-1.62,3.35,2,6.16,4.13,8.53,2.8,3.16,6.79,8,10.57,9.86,4.14,2,7-2.78,9.62-5.38,3.9-3.92,8.13-7.83,11.4-12.3a7.71,7.71,0,0,0,1.79-4.13c.33-3.16-1.08-4.49,3.09-5.07,3.71-.52,5.87-2.05,8.5-4.89a1.55,1.55,0,0,0,0-2.13q-2.3-2.43-4.63-4.82l1.35-1.31q8.46,8.72,16.91,17.44,4.58,4.71,9.16,9.39c3.07,3.12,6.08,7,10.2,8.67,5.83,2.39,11.5-.91,13.11-6.83S92,76.86,88.26,73.1ZM67.42,27.65c3-3,8.71-6.82,10.06-10.92.34-1.06-.13-3.33.13-3.83.56-1.1,3.44-2.28,4.42-2.86,1.58-1,3.18-1.88,4.78-2.82C88.93,6,89,5.67,90.68,7.39,92,8.75,92.85,9.19,92.43,11c-.36,1.54-1.78,3.3-2.57,4.66S88.32,19,87.19,20s-3,.86-4.54,1.18c-4.41.91-7.47,6-10.5,9.05q-7.4,7.53-14.9,14.94-1.95-1.68-3.88-3.38Q60.39,34.71,67.42,27.65Zm-53.9-6.59c-.65.14-.4-.14,0,0ZM45.11,67.43c-2.43,1.74-3.92.95-6.57,1.37s-3.38,1.81-3.43,4.29c0,2.11.54,3.72-.56,5.68s-3.1,3.72-4.62,5.36c-1.86,2-3.77,4-5.68,5.88l-3.7,3.71c-1.39,1.39-1.37,1.83-3.43,1.56-3.42-.46-7.35-5.53-9.66-8.08C6,85.62,3.6,83.56,4,81.26c.39-2.11,4.46-5.68,6-7.39,3.25-3.74,7.82-9.62,13-10.06,2.59-.22,5.33-.13,6.29-3.07.73-2.06,0-3.9.48-5.88A7.75,7.75,0,0,1,32,51.56c5.2,4.51,10.06,9.37,14.79,14.36A12.53,12.53,0,0,1,45.11,67.43Zm-1.41-9Q41.95,56.67,40.16,55l1.44-1.44,3.47,3.58ZM92.59,85.85c-.38,4-2.92,7.08-7.47,6-3.34-.8-5.85-3.93-8.18-6.28C64.73,73.25,52.73,60.72,40.66,48.26l-12.57-13,0,0a1.31,1.31,0,0,0-1.43-.36c-6.81,2.16-13.22,2.46-19-2.74-5.18-4.68-6.3-13.24-1.94-18.68q1.55,2.59,3.1,5.19c.77,1.28,1.67,4,2.95,4.84,2.45,1.65,7.77.77,10.67.91a1.52,1.52,0,0,0,1.44-1.1c1-2.63,3.73-7,3.57-9.79-.08-1.32-1.36-2.84-2-3.94-1.21-2.17-2.42-4.34-3.67-6.49a14.35,14.35,0,0,1,13.39,5.3C40,14,39,21.53,34.67,27.14A1.5,1.5,0,0,0,34.9,29C47.79,41.54,61.55,53.15,75,65.08c5.41,4.8,11,9.5,15.64,15C92.5,82.31,92.9,82.7,92.59,85.85Z"/><path class="cls-1" d="M87.61,80.34c-2-1.49-4.54-.44-6,1.34a1.11,1.11,0,0,0-.24.31,1.09,1.09,0,0,0-.19.47,4.58,4.58,0,0,0,1.68,5.72c2.16,1.29,4.93.31,6.39-1.6C91,84.37,89.6,81.8,87.61,80.34Zm-.48,5.26a2.71,2.71,0,0,1-2.95.73,2.35,2.35,0,0,1-.85-3.2c.76-1.07,2.13-1.67,3.2-.78S88.33,84.47,87.13,85.6Z"/></g></g></svg>